<?xml version="1.0" encoding="UTF-8" standalone="no"?>
<svg
   xmlns:dc="http://purl.org/dc/elements/1.1/"
   xmlns:cc="http://creativecommons.org/ns#"
   xmlns:rdf="http://www.w3.org/1999/02/22-rdf-syntax-ns#"
   xmlns:svg="http://www.w3.org/2000/svg"
   xmlns="http://www.w3.org/2000/svg"
   xmlns:sodipodi="http://sodipodi.sourceforge.net/DTD/sodipodi-0.dtd"
   xmlns:inkscape="http://www.inkscape.org/namespaces/inkscape"
   version="1.0"
   id="svg2"
   width="154.79239"
   height="27.043892"
   viewBox="0 0 171.99155 30.048767"
   inkscape:version="0.48.4 r9939"
   sodipodi:docname="protoboard.svg">
  <metadata
     id="metadata24">
    <rdf:RDF>
      <cc:Work
         rdf:about="">
        <dc:format>image/svg+xml</dc:format>
        <dc:type
           rdf:resource="http://purl.org/dc/dcmitype/StillImage" />
      </cc:Work>
    </rdf:RDF>
  </metadata>
  <defs
     id="defs22" />
  <sodipodi:namedview
     pagecolor="#ffffff"
     bordercolor="#666666"
     borderopacity="1"
     objecttolerance="10"
     gridtolerance="10"
     guidetolerance="10"
     inkscape:pageopacity="0"
     inkscape:pageshadow="2"
     inkscape:window-width="1366"
     inkscape:window-height="726"
     id="namedview20"
     showgrid="false"
     inkscape:zoom="6.1806366"
     inkscape:cx="76.85066"
     inkscape:cy="2.7098035"
     inkscape:window-x="0"
     inkscape:window-y="19"
     inkscape:window-maximized="1"
     inkscape:current-layer="breadboard"
     showguides="true"
     inkscape:guide-bbox="true"
     fit-margin-top="0"
     fit-margin-left="0"
     fit-margin-right="0"
     fit-margin-bottom="0">
    <sodipodi:guide
       orientation="0,1"
       position="27.614938,0.029589937"
       id="guide3869" />
    <sodipodi:guide
       orientation="0,1"
       position="25.169493,2.7896537"
       id="guide3931" />
  </sodipodi:namedview>
  <g
     id="breadboard">
    <polygon
       style="fill:#8c8c8c"
       id="pinflare0"
       points="8.5,26.74 8.5,25.66 3.5,25.66 3.5,25.66 3.5,27.66 6.5,27.66 " />
    <rect
       style="fill:#8c8c8c"
       height="3"
       width="3"
       y="27"
       x="3.5"
       id="connector0terminal" />
    <rect
       style="fill:#8c8c8c"
       id="connector0pin"
       height="4.3400002"
       width="3"
       y="25.672941"
       x="3.5" />
    <polygon
       style="fill:#8c8c8c"
       id="pinflare1"
       points="18.5,26.74 18.5,25.66 13.5,25.66 13.5,25.66 13.5,27.66 16.5,27.66 " />
    <rect
       style="fill:#8c8c8c"
       height="3"
       width="3"
       y="27"
       x="13.5"
       id="connector1terminal" />
    <rect
       style="fill:#8c8c8c"
       id="connector1pin"
       height="4.3400002"
       width="3"
       y="25.672941"
       x="13.5" />
    <polygon
       style="fill:#8c8c8c"
       id="pinflare2"
       points="28.5,26.74 28.5,25.66 23.5,25.66 23.5,25.66 23.5,27.66 26.5,27.66 " />
    <rect
       style="fill:#8c8c8c"
       height="3"
       width="3"
       y="27"
       x="23.5"
       id="connector2terminal" />
    <rect
       style="fill:#8c8c8c"
       id="connector2pin"
       height="4.3400002"
       width="3"
       y="25.672941"
       x="23.5" />
    <polygon
       points="23.5,25.66 23.5,25.66 23.5,27.66 26.5,27.66 28.5,26.74 28.5,25.66 "
       id="polygon3865"
       style="fill:#8c8c8c"
       transform="translate(9.9947046,0.01588983)" />
    <rect
       x="33.494705"
       y="25.688829"
       width="3"
       height="4.3400002"
       id="rect3867"
       style="fill:#8c8c8c" />
    <polygon
       points="8.5,26.74 8.5,25.66 3.5,25.66 3.5,25.66 3.5,27.66 6.5,27.66 "
       id="polygon3897"
       style="fill:#8c8c8c"
       transform="translate(130.01243,0.0199391)" />
    <rect
       x="133.51244"
       y="25.692881"
       width="3"
       height="4.3400002"
       id="rect3899"
       style="fill:#8c8c8c" />
    <polygon
       points="18.5,26.74 18.5,25.66 13.5,25.66 13.5,25.66 13.5,27.66 16.5,27.66 "
       id="polygon3901"
       style="fill:#8c8c8c"
       transform="translate(130.01243,0.0199391)" />
    <rect
       x="143.51244"
       y="25.692881"
       width="3"
       height="4.3400002"
       id="rect3903"
       style="fill:#8c8c8c" />
    <polygon
       points="28.5,26.74 28.5,25.66 23.5,25.66 23.5,25.66 23.5,27.66 26.5,27.66 "
       id="polygon3905"
       style="fill:#8c8c8c"
       transform="translate(130.01243,0.0199391)" />
    <rect
       x="153.51244"
       y="25.692881"
       width="3"
       height="4.3400002"
       id="rect3907"
       style="fill:#8c8c8c" />
    <polygon
       transform="translate(140.00713,0.035829)"
       style="fill:#8c8c8c"
       id="polygon3909"
       points="23.5,25.66 23.5,25.66 23.5,27.66 26.5,27.66 28.5,26.74 28.5,25.66 " />
    <rect
       style="fill:#8c8c8c"
       id="rect3911"
       height="4.3400002"
       width="3"
       y="25.708769"
       x="163.50714" />
    <rect
       style="fill:#008000;stroke:none"
       id="rect3933"
       width="171.99155"
       height="26.949156"
       x="5.6879399e-09"
       y="-1.4707153e-06" />
    <rect
       style="fill:#ffff00;stroke:none"
       id="rect3935"
       width="10.067284"
       height="11.325694"
       x="48.269382"
       y="54.051731"
       transform="matrix(0.76240222,-0.64710343,0.64710343,0.76240222,0,0)" />
    <rect
       style="fill:#00ffff;stroke:none"
       id="rect3937"
       width="2.5168209"
       height="11.865013"
       x="96.358284"
       y="5.37111" />
    <rect
       style="fill:#ff6600;stroke:none"
       id="rect3939"
       width="7.3706908"
       height="11.685238"
       x="140.22289"
       y="6.0902009" />
  </g>
</svg>
