<?xml version='1.0' encoding='UTF-8' standalone='no'?>
<!-- Created with Fritzing (http://www.fritzing.org/) -->
<svg xmlns="http://www.w3.org/2000/svg" width="4in" x="0in" version="1.2" y="0in"  height="2.111in" viewBox="0 0 288 151.992" baseProfile="tiny" xmlns:svg="http://www.w3.org/2000/svg">
 <g partID="323210">
  <g  id="board">
   <path fill="none"  stroke="black" fill-opacity="0.5" id="boardoutline" stroke-width="0.5" d="M280.63,33.9902L280.63,5.6457L274.961,0L0,0l0,151.645l282.047,0l0,-6.31567l5.67,-7.13662L287.717,41.0998L280.63,33.9902z"/>
   <g  id="hole_11_"/>
   <g  id="hole_10_"/>
   <g  id="hole_9_"/>
   <g  id="hole_8_"/>
   <g  id="hole_7_"/>
   <g  id="hole_6_"/>
   <g  id="ICSP1_1_"/>
   <g  id="ICSP2_1_"/>
   <g  id="Header_13_"/>
   <g  id="Header_12_"/>
   <g  id="Header_11_"/>
   <g  id="Header_10_"/>
   <g  id="Header_9_"/>
   <g  id="Header_8_"/>
   <g  id="Header_7_"/>
   <g  id="usbconnector_1_"/>
  </g>
 </g>
 <g partID="327020">
  <g transform="translate(15.4512,5.31208)">
   <g transform="matrix(0,1,-1,0,0,0)">
    <g transform="matrix(-1, 0, 0, 1, 34.888, 0)">
     <g _flipped_="1" id="copper0">
      <text x="17.444" y="7.84977" fill="black" font-family="OCRA" text-anchor="middle" xmlns:xml="http://www.w3.org/XML/1998/namespace" id="label" xml:space="preserve" stroke-width="0" font-size="8.72199">2013</text>
     </g>
    </g>
   </g>
  </g>
 </g>
 <g partID="327000">
  <g transform="translate(17.2239,31.2733)">
   <g transform="matrix(0,1,-1,0,0,0)">
    <g transform="matrix(-1, 0, 0, 1, 130.83, 0)">
     <g _flipped_="1" id="copper0">
      <text x="65.4149" y="9.81222" fill="black" font-family="OCRA" text-anchor="middle" xmlns:xml="http://www.w3.org/XML/1998/namespace" id="label" xml:space="preserve" stroke-width="0" font-size="10.9025">Luz &amp; Fuerza</text>
     </g>
    </g>
   </g>
  </g>
 </g>
 <g partID="326980">
  <g transform="translate(30.205,116.518)">
   <g transform="matrix(0,1,-1,0,0,0)">
    <g transform="matrix(-1, 0, 0, 1, 32.7074, 0)">
     <g _flipped_="1" id="copper0">
      <text x="16.3537" y="9.81222" fill="black" font-family="OCRA" text-anchor="middle" xmlns:xml="http://www.w3.org/XML/1998/namespace" id="label" xml:space="preserve" stroke-width="0" font-size="10.9025">Mar</text>
     </g>
    </g>
   </g>
  </g>
 </g>
 <g partID="357450">
  <g transform="translate(56.5749,64.0624)">
   <g transform="matrix(-1, 0, 0, 1, 32.7074, 0)">
    <g _flipped_="1" id="copper0">
     <text x="16.3537" y="9.81222" fill="black" font-family="OCRA" text-anchor="middle" xmlns:xml="http://www.w3.org/XML/1998/namespace" id="label" xml:space="preserve" stroke-width="0" font-size="10.9025">7-8</text>
    </g>
   </g>
  </g>
 </g>
 <g partID="357430">
  <g transform="translate(92.9887,64.0624)">
   <g transform="matrix(-1, 0, 0, 1, 32.7074, 0)">
    <g _flipped_="1" id="copper0">
     <text x="16.3537" y="9.81222" fill="black" font-family="OCRA" text-anchor="middle" xmlns:xml="http://www.w3.org/XML/1998/namespace" id="label" xml:space="preserve" stroke-width="0" font-size="10.9025">5-6</text>
    </g>
   </g>
  </g>
 </g>
 <g partID="357410">
  <g transform="translate(139.996,64.0624)">
   <g transform="matrix(-1, 0, 0, 1, 32.7074, 0)">
    <g _flipped_="1" id="copper0">
     <text x="16.3537" y="9.81222" fill="black" font-family="OCRA" text-anchor="middle" xmlns:xml="http://www.w3.org/XML/1998/namespace" id="label" xml:space="preserve" stroke-width="0" font-size="10.9025">3-4</text>
    </g>
   </g>
  </g>
 </g>
 <g partID="357390">
  <g transform="translate(175.19,64.0624)">
   <g transform="matrix(-1, 0, 0, 1, 32.7074, 0)">
    <g _flipped_="1" id="copper0">
     <text x="16.3537" y="9.81222" fill="black" font-family="OCRA" text-anchor="middle" xmlns:xml="http://www.w3.org/XML/1998/namespace" id="label" xml:space="preserve" stroke-width="0" font-size="10.9025">1-2</text>
    </g>
   </g>
  </g>
 </g>
 <g partID="323270">
  <g transform="translate(-1.4576,0.5104)">
   <g  id="copper0">
    <circle fill="none" cx="215.998"  cy="144" stroke="black" id="connector1pad" r="1.61" stroke-width="0.8113"/>
    <circle fill="none" cx="100.798"  cy="144" stroke="black" id="connector257pad" r="1.61" stroke-width="0.8113"/>
    <circle fill="none" cx="223.196"  cy="144" stroke="black" id="connector2pad" r="1.61" stroke-width="0.8113"/>
    <circle fill="none" cx="230.398"  cy="144" stroke="black" id="connector3pad" r="1.61" stroke-width="0.8113"/>
    <circle fill="none" cx="237.597"  cy="144" stroke="black" id="connector4pad" r="1.61" stroke-width="0.8113"/>
    <circle fill="none" cx="244.798"  cy="144" stroke="black" id="connector5pad" r="1.61" stroke-width="0.8113"/>
    <circle fill="none" cx="266.398"  cy="43.2" stroke="black" id="connector353pad" r="1.861" stroke-width="1.0295"/>
    <circle fill="none" cx="251.998"  cy="144" stroke="black" id="connector6pad" r="1.61" stroke-width="0.8113"/>
    <circle fill="none" cx="259.196"  cy="144" stroke="black" id="connector7pad" r="1.61" stroke-width="0.8113"/>
    <circle fill="none" cx="103.677"  cy="7.2" stroke="black" id="connector241pad" r="1.61" stroke-width="0.8113"/>
    <circle fill="none" cx="143.998"  cy="144" stroke="black" id="connector8pad" r="1.61" stroke-width="0.8113"/>
    <circle fill="none" cx="151.196"  cy="144" stroke="black" id="connector9pad" r="1.61" stroke-width="0.8113"/>
    <circle fill="none" cx="158.398"  cy="144" stroke="black" id="connector10pad" r="1.61" stroke-width="0.8113"/>
    <circle fill="none" cx="165.597"  cy="144" stroke="black" id="connector11pad" r="1.61" stroke-width="0.8113"/>
    <circle fill="none" cx="266.398"  cy="100.8" stroke="black" id="connector369pad" r="1.861" stroke-width="1.0295"/>
    <circle fill="none" cx="172.798"  cy="144" stroke="black" id="connector12pad" r="1.61" stroke-width="0.8113"/>
    <circle fill="none" cx="179.998"  cy="144" stroke="black" id="connector13pad" r="1.61" stroke-width="0.8113"/>
    <circle fill="none" cx="187.196"  cy="144" stroke="black" id="connector14pad" r="1.61" stroke-width="0.8113"/>
    <circle fill="none" cx="194.398"  cy="144" stroke="black" id="connector15pad" r="1.61" stroke-width="0.8113"/>
    <circle fill="none" cx="158.398"  cy="7.2" stroke="black" id="connector265pad" r="1.61" stroke-width="0.8113"/>
    <circle fill="none" cx="266.398"  cy="14.4" stroke="black" id="connector345pad" r="1.861" stroke-width="1.0295"/>
    <circle fill="none" cx="266.398"  cy="72" stroke="black" id="connector361pad" r="1.861" stroke-width="1.0295"/>
    <circle fill="none" cx="266.398"  cy="129.6" stroke="black" id="connector377pad" r="1.861" stroke-width="1.0295"/>
    <circle fill="none" cx="74.878"  cy="7.2" stroke="black" id="connector237pad" r="1.61" stroke-width="0.8113"/>
    <circle fill="none" cx="129.597"  cy="144" stroke="black" id="connector261pad" r="1.61" stroke-width="0.8113"/>
    <circle fill="none" cx="129.597"  cy="7.2" stroke="black" id="connector269pad" r="1.61" stroke-width="0.8113"/>
    <circle fill="none" cx="266.398"  cy="28.8" stroke="black" id="connector349pad" r="1.861" stroke-width="1.0295"/>
    <circle fill="none" cx="266.398"  cy="57.6" stroke="black" id="connector357pad" r="1.861" stroke-width="1.0295"/>
    <circle fill="none" cx="266.398"  cy="86.4" stroke="black" id="connector365pad" r="1.86" stroke-width="1.0295"/>
    <circle fill="none" cx="244.798"  cy="7.2" stroke="black" id="connector46pad" r="1.61" stroke-width="0.8113"/>
    <circle fill="none" cx="266.398"  cy="115.2" stroke="black" id="connector373pad" r="1.861" stroke-width="1.0295"/>
    <circle fill="none" cx="237.597"  cy="7.2" stroke="black" id="connector47pad" r="1.61" stroke-width="0.8113"/>
    <circle fill="none" cx="230.398"  cy="7.2" stroke="black" id="connector48pad" r="1.61" stroke-width="0.8113"/>
    <circle fill="none" cx="223.196"  cy="7.2" stroke="black" id="connector49pad" r="1.61" stroke-width="0.8113"/>
    <circle fill="none" cx="215.998"  cy="7.2" stroke="black" id="connector50pad" r="1.61" stroke-width="0.8113"/>
    <circle fill="none" cx="208.798"  cy="7.2" stroke="black" id="connector51pad" r="1.61" stroke-width="0.8113"/>
    <circle fill="none" cx="201.597"  cy="7.2" stroke="black" id="connector52pad" r="1.61" stroke-width="0.8113"/>
    <circle fill="none" cx="194.398"  cy="7.2" stroke="black" id="connector53pad" r="1.61" stroke-width="0.8113"/>
    <circle fill="none" cx="60.477"  cy="7.2" stroke="black" id="connector235pad" r="1.61" stroke-width="0.8113"/>
    <circle fill="none" cx="89.277"  cy="7.2" stroke="black" id="connector239pad" r="1.61" stroke-width="0.8113"/>
    <circle fill="none" cx="118.077"  cy="7.2" stroke="black" id="connector243pad" r="1.61" stroke-width="0.8113"/>
    <circle fill="none" cx="86.397"  cy="144" stroke="black" id="connector255pad" r="1.61" stroke-width="0.8113"/>
    <circle fill="none" cx="115.197"  cy="144" stroke="black" id="connector259pad" r="1.61" stroke-width="0.8113"/>
    <circle fill="none" cx="172.798"  cy="7.2" stroke="black" id="connector263pad" r="1.61" stroke-width="0.8113"/>
    <circle fill="none" cx="143.998"  cy="7.2" stroke="black" id="connector267pad" r="1.61" stroke-width="0.8113"/>
    <circle fill="none" cx="266.398"  cy="7.2" stroke="black" id="connector343pad" r="1.861" stroke-width="1.0295"/>
    <circle fill="none" cx="266.398"  cy="21.6" stroke="black" id="connector347pad" r="1.861" stroke-width="1.0295"/>
    <circle fill="none" cx="266.398"  cy="36" stroke="black" id="connector351pad" r="1.861" stroke-width="1.0295"/>
    <circle fill="none" cx="266.398"  cy="50.4" stroke="black" id="connector355pad" r="1.861" stroke-width="1.0295"/>
    <circle fill="none" cx="266.398"  cy="64.8" stroke="black" id="connector359pad" r="1.861" stroke-width="1.0295"/>
    <circle fill="none" cx="266.398"  cy="79.2" stroke="black" id="connector363pad" r="1.861" stroke-width="1.0295"/>
    <circle fill="none" cx="266.398"  cy="93.6" stroke="black" id="connector367pad" r="1.861" stroke-width="1.0295"/>
    <circle fill="none" cx="266.398"  cy="108" stroke="black" id="connector371pad" r="1.861" stroke-width="1.0295"/>
    <circle fill="none" cx="266.398"  cy="122.4" stroke="black" id="connector375pad" r="1.86" stroke-width="1.0295"/>
    <circle fill="none" cx="53.276"  cy="7.2" stroke="black" id="connector234pad" r="1.61" stroke-width="0.8113"/>
    <circle fill="none" cx="67.677"  cy="7.2" stroke="black" id="connector236pad" r="1.61" stroke-width="0.8113"/>
    <circle fill="none" cx="82.077"  cy="7.2" stroke="black" id="connector238pad" r="1.61" stroke-width="0.8113"/>
    <circle fill="none" cx="96.477"  cy="7.2" stroke="black" id="connector240pad" r="1.61" stroke-width="0.8113"/>
    <circle fill="none" cx="110.878"  cy="7.2" stroke="black" id="connector242pad" r="1.61" stroke-width="0.8113"/>
    <circle fill="none" cx="79.197"  cy="144" stroke="black" id="connector254pad" r="1.61" stroke-width="0.8113"/>
    <circle fill="none" cx="93.597"  cy="144" stroke="black" id="connector256pad" r="1.61" stroke-width="0.8113"/>
    <circle fill="none" cx="107.998"  cy="144" stroke="black" id="connector258pad" r="1.61" stroke-width="0.8113"/>
    <circle fill="none" cx="122.397"  cy="144" stroke="black" id="connector260pad" r="1.61" stroke-width="0.8113"/>
    <circle fill="none" cx="179.998"  cy="7.2" stroke="black" id="connector262pad" r="1.61" stroke-width="0.8113"/>
    <circle fill="none" cx="165.597"  cy="7.2" stroke="black" id="connector264pad" r="1.61" stroke-width="0.8113"/>
    <circle fill="none" cx="151.196"  cy="7.2" stroke="black" id="connector266pad" r="1.61" stroke-width="0.8113"/>
    <circle fill="none" cx="136.798"  cy="7.2" stroke="black" id="connector268pad" r="1.61" stroke-width="0.8113"/>
    <circle fill="none" cx="273.597"  cy="7.2" stroke="black" id="connector344pad" r="1.861" stroke-width="1.0295"/>
    <circle fill="none" cx="273.597"  cy="14.4" stroke="black" id="connector346pad" r="1.861" stroke-width="1.0295"/>
    <circle fill="none" cx="273.597"  cy="21.6" stroke="black" id="connector348pad" r="1.861" stroke-width="1.0295"/>
    <circle fill="none" cx="273.597"  cy="28.8" stroke="black" id="connector350pad" r="1.861" stroke-width="1.0295"/>
    <circle fill="none" cx="273.597"  cy="36" stroke="black" id="connector352pad" r="1.861" stroke-width="1.0295"/>
    <circle fill="none" cx="273.597"  cy="43.2" stroke="black" id="connector354pad" r="1.861" stroke-width="1.0295"/>
    <circle fill="none" cx="273.597"  cy="50.4" stroke="black" id="connector356pad" r="1.861" stroke-width="1.0295"/>
    <circle fill="none" cx="273.597"  cy="57.6" stroke="black" id="connector358pad" r="1.861" stroke-width="1.0295"/>
    <circle fill="none" cx="273.597"  cy="64.8" stroke="black" id="connector360pad" r="1.861" stroke-width="1.0295"/>
    <circle fill="none" cx="273.597"  cy="72" stroke="black" id="connector362pad" r="1.861" stroke-width="1.0295"/>
    <circle fill="none" cx="273.597"  cy="79.2" stroke="black" id="connector364pad" r="1.861" stroke-width="1.0295"/>
    <circle fill="none" cx="273.597"  cy="86.4" stroke="black" id="connector366pad" r="1.86" stroke-width="1.0295"/>
    <circle fill="none" cx="273.597"  cy="93.6" stroke="black" id="connector368pad" r="1.861" stroke-width="1.0295"/>
    <circle fill="none" cx="273.597"  cy="100.8" stroke="black" id="connector370pad" r="1.861" stroke-width="1.0295"/>
    <circle fill="none" cx="273.597"  cy="108" stroke="black" id="connector372pad" r="1.861" stroke-width="1.0295"/>
    <circle fill="none" cx="273.597"  cy="115.2" stroke="black" id="connector374pad" r="1.861" stroke-width="1.0295"/>
    <circle fill="none" cx="273.597"  cy="122.4" stroke="black" id="connector376pad" r="1.86" stroke-width="1.0295"/>
    <circle fill="none" cx="273.597"  cy="129.6" stroke="black" id="connector378pad" r="1.861" stroke-width="1.0295"/>
    <circle fill="none" cx="208.798"  cy="144" stroke="black" id="connector0pad" r="1.61" stroke-width="0.8113"/>
   </g>
  </g>
 </g>
 <g partID="303050">
  <g transform="translate(171.418,28.7548)">
   <g transform="matrix(0,1,-1,0,0,0)">
    <g id="copper0">
     <rect width="4.32" x="12.24" y="6.72661" fill="none" height="4.32" stroke="black" id="square" stroke-width="1.44"/>
     <circle fill="none" cx="14.4" cy="8.8866" stroke="black" id="connector0pin" r="2.16" stroke-width="1.44"/>
     <circle fill="none" cx="14.4" cy="23.0599" stroke="black" id="connector1pin" r="2.16" stroke-width="1.44"/>
    </g>
   </g>
  </g>
 </g>
 <g partID="303030">
  <g transform="translate(89.8622,28.7548)">
   <g transform="matrix(0,1,-1,0,0,0)">
    <g id="copper0">
     <rect width="4.32" x="12.24" y="6.72661" fill="none" height="4.32" stroke="black" id="square" stroke-width="1.44"/>
     <circle fill="none" cx="14.4" cy="8.8866" stroke="black" id="connector0pin" r="2.16" stroke-width="1.44"/>
     <circle fill="none" cx="14.4" cy="23.0599" stroke="black" id="connector1pin" r="2.16" stroke-width="1.44"/>
    </g>
   </g>
  </g>
 </g>
 <g partID="587160">
  <g transform="translate(243.014,91.4973)">
   <g transform="matrix(0,1,-1,0,0,0)">
    <g id="copper0">
     <rect width="4.32" x="12.24" y="6.72661" fill="none" height="4.32" stroke="black" id="square" stroke-width="1.44"/>
     <circle fill="none" cx="14.4" cy="8.8866" stroke="black" id="connector0pin" r="2.16" stroke-width="1.44"/>
     <circle fill="none" cx="14.4" cy="23.0599" stroke="black" id="connector1pin" r="2.16" stroke-width="1.44"/>
     <circle fill="none" cx="14.4" cy="37.2331" stroke="black" id="connector2pin" r="2.16" stroke-width="1.44"/>
    </g>
   </g>
  </g>
 </g>
 <g partID="303010">
  <g transform="translate(124.321,28.7548)">
   <g transform="matrix(0,1,-1,0,0,0)">
    <g id="copper0">
     <rect width="4.32" x="12.24" y="6.72661" fill="none" height="4.32" stroke="black" id="square" stroke-width="1.44"/>
     <circle fill="none" cx="14.4" cy="8.8866" stroke="black" id="connector0pin" r="2.16" stroke-width="1.44"/>
     <circle fill="none" cx="14.4" cy="23.0599" stroke="black" id="connector1pin" r="2.16" stroke-width="1.44"/>
    </g>
   </g>
  </g>
 </g>
 <g partID="302830">
  <g transform="translate(208.456,28.7548)">
   <g transform="matrix(0,1,-1,0,0,0)">
    <g id="copper0">
     <rect width="4.32" x="12.24" y="6.72661" fill="none" height="4.32" stroke="black" id="square" stroke-width="1.44"/>
     <circle fill="none" cx="14.4" cy="8.8866" stroke="black" id="connector0pin" r="2.16" stroke-width="1.44"/>
     <circle fill="none" cx="14.4" cy="23.0599" stroke="black" id="connector1pin" r="2.16" stroke-width="1.44"/>
    </g>
   </g>
  </g>
 </g>
 <g partID="588020">
  <g transform="translate(233.298,98.642)">
   <g transform="matrix(-1,0,0,-1,0,0)">
    <g transform="matrix(-1, 0, 0, 1, 36, 0)">
     <g _flipped_="1" id="copper0">
      <text x="18" y="6.48" fill="black" font-family="OCRA" text-anchor="middle" xmlns:xml="http://www.w3.org/XML/1998/namespace" id="label" xml:space="preserve" stroke-width="0" font-size="7.2">V G S</text>
     </g>
    </g>
   </g>
  </g>
 </g>
 <g partID="357330">
  <line stroke="black" stroke-linecap="round" y1="21.7456" x1="185.331" y2="40.1148" stroke-width="3.456" x2="185.387"/>
 </g>
 <g partID="357300">
  <line stroke="black" stroke-linecap="round" y1="15.7064" x1="164.328" y2="15.8867" stroke-width="3.456" x2="199.393"/>
 </g>
 <g partID="357270">
  <line stroke="black" stroke-linecap="round" y1="21.4752" x1="157.117" y2="21.7456" stroke-width="3.456" x2="185.331"/>
 </g>
 <g partID="357240">
  <line stroke="black" stroke-linecap="round" y1="15.8867" x1="199.393" y2="40.1149" stroke-width="3.456" x2="199.55"/>
 </g>
 <g partID="357220">
  <line stroke="black" stroke-linecap="round" y1="10.514" x1="164.206" y2="15.7064" stroke-width="3.456" x2="164.328"/>
 </g>
 <g partID="357200">
  <line stroke="black" stroke-linecap="round" y1="10.5145" x1="156.976" y2="21.4752" stroke-width="3.456" x2="157.117"/>
 </g>
 <g partID="357130">
  <line stroke="black" stroke-linecap="round" y1="31.0256" x1="150.164" y2="41.0262" stroke-width="3.456" x2="160.361"/>
 </g>
 <g partID="357110">
  <line stroke="black" stroke-linecap="round" y1="10.5143" x1="149.79" y2="31.0256" stroke-width="3.456" x2="150.164"/>
 </g>
 <g partID="357080">
  <line stroke="black" stroke-linecap="round" y1="31.8904" x1="142.899" y2="40.4192" stroke-width="3.456" x2="147.032"/>
 </g>
 <g partID="357060">
  <line stroke="black" stroke-linecap="round" y1="10.5144" x1="142.582" y2="31.8904" stroke-width="3.456" x2="142.899"/>
 </g>
 <g partID="356750">
  <line stroke="black" stroke-linecap="round" y1="19.4232" x1="81.1578" y2="40.1149" stroke-width="3.456" x2="80.9989"/>
 </g>
 <g partID="356600">
  <line stroke="black" stroke-linecap="round" y1="19.4232" x1="116.727" y2="19.4232" stroke-width="3.456" x2="81.1578"/>
 </g>
 <g partID="356580">
  <line stroke="black" stroke-linecap="round" y1="10.5146" x1="116.645" y2="19.4232" stroke-width="3.456" x2="116.727"/>
 </g>
 <g partID="356550">
  <line stroke="black" stroke-linecap="round" y1="13.2688" x1="109.465" y2="13.3919" stroke-width="3.456" x2="66.8808"/>
 </g>
 <g partID="356520">
  <line stroke="black" stroke-linecap="round" y1="13.3919" x1="66.8808" y2="40.1148" stroke-width="3.456" x2="66.8103"/>
 </g>
 <g partID="356500">
  <line stroke="black" stroke-linecap="round" y1="10.5147" x1="109.443" y2="13.2688" stroke-width="3.456" x2="109.465"/>
 </g>
 <g partID="356840">
  <line stroke="black" stroke-linecap="round" y1="25.2076" x1="101.219" y2="40.1148" stroke-width="3.456" x2="101.254"/>
 </g>
 <g partID="356810">
  <line stroke="black" stroke-linecap="round" y1="24.8384" x1="128.296" y2="25.2076" stroke-width="3.456" x2="101.219"/>
 </g>
 <g partID="323190">
  <line stroke="black" stroke-linecap="round" y1="10.5146" x1="128.165" y2="24.8384" stroke-width="3.456" x2="128.296"/>
 </g>
 <g partID="356870">
  <line stroke="black" stroke-linecap="round" y1="30.9925" x1="115.373" y2="40.1149" stroke-width="3.456" x2="115.419"/>
 </g>
 <g partID="356780">
  <line stroke="black" stroke-linecap="round" y1="30.984" x1="134.942" y2="30.9925" stroke-width="3.456" x2="115.373"/>
 </g>
 <g partID="323150">
  <line stroke="black" stroke-linecap="round" y1="10.5143" x1="135.293" y2="30.984" stroke-width="3.456" x2="134.942"/>
 </g>
 <g partID="587660">
  <line stroke="black" stroke-linecap="round" y1="134.021" x1="106.972" y2="141.708" stroke-width="3.456" x2="106.656"/>
 </g>
 <g partID="587720">
  <line stroke="black" stroke-linecap="round" y1="106.525" x1="184.957" y2="134.021" stroke-width="3.456" x2="106.972"/>
 </g>
 <g partID="587670">
  <line stroke="black" stroke-linecap="round" y1="105.989" x1="202.742" y2="106.525" stroke-width="3.456" x2="184.957"/>
 </g>
 <g partID="587780">
  <line stroke="black" stroke-linecap="round" y1="130.229" x1="220.039" y2="108.937" stroke-width="3.456" x2="219.964"/>
 </g>
 <g partID="587790">
  <line stroke="black" stroke-linecap="round" y1="130.118" x1="261.994" y2="130.229" stroke-width="3.456" x2="220.039"/>
 </g>
 <g partID="587920">
  <line stroke="black" stroke-linecap="round" y1="15.2657" x1="253.935" y2="15.0055" stroke-width="3.456" x2="261.996"/>
 </g>
 <g partID="587860">
  <line stroke="black" stroke-linecap="round" y1="23.3249" x1="233.787" y2="15.2657" stroke-width="3.456" x2="253.935"/>
 </g>
 <g partID="587870">
  <line stroke="black" stroke-linecap="round" y1="103.657" x1="234.118" y2="23.3249" stroke-width="3.456" x2="233.787"/>
 </g>
</svg>
