<?xml version='1.0' encoding='UTF-8' standalone='no'?>
<!-- Created with Fritzing (http://www.fritzing.org/) -->
<svg xmlns="http://www.w3.org/2000/svg" width="4in" x="0in" version="1.2" y="0in"  height="2.111in" viewBox="0 0 288 151.992" baseProfile="tiny" xmlns:svg="http://www.w3.org/2000/svg">
 <g partID="323211">
  <g id="silkscreen0">
   <path fill="none" stroke="black" id="outline_2_" d="M274.857,0.249987l5.522,5.49971l0,28.2405l0,0.103995l0.073,0.0729962l7.014,7.03663l0,96.9029l-5.615,7.06763l-0.055,0.0679964l0,0.0869954l0,6.06568L0.25,151.395L0.25,0.249987L274.857,0.249987M274.961,0L0,0l0,151.645l282.047,0l0,-6.31567l5.67,-7.13662L287.717,41.0998l-7.087,-7.10963L280.63,5.6457L274.961,0L274.961,0z"/>
  </g>
 </g>
 <g partID="323210">
  <g id="board">
   <path fill="none" stroke="black" fill-opacity="0.5" id="boardoutline" stroke-width="0.5" d="M280.63,33.9902L280.63,5.6457L274.961,0L0,0l0,151.645l282.047,0l0,-6.31567l5.67,-7.13662L287.717,41.0998L280.63,33.9902z"/>
   <g id="hole_11_"/>
   <g id="hole_10_"/>
   <g id="hole_9_"/>
   <g id="hole_8_"/>
   <g id="hole_7_"/>
   <g id="hole_6_"/>
   <g id="ICSP1_1_"/>
   <g id="ICSP2_1_"/>
   <g id="Header_13_"/>
   <g id="Header_12_"/>
   <g id="Header_11_"/>
   <g id="Header_10_"/>
   <g id="Header_9_"/>
   <g id="Header_8_"/>
   <g id="Header_7_"/>
   <g id="usbconnector_1_"/>
  </g>
 </g>
 <g partID="323211">
  <g id="silkscreen0">
   <path fill="none" stroke="black" id="outline_2_" d="M274.857,0.249987l5.522,5.49971l0,28.2405l0,0.103995l0.073,0.0729962l7.014,7.03663l0,96.9029l-5.615,7.06763l-0.055,0.0679964l0,0.0869954l0,6.06568L0.25,151.395L0.25,0.249987L274.857,0.249987M274.961,0L0,0l0,151.645l282.047,0l0,-6.31567l5.67,-7.13662L287.717,41.0998l-7.087,-7.10963L280.63,5.6457L274.961,0L274.961,0z"/>
  </g>
 </g>
 <g partID="323270">
  <g transform="translate(-1.4576,0.5104)">
   <g id="copper0">
    <circle fill="white" cx="215.998" cy="144" stroke="white" id="connector1pad" r="1.61" stroke-width="1.5313"/>
    <circle fill="white" cx="100.798" cy="144" stroke="white" id="connector257pad" r="1.61" stroke-width="1.5313"/>
    <circle fill="white" cx="223.196" cy="144" stroke="white" id="connector2pad" r="1.61" stroke-width="1.5313"/>
    <circle fill="white" cx="230.398" cy="144" stroke="white" id="connector3pad" r="1.61" stroke-width="1.5313"/>
    <circle fill="white" cx="237.597" cy="144" stroke="white" id="connector4pad" r="1.61" stroke-width="1.5313"/>
    <circle fill="white" cx="244.798" cy="144" stroke="white" id="connector5pad" r="1.61" stroke-width="1.5313"/>
    <circle fill="white" cx="266.398" cy="43.2" stroke="white" id="connector353pad" r="1.861" stroke-width="1.7495"/>
    <circle fill="white" cx="251.998" cy="144" stroke="white" id="connector6pad" r="1.61" stroke-width="1.5313"/>
    <circle fill="white" cx="259.196" cy="144" stroke="white" id="connector7pad" r="1.61" stroke-width="1.5313"/>
    <circle fill="white" cx="103.677" cy="7.2" stroke="white" id="connector241pad" r="1.61" stroke-width="1.5313"/>
    <circle fill="white" cx="143.998" cy="144" stroke="white" id="connector8pad" r="1.61" stroke-width="1.5313"/>
    <circle fill="white" cx="151.196" cy="144" stroke="white" id="connector9pad" r="1.61" stroke-width="1.5313"/>
    <circle fill="white" cx="158.398" cy="144" stroke="white" id="connector10pad" r="1.61" stroke-width="1.5313"/>
    <circle fill="white" cx="165.597" cy="144" stroke="white" id="connector11pad" r="1.61" stroke-width="1.5313"/>
    <circle fill="white" cx="266.398" cy="100.8" stroke="white" id="connector369pad" r="1.861" stroke-width="1.7495"/>
    <circle fill="white" cx="172.798" cy="144" stroke="white" id="connector12pad" r="1.61" stroke-width="1.5313"/>
    <circle fill="white" cx="179.998" cy="144" stroke="white" id="connector13pad" r="1.61" stroke-width="1.5313"/>
    <circle fill="white" cx="187.196" cy="144" stroke="white" id="connector14pad" r="1.61" stroke-width="1.5313"/>
    <circle fill="white" cx="194.398" cy="144" stroke="white" id="connector15pad" r="1.61" stroke-width="1.5313"/>
    <circle fill="white" cx="158.398" cy="7.2" stroke="white" id="connector265pad" r="1.61" stroke-width="1.5313"/>
    <circle fill="white" cx="266.398" cy="14.4" stroke="white" id="connector345pad" r="1.861" stroke-width="1.7495"/>
    <circle fill="white" cx="266.398" cy="72" stroke="white" id="connector361pad" r="1.861" stroke-width="1.7495"/>
    <circle fill="white" cx="266.398" cy="129.6" stroke="white" id="connector377pad" r="1.861" stroke-width="1.7495"/>
    <circle fill="white" cx="74.878" cy="7.2" stroke="white" id="connector237pad" r="1.61" stroke-width="1.5313"/>
    <circle fill="white" cx="129.597" cy="144" stroke="white" id="connector261pad" r="1.61" stroke-width="1.5313"/>
    <circle fill="white" cx="129.597" cy="7.2" stroke="white" id="connector269pad" r="1.61" stroke-width="1.5313"/>
    <circle fill="white" cx="266.398" cy="28.8" stroke="white" id="connector349pad" r="1.861" stroke-width="1.7495"/>
    <circle fill="white" cx="266.398" cy="57.6" stroke="white" id="connector357pad" r="1.861" stroke-width="1.7495"/>
    <circle fill="white" cx="266.398" cy="86.4" stroke="white" id="connector365pad" r="1.86" stroke-width="1.7495"/>
    <circle fill="white" cx="244.798" cy="7.2" stroke="white" id="connector46pad" r="1.61" stroke-width="1.5313"/>
    <circle fill="white" cx="266.398" cy="115.2" stroke="white" id="connector373pad" r="1.861" stroke-width="1.7495"/>
    <circle fill="white" cx="237.597" cy="7.2" stroke="white" id="connector47pad" r="1.61" stroke-width="1.5313"/>
    <circle fill="white" cx="230.398" cy="7.2" stroke="white" id="connector48pad" r="1.61" stroke-width="1.5313"/>
    <circle fill="white" cx="223.196" cy="7.2" stroke="white" id="connector49pad" r="1.61" stroke-width="1.5313"/>
    <circle fill="white" cx="215.998" cy="7.2" stroke="white" id="connector50pad" r="1.61" stroke-width="1.5313"/>
    <circle fill="white" cx="208.798" cy="7.2" stroke="white" id="connector51pad" r="1.61" stroke-width="1.5313"/>
    <circle fill="white" cx="201.597" cy="7.2" stroke="white" id="connector52pad" r="1.61" stroke-width="1.5313"/>
    <circle fill="white" cx="194.398" cy="7.2" stroke="white" id="connector53pad" r="1.61" stroke-width="1.5313"/>
    <circle fill="white" cx="60.477" cy="7.2" stroke="white" id="connector235pad" r="1.61" stroke-width="1.5313"/>
    <circle fill="white" cx="89.277" cy="7.2" stroke="white" id="connector239pad" r="1.61" stroke-width="1.5313"/>
    <circle fill="white" cx="118.077" cy="7.2" stroke="white" id="connector243pad" r="1.61" stroke-width="1.5313"/>
    <circle fill="white" cx="86.397" cy="144" stroke="white" id="connector255pad" r="1.61" stroke-width="1.5313"/>
    <circle fill="white" cx="115.197" cy="144" stroke="white" id="connector259pad" r="1.61" stroke-width="1.5313"/>
    <circle fill="white" cx="172.798" cy="7.2" stroke="white" id="connector263pad" r="1.61" stroke-width="1.5313"/>
    <circle fill="white" cx="143.998" cy="7.2" stroke="white" id="connector267pad" r="1.61" stroke-width="1.5313"/>
    <circle fill="white" cx="266.398" cy="7.2" stroke="white" id="connector343pad" r="1.861" stroke-width="1.7495"/>
    <circle fill="white" cx="266.398" cy="21.6" stroke="white" id="connector347pad" r="1.861" stroke-width="1.7495"/>
    <circle fill="white" cx="266.398" cy="36" stroke="white" id="connector351pad" r="1.861" stroke-width="1.7495"/>
    <circle fill="white" cx="266.398" cy="50.4" stroke="white" id="connector355pad" r="1.861" stroke-width="1.7495"/>
    <circle fill="white" cx="266.398" cy="64.8" stroke="white" id="connector359pad" r="1.861" stroke-width="1.7495"/>
    <circle fill="white" cx="266.398" cy="79.2" stroke="white" id="connector363pad" r="1.861" stroke-width="1.7495"/>
    <circle fill="white" cx="266.398" cy="93.6" stroke="white" id="connector367pad" r="1.861" stroke-width="1.7495"/>
    <circle fill="white" cx="266.398" cy="108" stroke="white" id="connector371pad" r="1.861" stroke-width="1.7495"/>
    <circle fill="white" cx="266.398" cy="122.4" stroke="white" id="connector375pad" r="1.86" stroke-width="1.7495"/>
    <circle fill="white" cx="53.276" cy="7.2" stroke="white" id="connector234pad" r="1.61" stroke-width="1.5313"/>
    <circle fill="white" cx="67.677" cy="7.2" stroke="white" id="connector236pad" r="1.61" stroke-width="1.5313"/>
    <circle fill="white" cx="82.077" cy="7.2" stroke="white" id="connector238pad" r="1.61" stroke-width="1.5313"/>
    <circle fill="white" cx="96.477" cy="7.2" stroke="white" id="connector240pad" r="1.61" stroke-width="1.5313"/>
    <circle fill="white" cx="110.878" cy="7.2" stroke="white" id="connector242pad" r="1.61" stroke-width="1.5313"/>
    <circle fill="white" cx="79.197" cy="144" stroke="white" id="connector254pad" r="1.61" stroke-width="1.5313"/>
    <circle fill="white" cx="93.597" cy="144" stroke="white" id="connector256pad" r="1.61" stroke-width="1.5313"/>
    <circle fill="white" cx="107.998" cy="144" stroke="white" id="connector258pad" r="1.61" stroke-width="1.5313"/>
    <circle fill="white" cx="122.397" cy="144" stroke="white" id="connector260pad" r="1.61" stroke-width="1.5313"/>
    <circle fill="white" cx="179.998" cy="7.2" stroke="white" id="connector262pad" r="1.61" stroke-width="1.5313"/>
    <circle fill="white" cx="165.597" cy="7.2" stroke="white" id="connector264pad" r="1.61" stroke-width="1.5313"/>
    <circle fill="white" cx="151.196" cy="7.2" stroke="white" id="connector266pad" r="1.61" stroke-width="1.5313"/>
    <circle fill="white" cx="136.798" cy="7.2" stroke="white" id="connector268pad" r="1.61" stroke-width="1.5313"/>
    <circle fill="white" cx="273.597" cy="7.2" stroke="white" id="connector344pad" r="1.861" stroke-width="1.7495"/>
    <circle fill="white" cx="273.597" cy="14.4" stroke="white" id="connector346pad" r="1.861" stroke-width="1.7495"/>
    <circle fill="white" cx="273.597" cy="21.6" stroke="white" id="connector348pad" r="1.861" stroke-width="1.7495"/>
    <circle fill="white" cx="273.597" cy="28.8" stroke="white" id="connector350pad" r="1.861" stroke-width="1.7495"/>
    <circle fill="white" cx="273.597" cy="36" stroke="white" id="connector352pad" r="1.861" stroke-width="1.7495"/>
    <circle fill="white" cx="273.597" cy="43.2" stroke="white" id="connector354pad" r="1.861" stroke-width="1.7495"/>
    <circle fill="white" cx="273.597" cy="50.4" stroke="white" id="connector356pad" r="1.861" stroke-width="1.7495"/>
    <circle fill="white" cx="273.597" cy="57.6" stroke="white" id="connector358pad" r="1.861" stroke-width="1.7495"/>
    <circle fill="white" cx="273.597" cy="64.8" stroke="white" id="connector360pad" r="1.861" stroke-width="1.7495"/>
    <circle fill="white" cx="273.597" cy="72" stroke="white" id="connector362pad" r="1.861" stroke-width="1.7495"/>
    <circle fill="white" cx="273.597" cy="79.2" stroke="white" id="connector364pad" r="1.861" stroke-width="1.7495"/>
    <circle fill="white" cx="273.597" cy="86.4" stroke="white" id="connector366pad" r="1.86" stroke-width="1.7495"/>
    <circle fill="white" cx="273.597" cy="93.6" stroke="white" id="connector368pad" r="1.861" stroke-width="1.7495"/>
    <circle fill="white" cx="273.597" cy="100.8" stroke="white" id="connector370pad" r="1.861" stroke-width="1.7495"/>
    <circle fill="white" cx="273.597" cy="108" stroke="white" id="connector372pad" r="1.861" stroke-width="1.7495"/>
    <circle fill="white" cx="273.597" cy="115.2" stroke="white" id="connector374pad" r="1.861" stroke-width="1.7495"/>
    <circle fill="white" cx="273.597" cy="122.4" stroke="white" id="connector376pad" r="1.86" stroke-width="1.7495"/>
    <circle fill="white" cx="273.597" cy="129.6" stroke="white" id="connector378pad" r="1.861" stroke-width="1.7495"/>
    <circle fill="white" cx="208.798" cy="144" stroke="white" id="connector0pad" r="1.61" stroke-width="1.5313"/>
   </g>
  </g>
 </g>
 <g partID="303050">
  <g transform="translate(171.418,28.7548)">
   <g transform="matrix(0,1,-1,0,0,0)">
    <g id="copper0">
     <rect width="4.32" x="12.24" y="6.72661" fill="white" height="4.32" stroke="white" id="square" stroke-width="2.16"/>
     <circle fill="white" cx="14.4" cy="8.8866" stroke="white" id="connector0pin" r="2.16" stroke-width="2.16"/>
     <circle fill="white" cx="14.4" cy="23.0599" stroke="white" id="connector1pin" r="2.16" stroke-width="2.16"/>
    </g>
   </g>
  </g>
 </g>
 <g partID="587160">
  <g transform="translate(243.013,91.4974)">
   <g transform="matrix(0,1,-1,0,0,0)">
    <g id="copper0">
     <rect width="4.32" x="12.24" y="6.72661" fill="white" height="4.32" stroke="white" id="square" stroke-width="2.16"/>
     <circle fill="white" cx="14.4" cy="8.8866" stroke="white" id="connector0pin" r="2.16" stroke-width="2.16"/>
     <circle fill="white" cx="14.4" cy="23.0599" stroke="white" id="connector1pin" r="2.16" stroke-width="2.16"/>
     <circle fill="white" cx="14.4" cy="37.2331" stroke="white" id="connector2pin" r="2.16" stroke-width="2.16"/>
    </g>
   </g>
  </g>
 </g>
 <g partID="303030">
  <g transform="translate(89.8622,28.7548)">
   <g transform="matrix(0,1,-1,0,0,0)">
    <g id="copper0">
     <rect width="4.32" x="12.24" y="6.72661" fill="white" height="4.32" stroke="white" id="square" stroke-width="2.16"/>
     <circle fill="white" cx="14.4" cy="8.8866" stroke="white" id="connector0pin" r="2.16" stroke-width="2.16"/>
     <circle fill="white" cx="14.4" cy="23.0599" stroke="white" id="connector1pin" r="2.16" stroke-width="2.16"/>
    </g>
   </g>
  </g>
 </g>
 <g partID="303010">
  <g transform="translate(124.321,28.7548)">
   <g transform="matrix(0,1,-1,0,0,0)">
    <g id="copper0">
     <rect width="4.32" x="12.24" y="6.72661" fill="white" height="4.32" stroke="white" id="square" stroke-width="2.16"/>
     <circle fill="white" cx="14.4" cy="8.8866" stroke="white" id="connector0pin" r="2.16" stroke-width="2.16"/>
     <circle fill="white" cx="14.4" cy="23.0599" stroke="white" id="connector1pin" r="2.16" stroke-width="2.16"/>
    </g>
   </g>
  </g>
 </g>
 <g partID="302830">
  <g transform="translate(208.456,28.7548)">
   <g transform="matrix(0,1,-1,0,0,0)">
    <g id="copper0">
     <rect width="4.32" x="12.24" y="6.72661" fill="white" height="4.32" stroke="white" id="square" stroke-width="2.16"/>
     <circle fill="white" cx="14.4" cy="8.8866" stroke="white" id="connector0pin" r="2.16" stroke-width="2.16"/>
     <circle fill="white" cx="14.4" cy="23.0599" stroke="white" id="connector1pin" r="2.16" stroke-width="2.16"/>
    </g>
   </g>
  </g>
 </g>
 <g partID="673500">
  <g transform="translate(237.235,89.3018)">
   <g transform="matrix(-1,0,0,-1,0,0)">
    <g id="copper0">
     <g id="copper1">
      <rect width="3.96" x="0.72" y="1.116" fill="white" height="3.96" stroke="white" stroke-width="2.16"/>
      <circle fill="white" cx="2.7" cy="3.096" stroke="white" r="1.98" id="connector0pin" stroke-width="2.16"/>
      <circle fill="white" cx="31.5" cy="3.096" stroke="white" r="1.98" id="connector1pin" stroke-width="2.16"/>
     </g>
    </g>
   </g>
  </g>
 </g>
</svg>
