<?xml version='1.0' encoding='UTF-8' standalone='no'?>
<!-- Created with Fritzing (http://www.fritzing.org/) -->
<svg xmlns="http://www.w3.org/2000/svg" width="4in" x="0in" version="1.2" y="0in"  height="2.111in" viewBox="0 0 288 151.992" baseProfile="tiny" xmlns:svg="http://www.w3.org/2000/svg">
 <g partID="323210">
  <g  id="board">
   <path fill="none"  stroke="black" fill-opacity="0.5" id="boardoutline" stroke-width="0.5" d="M280.63,33.9902L280.63,5.6457L274.961,0L0,0l0,151.645l282.047,0l0,-6.31567l5.67,-7.13662L287.717,41.0998L280.63,33.9902z"/>
   <g  id="hole_11_"/>
   <g  id="hole_10_"/>
   <g  id="hole_9_"/>
   <g  id="hole_8_"/>
   <g  id="hole_7_"/>
   <g  id="hole_6_"/>
   <g  id="ICSP1_1_"/>
   <g  id="ICSP2_1_"/>
   <g  id="Header_13_"/>
   <g  id="Header_12_"/>
   <g  id="Header_11_"/>
   <g  id="Header_10_"/>
   <g  id="Header_9_"/>
   <g  id="Header_8_"/>
   <g  id="Header_7_"/>
   <g  id="usbconnector_1_"/>
  </g>
 </g>
 <g partID="323271">
  <g transform="translate(-1.4576,0.5104)">
   <g  id="copper1">
    <g  id="copper0">
     <circle fill="none" cx="215.998"  cy="144" stroke="black" id="connector1pad" r="1.61" stroke-width="0.8113"/>
     <circle fill="none" cx="100.798"  cy="144" stroke="black" id="connector257pad" r="1.61" stroke-width="0.8113"/>
     <circle fill="none" cx="223.196"  cy="144" stroke="black" id="connector2pad" r="1.61" stroke-width="0.8113"/>
     <circle fill="none" cx="230.398"  cy="144" stroke="black" id="connector3pad" r="1.61" stroke-width="0.8113"/>
     <circle fill="none" cx="237.597"  cy="144" stroke="black" id="connector4pad" r="1.61" stroke-width="0.8113"/>
     <circle fill="none" cx="244.798"  cy="144" stroke="black" id="connector5pad" r="1.61" stroke-width="0.8113"/>
     <circle fill="none" cx="266.398"  cy="43.2" stroke="black" id="connector353pad" r="1.861" stroke-width="1.0295"/>
     <circle fill="none" cx="251.998"  cy="144" stroke="black" id="connector6pad" r="1.61" stroke-width="0.8113"/>
     <circle fill="none" cx="259.196"  cy="144" stroke="black" id="connector7pad" r="1.61" stroke-width="0.8113"/>
     <circle fill="none" cx="103.677"  cy="7.2" stroke="black" id="connector241pad" r="1.61" stroke-width="0.8113"/>
     <circle fill="none" cx="143.998"  cy="144" stroke="black" id="connector8pad" r="1.61" stroke-width="0.8113"/>
     <circle fill="none" cx="151.196"  cy="144" stroke="black" id="connector9pad" r="1.61" stroke-width="0.8113"/>
     <circle fill="none" cx="158.398"  cy="144" stroke="black" id="connector10pad" r="1.61" stroke-width="0.8113"/>
     <circle fill="none" cx="165.597"  cy="144" stroke="black" id="connector11pad" r="1.61" stroke-width="0.8113"/>
     <circle fill="none" cx="266.398"  cy="100.8" stroke="black" id="connector369pad" r="1.861" stroke-width="1.0295"/>
     <circle fill="none" cx="172.798"  cy="144" stroke="black" id="connector12pad" r="1.61" stroke-width="0.8113"/>
     <circle fill="none" cx="179.998"  cy="144" stroke="black" id="connector13pad" r="1.61" stroke-width="0.8113"/>
     <circle fill="none" cx="187.196"  cy="144" stroke="black" id="connector14pad" r="1.61" stroke-width="0.8113"/>
     <circle fill="none" cx="194.398"  cy="144" stroke="black" id="connector15pad" r="1.61" stroke-width="0.8113"/>
     <circle fill="none" cx="158.398"  cy="7.2" stroke="black" id="connector265pad" r="1.61" stroke-width="0.8113"/>
     <circle fill="none" cx="266.398"  cy="14.4" stroke="black" id="connector345pad" r="1.861" stroke-width="1.0295"/>
     <circle fill="none" cx="266.398"  cy="72" stroke="black" id="connector361pad" r="1.861" stroke-width="1.0295"/>
     <circle fill="none" cx="266.398"  cy="129.6" stroke="black" id="connector377pad" r="1.861" stroke-width="1.0295"/>
     <circle fill="none" cx="74.878"  cy="7.2" stroke="black" id="connector237pad" r="1.61" stroke-width="0.8113"/>
     <circle fill="none" cx="129.597"  cy="144" stroke="black" id="connector261pad" r="1.61" stroke-width="0.8113"/>
     <circle fill="none" cx="129.597"  cy="7.2" stroke="black" id="connector269pad" r="1.61" stroke-width="0.8113"/>
     <circle fill="none" cx="266.398"  cy="28.8" stroke="black" id="connector349pad" r="1.861" stroke-width="1.0295"/>
     <circle fill="none" cx="266.398"  cy="57.6" stroke="black" id="connector357pad" r="1.861" stroke-width="1.0295"/>
     <circle fill="none" cx="266.398"  cy="86.4" stroke="black" id="connector365pad" r="1.86" stroke-width="1.0295"/>
     <circle fill="none" cx="244.798"  cy="7.2" stroke="black" id="connector46pad" r="1.61" stroke-width="0.8113"/>
     <circle fill="none" cx="266.398"  cy="115.2" stroke="black" id="connector373pad" r="1.861" stroke-width="1.0295"/>
     <circle fill="none" cx="237.597"  cy="7.2" stroke="black" id="connector47pad" r="1.61" stroke-width="0.8113"/>
     <circle fill="none" cx="230.398"  cy="7.2" stroke="black" id="connector48pad" r="1.61" stroke-width="0.8113"/>
     <circle fill="none" cx="223.196"  cy="7.2" stroke="black" id="connector49pad" r="1.61" stroke-width="0.8113"/>
     <circle fill="none" cx="215.998"  cy="7.2" stroke="black" id="connector50pad" r="1.61" stroke-width="0.8113"/>
     <circle fill="none" cx="208.798"  cy="7.2" stroke="black" id="connector51pad" r="1.61" stroke-width="0.8113"/>
     <circle fill="none" cx="201.597"  cy="7.2" stroke="black" id="connector52pad" r="1.61" stroke-width="0.8113"/>
     <circle fill="none" cx="194.398"  cy="7.2" stroke="black" id="connector53pad" r="1.61" stroke-width="0.8113"/>
     <circle fill="none" cx="60.477"  cy="7.2" stroke="black" id="connector235pad" r="1.61" stroke-width="0.8113"/>
     <circle fill="none" cx="89.277"  cy="7.2" stroke="black" id="connector239pad" r="1.61" stroke-width="0.8113"/>
     <circle fill="none" cx="118.077"  cy="7.2" stroke="black" id="connector243pad" r="1.61" stroke-width="0.8113"/>
     <circle fill="none" cx="86.397"  cy="144" stroke="black" id="connector255pad" r="1.61" stroke-width="0.8113"/>
     <circle fill="none" cx="115.197"  cy="144" stroke="black" id="connector259pad" r="1.61" stroke-width="0.8113"/>
     <circle fill="none" cx="172.798"  cy="7.2" stroke="black" id="connector263pad" r="1.61" stroke-width="0.8113"/>
     <circle fill="none" cx="143.998"  cy="7.2" stroke="black" id="connector267pad" r="1.61" stroke-width="0.8113"/>
     <circle fill="none" cx="266.398"  cy="7.2" stroke="black" id="connector343pad" r="1.861" stroke-width="1.0295"/>
     <circle fill="none" cx="266.398"  cy="21.6" stroke="black" id="connector347pad" r="1.861" stroke-width="1.0295"/>
     <circle fill="none" cx="266.398"  cy="36" stroke="black" id="connector351pad" r="1.861" stroke-width="1.0295"/>
     <circle fill="none" cx="266.398"  cy="50.4" stroke="black" id="connector355pad" r="1.861" stroke-width="1.0295"/>
     <circle fill="none" cx="266.398"  cy="64.8" stroke="black" id="connector359pad" r="1.861" stroke-width="1.0295"/>
     <circle fill="none" cx="266.398"  cy="79.2" stroke="black" id="connector363pad" r="1.861" stroke-width="1.0295"/>
     <circle fill="none" cx="266.398"  cy="93.6" stroke="black" id="connector367pad" r="1.861" stroke-width="1.0295"/>
     <circle fill="none" cx="266.398"  cy="108" stroke="black" id="connector371pad" r="1.861" stroke-width="1.0295"/>
     <circle fill="none" cx="266.398"  cy="122.4" stroke="black" id="connector375pad" r="1.86" stroke-width="1.0295"/>
     <circle fill="none" cx="53.276"  cy="7.2" stroke="black" id="connector234pad" r="1.61" stroke-width="0.8113"/>
     <circle fill="none" cx="67.677"  cy="7.2" stroke="black" id="connector236pad" r="1.61" stroke-width="0.8113"/>
     <circle fill="none" cx="82.077"  cy="7.2" stroke="black" id="connector238pad" r="1.61" stroke-width="0.8113"/>
     <circle fill="none" cx="96.477"  cy="7.2" stroke="black" id="connector240pad" r="1.61" stroke-width="0.8113"/>
     <circle fill="none" cx="110.878"  cy="7.2" stroke="black" id="connector242pad" r="1.61" stroke-width="0.8113"/>
     <circle fill="none" cx="79.197"  cy="144" stroke="black" id="connector254pad" r="1.61" stroke-width="0.8113"/>
     <circle fill="none" cx="93.597"  cy="144" stroke="black" id="connector256pad" r="1.61" stroke-width="0.8113"/>
     <circle fill="none" cx="107.998"  cy="144" stroke="black" id="connector258pad" r="1.61" stroke-width="0.8113"/>
     <circle fill="none" cx="122.397"  cy="144" stroke="black" id="connector260pad" r="1.61" stroke-width="0.8113"/>
     <circle fill="none" cx="179.998"  cy="7.2" stroke="black" id="connector262pad" r="1.61" stroke-width="0.8113"/>
     <circle fill="none" cx="165.597"  cy="7.2" stroke="black" id="connector264pad" r="1.61" stroke-width="0.8113"/>
     <circle fill="none" cx="151.196"  cy="7.2" stroke="black" id="connector266pad" r="1.61" stroke-width="0.8113"/>
     <circle fill="none" cx="136.798"  cy="7.2" stroke="black" id="connector268pad" r="1.61" stroke-width="0.8113"/>
     <circle fill="none" cx="273.597"  cy="7.2" stroke="black" id="connector344pad" r="1.861" stroke-width="1.0295"/>
     <circle fill="none" cx="273.597"  cy="14.4" stroke="black" id="connector346pad" r="1.861" stroke-width="1.0295"/>
     <circle fill="none" cx="273.597"  cy="21.6" stroke="black" id="connector348pad" r="1.861" stroke-width="1.0295"/>
     <circle fill="none" cx="273.597"  cy="28.8" stroke="black" id="connector350pad" r="1.861" stroke-width="1.0295"/>
     <circle fill="none" cx="273.597"  cy="36" stroke="black" id="connector352pad" r="1.861" stroke-width="1.0295"/>
     <circle fill="none" cx="273.597"  cy="43.2" stroke="black" id="connector354pad" r="1.861" stroke-width="1.0295"/>
     <circle fill="none" cx="273.597"  cy="50.4" stroke="black" id="connector356pad" r="1.861" stroke-width="1.0295"/>
     <circle fill="none" cx="273.597"  cy="57.6" stroke="black" id="connector358pad" r="1.861" stroke-width="1.0295"/>
     <circle fill="none" cx="273.597"  cy="64.8" stroke="black" id="connector360pad" r="1.861" stroke-width="1.0295"/>
     <circle fill="none" cx="273.597"  cy="72" stroke="black" id="connector362pad" r="1.861" stroke-width="1.0295"/>
     <circle fill="none" cx="273.597"  cy="79.2" stroke="black" id="connector364pad" r="1.861" stroke-width="1.0295"/>
     <circle fill="none" cx="273.597"  cy="86.4" stroke="black" id="connector366pad" r="1.86" stroke-width="1.0295"/>
     <circle fill="none" cx="273.597"  cy="93.6" stroke="black" id="connector368pad" r="1.861" stroke-width="1.0295"/>
     <circle fill="none" cx="273.597"  cy="100.8" stroke="black" id="connector370pad" r="1.861" stroke-width="1.0295"/>
     <circle fill="none" cx="273.597"  cy="108" stroke="black" id="connector372pad" r="1.861" stroke-width="1.0295"/>
     <circle fill="none" cx="273.597"  cy="115.2" stroke="black" id="connector374pad" r="1.861" stroke-width="1.0295"/>
     <circle fill="none" cx="273.597"  cy="122.4" stroke="black" id="connector376pad" r="1.86" stroke-width="1.0295"/>
     <circle fill="none" cx="273.597"  cy="129.6" stroke="black" id="connector378pad" r="1.861" stroke-width="1.0295"/>
     <circle fill="none" cx="208.798"  cy="144" stroke="black" id="connector0pad" r="1.61" stroke-width="0.8113"/>
    </g>
   </g>
  </g>
 </g>
 <g partID="303051">
  <g transform="translate(171.418,28.7548)">
   <g transform="matrix(0,1,-1,0,0,0)">
    <g id="copper1">
     <g id="copper0">
      <rect width="4.32" x="12.24" y="6.72661" fill="none" height="4.32" stroke="black" id="square" stroke-width="1.44"/>
      <circle fill="none" cx="14.4" cy="8.8866" stroke="black" id="connector0pin" r="2.16" stroke-width="1.44"/>
      <circle fill="none" cx="14.4" cy="23.0599" stroke="black" id="connector1pin" r="2.16" stroke-width="1.44"/>
     </g>
    </g>
   </g>
  </g>
 </g>
 <g partID="303031">
  <g transform="translate(89.8622,28.7548)">
   <g transform="matrix(0,1,-1,0,0,0)">
    <g id="copper1">
     <g id="copper0">
      <rect width="4.32" x="12.24" y="6.72661" fill="none" height="4.32" stroke="black" id="square" stroke-width="1.44"/>
      <circle fill="none" cx="14.4" cy="8.8866" stroke="black" id="connector0pin" r="2.16" stroke-width="1.44"/>
      <circle fill="none" cx="14.4" cy="23.0599" stroke="black" id="connector1pin" r="2.16" stroke-width="1.44"/>
     </g>
    </g>
   </g>
  </g>
 </g>
 <g partID="303011">
  <g transform="translate(124.321,28.7548)">
   <g transform="matrix(0,1,-1,0,0,0)">
    <g id="copper1">
     <g id="copper0">
      <rect width="4.32" x="12.24" y="6.72661" fill="none" height="4.32" stroke="black" id="square" stroke-width="1.44"/>
      <circle fill="none" cx="14.4" cy="8.8866" stroke="black" id="connector0pin" r="2.16" stroke-width="1.44"/>
      <circle fill="none" cx="14.4" cy="23.0599" stroke="black" id="connector1pin" r="2.16" stroke-width="1.44"/>
     </g>
    </g>
   </g>
  </g>
 </g>
 <g partID="302831">
  <g transform="translate(208.456,28.7548)">
   <g transform="matrix(0,1,-1,0,0,0)">
    <g id="copper1">
     <g id="copper0">
      <rect width="4.32" x="12.24" y="6.72661" fill="none" height="4.32" stroke="black" id="square" stroke-width="1.44"/>
      <circle fill="none" cx="14.4" cy="8.8866" stroke="black" id="connector0pin" r="2.16" stroke-width="1.44"/>
      <circle fill="none" cx="14.4" cy="23.0599" stroke="black" id="connector1pin" r="2.16" stroke-width="1.44"/>
     </g>
    </g>
   </g>
  </g>
 </g>
 <g partID="310741">
  <g transform="translate(225.706,128.238)">
   <g transform="matrix(-1,0,0,-1,0,0)">
    <g transform="matrix(0, -1, 1, 0, 0, 7.92)">
     <g id="copper1">
      <g gorn="0.6.0.0.0">
       <circle fill="none" cx="3.96" gorn="0.6.0.0.0.0" cy="3.96" stroke="black" r="1.764" id="connector0pin" stroke-width="0.792"/>
       <circle fill="none" cx="3.96" gorn="0.6.0.0.0.1" cy="11.16" stroke="black" r="1.764" id="connector1pin" stroke-width="0.792"/>
       <circle fill="none" cx="3.96" gorn="0.6.0.0.0.2" cy="18.36" stroke="black" r="1.764" id="connector2pin" stroke-width="0.792"/>
       <g transform="matrix(1, 0, 0, 1, -0.00392136, 7.20444)">
        <g>
         <g>
          <circle fill="none" cx="3.96" gorn="0.6.0.0.0.3.0.0" cy="18.36" stroke="black" r="1.764" id="connector4pin" stroke-width="0.792"/>
         </g>
        </g>
       </g>
       <g transform="matrix(1, 0, 0, 1, -0.00323675, 93.6177)">
        <g>
         <g>
          <circle fill="none" cx="3.96" gorn="0.6.0.0.0.4.0.0" cy="3.96" stroke="black" r="1.764" id="connector5pin" stroke-width="0.792"/>
         </g>
        </g>
       </g>
       <g transform="matrix(1, 0, 0, 1, -0.00323675, 93.6177)">
        <g>
         <g>
          <circle fill="none" cx="3.96" gorn="0.6.0.0.0.5.0.0" cy="11.16" stroke="black" r="1.764" id="connector6pin" stroke-width="0.792"/>
         </g>
        </g>
       </g>
       <g transform="matrix(1, 0, 0, 1, -0.00323675, 93.6177)">
        <g>
         <g>
          <circle fill="none" cx="3.96" gorn="0.6.0.0.0.6.0.0" cy="18.36" stroke="black" r="1.764" id="connector7pin" stroke-width="0.792"/>
         </g>
        </g>
       </g>
       <g transform="matrix(1, 0, 0, 1, -0.00715812, 100.822)">
        <g>
         <g>
          <circle fill="none" cx="3.96" gorn="0.6.0.0.0.7.0.0" cy="18.36" stroke="black" r="1.764" id="connector8pin" stroke-width="0.792"/>
         </g>
        </g>
       </g>
      </g>
     </g>
    </g>
   </g>
  </g>
 </g>
 <g partID="585911">
  <g transform="translate(81.3746,120.044)">
   <g  id="copper1">
    <circle fill="none" cx="4.31559"  cy="4.31559" stroke="black" r="1.99559" id="connector0pin" stroke-width="1.44"/>
   </g>
  </g>
 </g>
 <g partID="586141">
  <g transform="translate(253.045,118.561)">
   <g transform="matrix(-1,0,0,-1,0,0)">
    <g  id="copper1">
     <rect width="3.96" x="0.72" y="1.116" fill="none"  height="3.96" stroke="black" stroke-width="1.44"/>
     <circle fill="none" cx="2.7"  cy="3.096" stroke="black" r="1.98" id="connector0pin" stroke-width="1.44"/>
     <circle fill="none" cx="31.5"  cy="3.096" stroke="black" r="1.98" id="connector1pin" stroke-width="1.44"/>
    </g>
   </g>
  </g>
 </g>
 <g partID="586161">
  <g transform="translate(255.479,109.692)">
   <g transform="matrix(-1,0,0,-1,0,0)">
    <g id="copper1">
     <g id="copper0">
      <rect width="4.32" x="12.24" y="6.72661" fill="none" height="4.32" stroke="black" id="square" stroke-width="1.44"/>
      <circle fill="none" cx="14.4" cy="8.8866" stroke="black" id="connector0pin" r="2.16" stroke-width="1.44"/>
      <circle fill="none" cx="14.4" cy="23.0599" stroke="black" id="connector1pin" r="2.16" stroke-width="1.44"/>
     </g>
    </g>
   </g>
  </g>
 </g>
</svg>
