<?xml version='1.0' encoding='UTF-8' standalone='no'?>
<!-- Created with Fritzing (http://www.fritzing.org/) -->
<svg xmlns="http://www.w3.org/2000/svg" width="3.09051in" x="0in" version="1.2" y="0in"  height="2.47879in" viewBox="0 0 222.517 178.473" baseProfile="tiny" xmlns:svg="http://www.w3.org/2000/svg">
 <g transform="matrix(-1, 0, 0, 1, 222.517, 0)">
  <g partID="643440">
   <g id="board">
    <rect width="221.941" x="0.288" y="0.288" fill="none" height="177.897" stroke="black" fill-opacity="0.5" id="boardoutline" stroke-width="0.5"/>
   </g>
  </g>
  <g partID="598200">
   <g transform="translate(116.671,67.649)">
    <g  id="copper0">
     <rect width="3.96" x="16.02" y="6.228" fill="black"  height="3.96" stroke="black" id="rect10" stroke-width="2.16"/>
     <circle fill="black" cx="3.6"  cy="8.208" stroke="black" id="connector0pin" r="1.98" stroke-width="2.16"/>
     <circle fill="black" cx="10.8"  cy="8.208" stroke="black" id="connector1pin" r="1.98" stroke-width="2.16"/>
     <circle fill="black" cx="18"  cy="8.208" stroke="black" id="connector2pin" r="1.98" stroke-width="2.16"/>
    </g>
   </g>
  </g>
  <g partID="591300">
   <g transform="translate(75.3368,66.7635)">
    <g  id="copper0">
     <rect width="3.96" x="16.02" y="6.228" fill="black"  height="3.96" stroke="black" id="rect10" stroke-width="2.16"/>
     <circle fill="black" cx="3.6"  cy="8.208" stroke="black" id="connector0pin" r="1.98" stroke-width="2.16"/>
     <circle fill="black" cx="10.8"  cy="8.208" stroke="black" id="connector1pin" r="1.98" stroke-width="2.16"/>
     <circle fill="black" cx="18"  cy="8.208" stroke="black" id="connector2pin" r="1.98" stroke-width="2.16"/>
    </g>
   </g>
  </g>
  <g partID="602740">
   <g transform="translate(182.64,64.183)">
    <g transform="matrix(0,-1,1,0,0,0)">
     <g  id="copper0">
      <g  id="copper1">
       <rect width="3.96" x="0.72" y="1.116" fill="black"  height="3.96" stroke="black" stroke-width="2.16"/>
       <circle fill="black" cx="2.7"  cy="3.096" stroke="black" r="1.98" id="connector0pin" stroke-width="2.16"/>
       <circle fill="black" cx="31.5"  cy="3.096" stroke="black" r="1.98" id="connector1pin" stroke-width="2.16"/>
      </g>
     </g>
    </g>
   </g>
  </g>
  <g partID="420960">
   <g transform="translate(4.9112,11.544)">
    <g  id="copper0">
     <circle fill="black" cx="151.384"  cy="144" stroke="black" id="connector1pad" r="1.61" stroke-width="1.5313"/>
     <circle fill="black" cx="158.583"  cy="144" stroke="black" id="connector2pad" r="1.61" stroke-width="1.5313"/>
     <circle fill="black" cx="165.786"  cy="144" stroke="black" id="connector3pad" r="1.61" stroke-width="1.5313"/>
     <circle fill="black" cx="172.985"  cy="144" stroke="black" id="connector4pad" r="1.61" stroke-width="1.5313"/>
     <circle fill="black" cx="180.184"  cy="144" stroke="black" id="connector5pad" r="1.61" stroke-width="1.5313"/>
     <circle fill="black" cx="118.263"  cy="7.2" stroke="black" id="connector51pad" r="1.61" stroke-width="1.5313"/>
     <circle fill="black" cx="111.065"  cy="7.2" stroke="black" id="connector52pad" r="1.61" stroke-width="1.5313"/>
     <circle fill="black" cx="103.864"  cy="7.2" stroke="black" id="connector53pad" r="1.61" stroke-width="1.5313"/>
     <circle fill="black" cx="96.664"  cy="7.2" stroke="black" id="connector54pad" r="1.61" stroke-width="1.5313"/>
     <circle fill="black" cx="89.464"  cy="7.2" stroke="black" id="connector55pad" r="1.61" stroke-width="1.5313"/>
     <circle fill="black" cx="82.264"  cy="7.2" stroke="black" id="connector56pad" r="1.61" stroke-width="1.5313"/>
     <circle fill="black" cx="75.064"  cy="7.2" stroke="black" id="connector57pad" r="1.61" stroke-width="1.5313"/>
     <circle fill="black" cx="67.864"  cy="7.2" stroke="black" id="connector58pad" r="1.61" stroke-width="1.5313"/>
     <circle fill="black" cx="60.664"  cy="7.2" stroke="black" id="connector59pad" r="1.61" stroke-width="1.5313"/>
     <circle fill="black" cx="53.463"  cy="7.2" stroke="black" id="connector60pad" r="1.61" stroke-width="1.5313"/>
     <circle fill="black" cx="180.184"  cy="7.2" stroke="black" id="connector61pad" r="1.61" stroke-width="1.5313"/>
     <circle fill="black" cx="172.985"  cy="7.2" stroke="black" id="connector62pad" r="1.61" stroke-width="1.5313"/>
     <circle fill="black" cx="165.786"  cy="7.2" stroke="black" id="connector63pad" r="1.61" stroke-width="1.5313"/>
     <circle fill="black" cx="158.583"  cy="7.2" stroke="black" id="connector64pad" r="1.61" stroke-width="1.5313"/>
     <circle fill="black" cx="151.384"  cy="7.2" stroke="black" id="connector65pad" r="1.61" stroke-width="1.5313"/>
     <circle fill="black" cx="144.184"  cy="7.2" stroke="black" id="connector66pad" r="1.61" stroke-width="1.5313"/>
     <circle fill="black" cx="136.985"  cy="7.2" stroke="black" id="connector67pad" r="1.61" stroke-width="1.5313"/>
     <circle fill="black" cx="129.784"  cy="7.2" stroke="black" id="connector68pad" r="1.61" stroke-width="1.5313"/>
     <circle fill="black" cx="86.584"  cy="144" stroke="black" id="connector84pad" r="1.61" stroke-width="1.5313"/>
     <circle fill="black" cx="79.384"  cy="144" stroke="black" id="connector91pin" r="1.61" stroke-width="1.5313"/>
     <circle fill="black" cx="93.784"  cy="144" stroke="black" id="connector85pad" r="1.61" stroke-width="1.5313"/>
     <circle fill="black" cx="100.985"  cy="144" stroke="black" id="connector86pad" r="1.61" stroke-width="1.5313"/>
     <circle fill="black" cx="108.184"  cy="144" stroke="black" id="connector87pad" r="1.61" stroke-width="1.5313"/>
     <circle fill="black" cx="115.384"  cy="144" stroke="black" id="connector88pad" r="1.61" stroke-width="1.5313"/>
     <circle fill="black" cx="122.583"  cy="144" stroke="black" id="connector89pad" r="1.61" stroke-width="1.5313"/>
     <circle fill="black" cx="129.784"  cy="144" stroke="black" id="connector90pad" r="1.61" stroke-width="1.5313"/>
     <circle fill="black" cx="144.184"  cy="144" stroke="black" id="connector0pad" r="1.61" stroke-width="1.5313"/>
    </g>
   </g>
  </g>
  <g partID="613040">
   <g transform="translate(60.6712,85.1285)">
    <g transform="matrix(-1,0,0,-1,0,0)">
     <g id="copper0">
      <rect width="4.32" x="12.24" y="6.72661" fill="black" height="4.32" stroke="black" id="square" stroke-width="2.16"/>
      <circle fill="black" cx="14.4" cy="8.8866" stroke="black" id="connector0pin" r="2.16" stroke-width="2.16"/>
      <circle fill="black" cx="14.4" cy="23.0599" stroke="black" id="connector1pin" r="2.16" stroke-width="2.16"/>
      <circle fill="black" cx="14.4" cy="37.2331" stroke="black" id="connector2pin" r="2.16" stroke-width="2.16"/>
     </g>
    </g>
   </g>
  </g>
  <g partID="618360">
   <g transform="translate(105.689,102.355)">
    <g transform="matrix(0,1,-1,0,0,0)">
     <g id="copper0">
      <rect width="4.32" x="12.24" y="6.72661" fill="black" height="4.32" stroke="black" id="square" stroke-width="2.16"/>
      <circle fill="black" cx="14.4" cy="8.8866" stroke="black" id="connector0pin" r="2.16" stroke-width="2.16"/>
      <circle fill="black" cx="14.4" cy="23.0599" stroke="black" id="connector1pin" r="2.16" stroke-width="2.16"/>
     </g>
    </g>
   </g>
  </g>
  <g partID="618040">
   <g transform="translate(143.842,107.05)">
    <g transform="matrix(0,1,-1,0,0,0)">
     <g id="copper0">
      <rect width="4.32" x="12.24" y="6.72661" fill="black" height="4.32" stroke="black" id="square" stroke-width="2.16"/>
      <circle fill="black" cx="14.4" cy="8.8866" stroke="black" id="connector0pin" r="2.16" stroke-width="2.16"/>
      <circle fill="black" cx="14.4" cy="23.0599" stroke="black" id="connector1pin" r="2.16" stroke-width="2.16"/>
     </g>
    </g>
   </g>
  </g>
  <g partID="429010">
   <g transform="translate(168.764,37.663)">
    <g transform="matrix(0,1,-1,0,0,0)">
     <g  id="copper0">
      <g  id="copper1">
       <rect width="3.96" x="0.72" y="1.116" fill="black"  height="3.96" stroke="black" stroke-width="2.16"/>
       <circle fill="black" cx="2.7"  cy="3.096" stroke="black" r="1.98" id="connector0pin" stroke-width="2.16"/>
       <circle fill="black" cx="31.5"  cy="3.096" stroke="black" r="1.98" id="connector1pin" stroke-width="2.16"/>
      </g>
     </g>
    </g>
   </g>
  </g>
  <g partID="428950">
   <g transform="translate(145.114,33.3963)">
    <g transform="matrix(0,1,-1,0,0,0)">
     <g  id="copper0">
      <g  id="copper1">
       <rect width="3.96" x="0.72" y="1.116" fill="black"  height="3.96" stroke="black" stroke-width="2.16"/>
       <circle fill="black" cx="2.7"  cy="3.096" stroke="black" r="1.98" id="connector0pin" stroke-width="2.16"/>
       <circle fill="black" cx="31.5"  cy="3.096" stroke="black" r="1.98" id="connector1pin" stroke-width="2.16"/>
      </g>
     </g>
    </g>
   </g>
  </g>
  <g partID="428890">
   <g transform="translate(179.669,39.1563)">
    <g transform="matrix(0,1,-1,0,0,0)">
     <g  id="copper0">
      <g  id="copper1">
       <rect width="3.96" x="0.72" y="1.116" fill="black"  height="3.96" stroke="black" stroke-width="2.16"/>
       <circle fill="black" cx="2.7"  cy="3.096" stroke="black" r="1.98" id="connector0pin" stroke-width="2.16"/>
       <circle fill="black" cx="31.5"  cy="3.096" stroke="black" r="1.98" id="connector1pin" stroke-width="2.16"/>
      </g>
     </g>
    </g>
   </g>
  </g>
  <g partID="598190">
   <g transform="translate(124.266,65.2496)">
    <g transform="matrix(0,-1,1,0,0,0)">
     <g  id="copper0">
      <g  id="copper1">
       <rect width="3.96" x="0.72" y="1.116" fill="black"  height="3.96" stroke="black" stroke-width="2.16"/>
       <circle fill="black" cx="2.7"  cy="3.096" stroke="black" r="1.98" id="connector0pin" stroke-width="2.16"/>
       <circle fill="black" cx="31.5"  cy="3.096" stroke="black" r="1.98" id="connector1pin" stroke-width="2.16"/>
      </g>
     </g>
    </g>
   </g>
  </g>
  <g partID="591290">
   <g transform="translate(112.534,65.8896)">
    <g transform="matrix(0,-1,1,0,0,0)">
     <g  id="copper0">
      <g  id="copper1">
       <rect width="3.96" x="0.72" y="1.116" fill="black"  height="3.96" stroke="black" stroke-width="2.16"/>
       <circle fill="black" cx="2.7"  cy="3.096" stroke="black" r="1.98" id="connector0pin" stroke-width="2.16"/>
       <circle fill="black" cx="31.5"  cy="3.096" stroke="black" r="1.98" id="connector1pin" stroke-width="2.16"/>
      </g>
     </g>
    </g>
   </g>
  </g>
  <g partID="427820">
   <g transform="translate(21.3757,23.0029)">
    <g transform="matrix(0, -1, 1, 0, 0, 7.92)">
     <g id="copper0">
      <g gorn="0.6.0.0">
       <g gorn="0.6.0.0.0" id="copper1">
        <circle fill="black" cx="3.96" gorn="0.6.0.0.0.0" cy="3.96" stroke="black" r="1.764" id="connector0pin" stroke-width="1.512"/>
        <circle fill="black" cx="3.96" gorn="0.6.0.0.0.1" cy="11.16" stroke="black" r="1.764" id="connector1pin" stroke-width="1.512"/>
        <circle fill="black" cx="3.96" gorn="0.6.0.0.0.2" cy="18.36" stroke="black" r="1.764" id="connector2pin" stroke-width="1.512"/>
        <circle fill="black" cx="3.96" gorn="0.6.0.0.0.3" cy="25.56" stroke="black" r="1.764" id="connector4pin" stroke-width="1.512"/>
       </g>
      </g>
     </g>
    </g>
   </g>
  </g>
  <g partID="461100">
   <g transform="translate(186.419,85.9921)">
    <g transform="matrix(0,1,-1,0,0,0)">
     <g  id="copper0">
      <circle fill="black" cx="2.56464"  cy="10.2182" stroke="black" r="1.62" id="connector0pad" stroke-width="2.16"/>
      <circle fill="black" cx="8.23824"  cy="10.2182" stroke="black" r="1.62" id="connector1pad" stroke-width="2.16"/>
      <circle fill="black" cx="13.8974"  cy="10.2182" stroke="black" r="1.62" id="connector2pad" stroke-width="2.16"/>
      <circle fill="black" cx="19.571"  cy="10.2182" stroke="black" r="1.62" id="connector3pad" stroke-width="2.16"/>
     </g>
    </g>
   </g>
  </g>
  <g partID="467740">
   <g transform="translate(54.3293,22.5299)">
    <g  id="copper0">
     <circle fill="black" cx="4.31559"  cy="4.31559" stroke="black" r="1.99559" id="connector0pin" stroke-width="2.16"/>
    </g>
   </g>
  </g>
  <g partID="612580">
   <g transform="translate(59.7144,131.652)">
    <g transform="matrix(-1,0,0,-1,0,0)">
     <g id="copper0">
      <rect width="4.32" x="12.24" y="6.72661" fill="black" height="4.32" stroke="black" id="square" stroke-width="2.16"/>
      <circle fill="black" cx="14.4" cy="8.8866" stroke="black" id="connector0pin" r="2.16" stroke-width="2.16"/>
      <circle fill="black" cx="14.4" cy="23.0599" stroke="black" id="connector1pin" r="2.16" stroke-width="2.16"/>
      <circle fill="black" cx="14.4" cy="37.2331" stroke="black" id="connector2pin" r="2.16" stroke-width="2.16"/>
     </g>
    </g>
   </g>
  </g>
  <g partID="622610">
   <g transform="translate(143.367,97.6341)">
    <g transform="matrix(-1,0,0,-1,0,0)">
     <g  id="copper0">
      <rect width="4.464" x="0.72" y="1.368" fill="black"  height="4.464" stroke="black" stroke-width="2.16"/>
      <circle fill="black" cx="3.024"  cy="3.6" stroke="black" id="connector0pin" r="2.232" stroke-width="2.16"/>
      <circle fill="black" cx="24.48"  cy="3.6" stroke="black" id="connector1pin" r="2.232" stroke-width="2.16"/>
     </g>
    </g>
   </g>
  </g>
  <g partID="622840">
   <g transform="translate(103.07,97.1425)">
    <g transform="matrix(-1,0,0,-1,0,0)">
     <g  id="copper0">
      <rect width="4.464" x="0.72" y="1.368" fill="black"  height="4.464" stroke="black" stroke-width="2.16"/>
      <circle fill="black" cx="3.024"  cy="3.6" stroke="black" id="connector0pin" r="2.232" stroke-width="2.16"/>
      <circle fill="black" cx="24.48"  cy="3.6" stroke="black" id="connector1pin" r="2.232" stroke-width="2.16"/>
     </g>
    </g>
   </g>
  </g>
  <g partID="662870">
   <g transform="translate(64.605,36.7621)">
    <g  id="copper0">
     <circle fill="black" cx="4.94696"  cy="39.4898" stroke="black" r="1.98" id="connector0pad" stroke-width="2.16"/>
     <circle fill="black" cx="4.752"  cy="4.752" stroke="black" r="1.98" id="connector1pad" stroke-width="2.16"/>
    </g>
   </g>
  </g>
  <g partID="666370">
   <g transform="translate(154.825,74.9241)">
    <g  id="copper0">
     <circle fill="black" cx="4.78109"  cy="31.0982" stroke="black" r="1.98" id="connector0pad" stroke-width="2.16"/>
     <circle fill="black" cx="4.752"  cy="4.752" stroke="black" r="1.98" id="connector1pad" stroke-width="2.16"/>
    </g>
   </g>
  </g>
 </g>
</svg>
