<?xml version='1.0' encoding='UTF-8' standalone='no'?>
<!-- Created with Fritzing (http://www.fritzing.org/) -->
<svg xmlns="http://www.w3.org/2000/svg" width="2.84893in" x="0in" version="1.2" y="0in"  height="2.24349in" viewBox="0 0 205.123 161.531" baseProfile="tiny" xmlns:svg="http://www.w3.org/2000/svg">
 <g partID="416990">
  <g id="board">
   <rect width="204.547" x="0.288" y="0.288" fill="none" height="160.955" stroke="black" fill-opacity="0.5" id="boardoutline" stroke-width="0.5"/>
  </g>
 </g>
 <g partID="417030">
  <g transform="translate(34.1615,79.7094)">
   <g transform="matrix(1, 0, 0, 1, 14.7818, 14.5894)">
    <g id="copper0">
     <g gorn="0.4.0.0.0">
      <g transform="matrix(1, 0, 0, 1, -10.0514, 5.7123)">
       <g>
        <g>
         <g>
          <circle fill="none" cx="3.888" gorn="0.4.0.0.0.0.0.0.0" cy="18.288" stroke="black" r="1.8" id="connector2pad" stroke-width="0.72"/>
         </g>
        </g>
       </g>
      </g>
      <g transform="matrix(1, 0, 0, 1, 2.93492, 5.65685)">
       <g>
        <g>
         <g>
          <circle fill="none" cx="25.488" gorn="0.4.0.0.0.1.0.0.0" cy="18.288" stroke="black" r="1.8" id="connector4pad" stroke-width="0.72"/>
         </g>
        </g>
       </g>
      </g>
      <g transform="matrix(1, 0, 0, 1, 1.43801, -12.3544)">
       <g>
        <g>
         <g>
          <circle fill="none" cx="32.688" gorn="0.4.0.0.0.2.0.0.0" cy="18.288" stroke="black" r="1.8" id="connector0pad" stroke-width="0.72"/>
         </g>
        </g>
       </g>
      </g>
      <g transform="matrix(1, 0, 0, 1, -10.0514, -13.9)">
       <g>
        <g>
         <g>
          <circle fill="none" cx="3.888" gorn="0.4.0.0.0.3.0.0.0" cy="3.888" stroke="black" r="1.8" id="connector3pad" stroke-width="0.72"/>
         </g>
        </g>
       </g>
      </g>
      <g transform="matrix(1, 0, 0, 1, 2.93492, -13.9)">
       <g>
        <g>
         <g>
          <circle fill="none" cx="25.488" gorn="0.4.0.0.0.4.0.0.0" cy="3.888" stroke="black" r="1.8" id="connector1pad" stroke-width="0.72"/>
         </g>
        </g>
       </g>
      </g>
     </g>
    </g>
   </g>
  </g>
 </g>
 <g partID="417840">
  <g transform="translate(92.8149,118.665)">
   <g transform="matrix(0,-1,1,0,0,0)">
    <g  id="copper0">
     <circle fill="none" cx="2.808"  cy="3.96" connectorname="A" stroke="black" id="connector0pad" r="2.11266" stroke-width="1.39068"/>
     <circle fill="none" cx="31.608"  cy="3.96" connectorname="C" stroke="black" id="connector1pad" r="2.11266" stroke-width="1.39068"/>
    </g>
   </g>
  </g>
 </g>
 <g partID="422210">
  <g transform="translate(176.097,119.278)">
   <g transform="matrix(0,1,-1,0,0,0)">
    <g id="copper0">
     <rect width="4.32" x="5.616" y="4.60063" fill="none" height="4.32" stroke="black" id="square" stroke-width="1.44"/>
     <circle fill="none" cx="7.776" cy="6.76063" stroke="black" id="connector0pin" r="2.16" stroke-width="1.44"/>
     <circle fill="none" cx="7.776" cy="16.6819" stroke="black" id="connector1pin" r="2.16" stroke-width="1.44"/>
     <circle fill="none" cx="7.776" cy="26.6031" stroke="black" id="connector2pin" r="2.16" stroke-width="1.44"/>
    </g>
   </g>
  </g>
 </g>
 <g partID="423100">
  <g transform="translate(175.871,60.8483)">
   <g id="copper0">
    <rect width="4.32" x="5.616" y="4.60063" fill="none" height="4.32" stroke="black" id="square" stroke-width="1.44"/>
    <circle fill="none" cx="7.776" cy="6.76063" stroke="black" id="connector0pin" r="2.16" stroke-width="1.44"/>
    <circle fill="none" cx="7.776" cy="16.6819" stroke="black" id="connector1pin" r="2.16" stroke-width="1.44"/>
   </g>
  </g>
 </g>
 <g partID="418760">
  <g transform="translate(64.8443,130.973)">
   <g transform="matrix(0,1,-1,0,0,0)">
    <g id="copper0">
     <rect width="4.32" x="5.616" y="4.60063" fill="none" height="4.32" stroke="black" id="square" stroke-width="1.44"/>
     <circle fill="none" cx="7.776" cy="6.76063" stroke="black" id="connector0pin" r="2.16" stroke-width="1.44"/>
     <circle fill="none" cx="7.776" cy="16.6819" stroke="black" id="connector1pin" r="2.16" stroke-width="1.44"/>
    </g>
   </g>
  </g>
 </g>
 <g partID="420000">
  <g transform="translate(114.891,72.3896)">
   <g transform="matrix(-1,0,0,-1,0,0)">
    <g  id="copper0">
     <rect width="3.96" x="16.02" y="6.228" fill="none"  height="3.96" stroke="black" id="rect10" stroke-width="1.44"/>
     <circle fill="none" cx="3.6"  cy="8.208" stroke="black" id="connector0pin" r="1.98" stroke-width="1.44"/>
     <circle fill="none" cx="10.8"  cy="8.208" stroke="black" id="connector1pin" r="1.98" stroke-width="1.44"/>
     <circle fill="none" cx="18"  cy="8.208" stroke="black" id="connector2pin" r="1.98" stroke-width="1.44"/>
    </g>
   </g>
  </g>
 </g>
 <g partID="429010">
  <g transform="translate(150.744,22.0514)">
   <g transform="matrix(0,1,-1,0,0,0)">
    <g  id="copper0">
     <g  id="copper1">
      <rect width="3.96" x="0.72" y="1.116" fill="none"  height="3.96" stroke="black" stroke-width="1.44"/>
      <circle fill="none" cx="2.7"  cy="3.096" stroke="black" r="1.98" id="connector0pin" stroke-width="1.44"/>
      <circle fill="none" cx="31.5"  cy="3.096" stroke="black" r="1.98" id="connector1pin" stroke-width="1.44"/>
     </g>
    </g>
   </g>
  </g>
 </g>
 <g partID="428950">
  <g transform="translate(138.15,22.0514)">
   <g transform="matrix(0,1,-1,0,0,0)">
    <g  id="copper0">
     <g  id="copper1">
      <rect width="3.96" x="0.72" y="1.116" fill="none"  height="3.96" stroke="black" stroke-width="1.44"/>
      <circle fill="none" cx="2.7"  cy="3.096" stroke="black" r="1.98" id="connector0pin" stroke-width="1.44"/>
      <circle fill="none" cx="31.5"  cy="3.096" stroke="black" r="1.98" id="connector1pin" stroke-width="1.44"/>
     </g>
    </g>
   </g>
  </g>
 </g>
 <g partID="420860">
  <g transform="translate(120.492,56.2514)">
   <g transform="matrix(0,-1,1,0,0,0)">
    <g  id="copper0">
     <g  id="copper1">
      <rect width="3.96" x="0.72" y="1.116" fill="none"  height="3.96" stroke="black" stroke-width="1.44"/>
      <circle fill="none" cx="2.7"  cy="3.096" stroke="black" r="1.98" id="connector0pin" stroke-width="1.44"/>
      <circle fill="none" cx="31.5"  cy="3.096" stroke="black" r="1.98" id="connector1pin" stroke-width="1.44"/>
     </g>
    </g>
   </g>
  </g>
 </g>
 <g partID="428890">
  <g transform="translate(162.961,22.0514)">
   <g transform="matrix(0,1,-1,0,0,0)">
    <g  id="copper0">
     <g  id="copper1">
      <rect width="3.96" x="0.72" y="1.116" fill="none"  height="3.96" stroke="black" stroke-width="1.44"/>
      <circle fill="none" cx="2.7"  cy="3.096" stroke="black" r="1.98" id="connector0pin" stroke-width="1.44"/>
      <circle fill="none" cx="31.5"  cy="3.096" stroke="black" r="1.98" id="connector1pin" stroke-width="1.44"/>
     </g>
    </g>
   </g>
  </g>
 </g>
 <g partID="423620">
  <g transform="translate(175.117,22.0514)">
   <g transform="matrix(0,1,-1,0,0,0)">
    <g  id="copper0">
     <g  id="copper1">
      <rect width="3.96" x="0.72" y="1.116" fill="none"  height="3.96" stroke="black" stroke-width="1.44"/>
      <circle fill="none" cx="2.7"  cy="3.096" stroke="black" r="1.98" id="connector0pin" stroke-width="1.44"/>
      <circle fill="none" cx="31.5"  cy="3.096" stroke="black" r="1.98" id="connector1pin" stroke-width="1.44"/>
     </g>
    </g>
   </g>
  </g>
 </g>
 <g partID="420960">
  <g transform="translate(4.91167,4.50353)">
   <g  id="copper0">
    <circle fill="none" cx="151.384"  cy="144" stroke="black" id="connector1pad" r="1.61" stroke-width="0.8113"/>
    <circle fill="none" cx="158.583"  cy="144" stroke="black" id="connector2pad" r="1.61" stroke-width="0.8113"/>
    <circle fill="none" cx="165.786"  cy="144" stroke="black" id="connector3pad" r="1.61" stroke-width="0.8113"/>
    <circle fill="none" cx="172.985"  cy="144" stroke="black" id="connector4pad" r="1.61" stroke-width="0.8113"/>
    <circle fill="none" cx="180.184"  cy="144" stroke="black" id="connector5pad" r="1.61" stroke-width="0.8113"/>
    <circle fill="none" cx="118.263"  cy="7.2" stroke="black" id="connector51pad" r="1.61" stroke-width="0.8113"/>
    <circle fill="none" cx="111.065"  cy="7.2" stroke="black" id="connector52pad" r="1.61" stroke-width="0.8113"/>
    <circle fill="none" cx="103.864"  cy="7.2" stroke="black" id="connector53pad" r="1.61" stroke-width="0.8113"/>
    <circle fill="none" cx="96.664"  cy="7.2" stroke="black" id="connector54pad" r="1.61" stroke-width="0.8113"/>
    <circle fill="none" cx="89.464"  cy="7.2" stroke="black" id="connector55pad" r="1.61" stroke-width="0.8113"/>
    <circle fill="none" cx="82.264"  cy="7.2" stroke="black" id="connector56pad" r="1.61" stroke-width="0.8113"/>
    <circle fill="none" cx="75.064"  cy="7.2" stroke="black" id="connector57pad" r="1.61" stroke-width="0.8113"/>
    <circle fill="none" cx="67.864"  cy="7.2" stroke="black" id="connector58pad" r="1.61" stroke-width="0.8113"/>
    <circle fill="none" cx="60.664"  cy="7.2" stroke="black" id="connector59pad" r="1.61" stroke-width="0.8113"/>
    <circle fill="none" cx="53.463"  cy="7.2" stroke="black" id="connector60pad" r="1.61" stroke-width="0.8113"/>
    <circle fill="none" cx="180.184"  cy="7.2" stroke="black" id="connector61pad" r="1.61" stroke-width="0.8113"/>
    <circle fill="none" cx="172.985"  cy="7.2" stroke="black" id="connector62pad" r="1.61" stroke-width="0.8113"/>
    <circle fill="none" cx="165.786"  cy="7.2" stroke="black" id="connector63pad" r="1.61" stroke-width="0.8113"/>
    <circle fill="none" cx="158.583"  cy="7.2" stroke="black" id="connector64pad" r="1.61" stroke-width="0.8113"/>
    <circle fill="none" cx="151.384"  cy="7.2" stroke="black" id="connector65pad" r="1.61" stroke-width="0.8113"/>
    <circle fill="none" cx="144.184"  cy="7.2" stroke="black" id="connector66pad" r="1.61" stroke-width="0.8113"/>
    <circle fill="none" cx="136.985"  cy="7.2" stroke="black" id="connector67pad" r="1.61" stroke-width="0.8113"/>
    <circle fill="none" cx="129.784"  cy="7.2" stroke="black" id="connector68pad" r="1.61" stroke-width="0.8113"/>
    <circle fill="none" cx="86.584"  cy="144" stroke="black" id="connector84pad" r="1.61" stroke-width="0.8113"/>
    <circle fill="none" cx="79.384"  cy="144" stroke="black" id="connector91pin" r="1.61" stroke-width="0.8113"/>
    <circle fill="none" cx="93.784"  cy="144" stroke="black" id="connector85pad" r="1.61" stroke-width="0.8113"/>
    <circle fill="none" cx="100.985"  cy="144" stroke="black" id="connector86pad" r="1.61" stroke-width="0.8113"/>
    <circle fill="none" cx="108.184"  cy="144" stroke="black" id="connector87pad" r="1.61" stroke-width="0.8113"/>
    <circle fill="none" cx="115.384"  cy="144" stroke="black" id="connector88pad" r="1.61" stroke-width="0.8113"/>
    <circle fill="none" cx="122.583"  cy="144" stroke="black" id="connector89pad" r="1.61" stroke-width="0.8113"/>
    <circle fill="none" cx="129.784"  cy="144" stroke="black" id="connector90pad" r="1.61" stroke-width="0.8113"/>
    <circle fill="none" cx="144.184"  cy="144" stroke="black" id="connector0pad" r="1.61" stroke-width="0.8113"/>
   </g>
  </g>
 </g>
 <g partID="427820">
  <g transform="translate(51.8826,35.5892)">
   <g transform="matrix(0, -1, 1, 0, 0, 7.92)">
    <g id="copper0">
     <g gorn="0.6.0.0">
      <g gorn="0.6.0.0.0" id="copper1">
       <circle fill="none" cx="3.96" gorn="0.6.0.0.0.0" cy="3.96" stroke="black" r="1.764" id="connector0pin" stroke-width="0.792"/>
       <circle fill="none" cx="3.96" gorn="0.6.0.0.0.1" cy="11.16" stroke="black" r="1.764" id="connector1pin" stroke-width="0.792"/>
       <circle fill="none" cx="3.96" gorn="0.6.0.0.0.2" cy="18.36" stroke="black" r="1.764" id="connector2pin" stroke-width="0.792"/>
       <circle fill="none" cx="3.96" gorn="0.6.0.0.0.3" cy="25.56" stroke="black" r="1.764" id="connector4pin" stroke-width="0.792"/>
      </g>
     </g>
    </g>
   </g>
  </g>
 </g>
 <g partID="461100">
  <g transform="translate(193.919,90.9883)">
   <g transform="matrix(0,1,-1,0,0,0)">
    <g  id="copper0">
     <circle fill="none" cx="2.56464"  cy="10.2182" stroke="black" r="1.62" id="connector0pad" stroke-width="1.44"/>
     <circle fill="none" cx="8.23824"  cy="10.2182" stroke="black" r="1.62" id="connector1pad" stroke-width="1.44"/>
     <circle fill="none" cx="13.8974"  cy="10.2182" stroke="black" r="1.62" id="connector2pad" stroke-width="1.44"/>
     <circle fill="none" cx="19.571"  cy="10.2182" stroke="black" r="1.62" id="connector3pad" stroke-width="1.44"/>
    </g>
   </g>
  </g>
 </g>
 <g partID="467740">
  <g transform="translate(87.9814,35.2304)">
   <g  id="copper0">
    <circle fill="none" cx="4.31559"  cy="4.31559" stroke="black" r="1.99559" id="connector0pin" stroke-width="1.44"/>
   </g>
  </g>
 </g>
 <g partID="451970">
  <line stroke="black" stroke-linecap="round" y1="127.935" x1="42.8267" y2="121.339" stroke-width="3.456" x2="42.7946"/>
 </g>
 <g partID="451980">
  <line stroke="black" stroke-linecap="round" y1="136.023" x1="46.8173" y2="127.935" stroke-width="3.456" x2="42.8267"/>
 </g>
 <g partID="452050">
  <line stroke="black" stroke-linecap="round" y1="100.432" x1="64.6213" y2="100.265" stroke-width="3.456" x2="80.0294"/>
 </g>
 <g partID="452060">
  <line stroke="black" stroke-linecap="round" y1="135.71" x1="58.1335" y2="109.254" stroke-width="3.456" x2="58.5673"/>
 </g>
 <g partID="452110">
  <line stroke="black" stroke-linecap="round" y1="109.254" x1="58.5673" y2="100.432" stroke-width="3.456" x2="64.6213"/>
 </g>
 <g partID="452180">
  <line stroke="black" stroke-linecap="round" y1="118.164" x1="80.4051" y2="117.903" stroke-width="3.456" x2="90.3943"/>
 </g>
 <g partID="452860">
  <line stroke="black" stroke-linecap="round" y1="117.903" x1="90.3943" y2="116.778" stroke-width="3.456" x2="93.9017"/>
 </g>
 <g partID="453150">
  <line stroke="black" stroke-linecap="round" y1="145.7" x1="113.044" y2="136.757" stroke-width="3.456" x2="112.881"/>
 </g>
 <g partID="453680">
  <line stroke="black" stroke-linecap="round" y1="136.757" x1="112.881" y2="125.341" stroke-width="3.456" x2="96.7943"/>
 </g>
 <g partID="453410">
  <line stroke="black" stroke-linecap="round" y1="125.341" x1="96.7943" y2="118.874" stroke-width="3.456" x2="96.7811"/>
 </g>
 <g partID="454030">
  <line stroke="black" stroke-linecap="round" y1="84.6919" x1="89.8754" y2="86.0785" stroke-width="3.456" x2="93.9206"/>
 </g>
 <g partID="453950">
  <line stroke="black" stroke-linecap="round" y1="84.3852" x1="80.4046" y2="84.6919" stroke-width="3.456" x2="89.8754"/>
 </g>
 <g partID="456000">
  <line stroke="black" stroke-linecap="round" y1="66.2416" x1="96.8802" y2="84.8396" stroke-width="3.456" x2="96.7861"/>
 </g>
 <g partID="456320">
  <line stroke="black" stroke-linecap="round" y1="74.9523" x1="119.895" y2="74.716" stroke-width="3.456" x2="108.078"/>
 </g>
 <g partID="467920">
  <line stroke="black" stroke-linecap="round" y1="70.9346" x1="123.44" y2="74.9523" stroke-width="3.456" x2="119.895"/>
 </g>
 <g partID="456270">
  <line stroke="black" stroke-linecap="round" y1="74.716" x1="108.078" y2="70.9346" stroke-width="3.456" x2="104.297"/>
 </g>
 <g partID="456220">
  <line stroke="black" stroke-linecap="round" y1="70.9346" x1="104.297" y2="67.0403" stroke-width="3.456" x2="104.178"/>
 </g>
 <g partID="456180">
  <line stroke="black" stroke-linecap="round" y1="56.4113" x1="123.564" y2="70.9346" stroke-width="3.456" x2="123.44"/>
 </g>
 <g partID="459770">
  <line stroke="black" stroke-linecap="round" y1="14.4936" x1="170.981" y2="21.906" stroke-width="3.456" x2="171.733"/>
 </g>
 <g partID="460170">
  <line stroke="black" stroke-linecap="round" y1="17.9244" x1="163.735" y2="14.5058" stroke-width="3.456" x2="163.603"/>
 </g>
 <g partID="460050">
  <line stroke="black" stroke-linecap="round" y1="22.2634" x1="161.275" y2="17.9244" stroke-width="3.456" x2="163.735"/>
 </g>
 <g partID="467610">
  <line stroke="black" stroke-linecap="round" y1="4.25951" x1="53.2051" y2="8.06492" stroke-width="3.456" x2="49.2267"/>
 </g>
 <g partID="467650">
  <line stroke="black" stroke-linecap="round" y1="3.91356" x1="151.281" y2="4.25951" stroke-width="3.456" x2="53.2051"/>
 </g>
 <g partID="467570">
  <line stroke="black" stroke-linecap="round" y1="28.8217" x1="58.2213" y2="31.9352" stroke-width="3.456" x2="62.7186"/>
 </g>
 <g partID="467530">
  <line stroke="black" stroke-linecap="round" y1="28.4757" x1="49.2267" y2="28.8217" stroke-width="3.456" x2="58.2213"/>
 </g>
 <g partID="463080">
  <line stroke="black" stroke-linecap="round" y1="8.06492" x1="49.2267" y2="28.4757" stroke-width="3.456" x2="49.2267"/>
 </g>
 <g partID="461720">
  <line stroke="black" stroke-linecap="round" y1="6.16221" x1="155.951" y2="3.91356" stroke-width="3.456" x2="151.281"/>
 </g>
 <g partID="467480">
  <line stroke="black" stroke-linecap="round" y1="31.9352" x1="62.7186" y2="36.5839" stroke-width="3.456" x2="62.9164"/>
 </g>
 <g partID="461730">
  <line stroke="black" stroke-linecap="round" y1="8.90459" x1="156.122" y2="6.16221" stroke-width="3.456" x2="155.951"/>
 </g>
 <g partID="461820">
  <line stroke="black" stroke-linecap="round" y1="17.4055" x1="149.032" y2="22.727" stroke-width="3.456" x2="148.03"/>
 </g>
 <g partID="461780">
  <line stroke="black" stroke-linecap="round" y1="14.5077" x1="149.065" y2="17.4055" stroke-width="3.456" x2="149.032"/>
 </g>
 <g partID="461910">
  <line stroke="black" stroke-linecap="round" y1="18.4433" x1="141.421" y2="22.7386" stroke-width="3.456" x2="137.086"/>
 </g>
 <g partID="461870">
  <line stroke="black" stroke-linecap="round" y1="14.5009" x1="141.699" y2="18.4433" stroke-width="3.456" x2="141.421"/>
 </g>
 <g partID="462050">
  <line stroke="black" stroke-linecap="round" y1="19.3082" x1="123.605" y2="21.8914" stroke-width="3.456" x2="123.597"/>
 </g>
 <g partID="461960">
  <line stroke="black" stroke-linecap="round" y1="13.2894" x1="132.383" y2="19.3082" stroke-width="3.456" x2="123.605"/>
 </g>
 <g partID="463310">
  <line stroke="black" stroke-linecap="round" y1="14.505" x1="79.8486" y2="22.2487" stroke-width="3.456" x2="79.497"/>
 </g>
 <g partID="463830">
  <line stroke="black" stroke-linecap="round" y1="22.2487" x1="79.497" y2="36.9321" stroke-width="3.456" x2="71.6426"/>
 </g>
 <g partID="464280">
  <line stroke="black" stroke-linecap="round" y1="54.0757" x1="109.075" y2="56.3244" stroke-width="3.456" x2="111.324"/>
 </g>
 <g partID="464170">
  <line stroke="black" stroke-linecap="round" y1="53.7298" x1="73.9619" y2="54.0757" stroke-width="3.456" x2="109.075"/>
 </g>
 <g partID="464460">
  <line stroke="black" stroke-linecap="round" y1="47.6757" x1="70.5024" y2="53.7298" stroke-width="3.456" x2="73.9619"/>
 </g>
 <g partID="463960">
  <line stroke="black" stroke-linecap="round" y1="42.5157" x1="70.3375" y2="47.6757" stroke-width="3.456" x2="70.5024"/>
 </g>
 <g partID="464060">
  <line stroke="black" stroke-linecap="round" y1="56.3244" x1="111.324" y2="61.3216" stroke-width="3.456" x2="111.303"/>
 </g>
 <g partID="465410">
  <line stroke="black" stroke-linecap="round" y1="87.8055" x1="55.4538" y2="42.5171" stroke-width="3.456" x2="55.8187"/>
 </g>
 <g partID="466280">
  <line stroke="black" stroke-linecap="round" y1="91.4379" x1="84.3402" y2="91.0919" stroke-width="3.456" x2="60.47"/>
 </g>
 <g partID="466680">
  <line stroke="black" stroke-linecap="round" y1="91.0919" x1="60.47" y2="87.8055" stroke-width="3.456" x2="55.4538"/>
 </g>
 <g partID="465160">
  <line stroke="black" stroke-linecap="round" y1="93.6865" x1="90.5673" y2="91.4379" stroke-width="3.456" x2="84.3402"/>
 </g>
 <g partID="464590">
  <line stroke="black" stroke-linecap="round" y1="116.51" x1="79.8636" y2="109.081" stroke-width="3.456" x2="90.5673"/>
 </g>
 <g partID="464830">
  <line stroke="black" stroke-linecap="round" y1="109.081" x1="90.5673" y2="93.6865" stroke-width="3.456" x2="90.5673"/>
 </g>
 <g partID="467810">
  <line stroke="black" stroke-linecap="round" y1="39.5486" x1="80.4106" y2="39.5466" stroke-width="3.456" x2="89.4214"/>
 </g>
 <g partID="471470">
  <line stroke="black" stroke-linecap="round" y1="135.691" x1="138.802" y2="139.236" stroke-width="3.456" x2="137.384"/>
 </g>
 <g partID="472180">
  <line stroke="black" stroke-linecap="round" y1="117.02" x1="142.583" y2="121.511" stroke-width="3.456" x2="138.802"/>
 </g>
 <g partID="471950">
  <line stroke="black" stroke-linecap="round" y1="121.511" x1="138.802" y2="135.691" stroke-width="3.456" x2="138.802"/>
 </g>
 <g partID="468920">
  <line stroke="black" stroke-linecap="round" y1="124.451" x1="157.845" y2="116.784" stroke-width="3.456" x2="153.218"/>
 </g>
 <g partID="469140">
  <line stroke="black" stroke-linecap="round" y1="138.763" x1="117.059" y2="145.906" stroke-width="3.456" x2="114.153"/>
 </g>
 <g partID="469720">
  <line stroke="black" stroke-linecap="round" y1="116.784" x1="153.218" y2="117.02" stroke-width="3.456" x2="142.583"/>
 </g>
 <g partID="469490">
  <line stroke="black" stroke-linecap="round" y1="139.236" x1="137.384" y2="138.763" stroke-width="3.456" x2="117.059"/>
 </g>
 <g partID="470310">
  <line stroke="black" stroke-linecap="round" y1="155.543" x1="127.221" y2="151.306" stroke-width="3.456" x2="127.386"/>
 </g>
 <g partID="472740">
  <line stroke="black" stroke-linecap="round" y1="139" x1="192.45" y2="155.779" stroke-width="3.456" x2="192.686"/>
 </g>
 <g partID="470740">
  <line stroke="black" stroke-linecap="round" y1="155.779" x1="192.686" y2="155.543" stroke-width="3.456" x2="127.221"/>
 </g>
 <g partID="470490">
  <line stroke="black" stroke-linecap="round" y1="138.763" x1="171.889" y2="139" stroke-width="3.456" x2="192.45"/>
 </g>
 <g partID="470320">
  <line stroke="black" stroke-linecap="round" y1="130.025" x1="169.984" y2="138.763" stroke-width="3.456" x2="171.889"/>
 </g>
 <g partID="471010">
  <line stroke="black" stroke-linecap="round" y1="145.7" x1="149.148" y2="130.094" stroke-width="3.456" x2="149.438"/>
 </g>
 <g partID="475270">
  <line stroke="black" stroke-linecap="round" y1="110.639" x1="136.675" y2="110.563" stroke-width="2.304" x2="181.601"/>
 </g>
 <g partID="473320">
  <line stroke="black" stroke-linecap="round" y1="103.549" x1="129.348" y2="110.639" stroke-width="2.304" x2="136.675"/>
 </g>
 <g partID="472840">
  <line stroke="black" stroke-linecap="round" y1="41.8652" x1="128.876" y2="103.549" stroke-width="2.304" x2="129.348"/>
 </g>
 <g partID="472900">
  <line stroke="black" stroke-linecap="round" y1="42.1015" x1="140.456" y2="41.8652" stroke-width="2.304" x2="128.876"/>
 </g>
 <g partID="472850">
  <line stroke="black" stroke-linecap="round" y1="51.4683" x1="146.34" y2="42.1015" stroke-width="2.304" x2="140.456"/>
 </g>
 <g partID="475120">
  <line stroke="black" stroke-linecap="round" y1="104.258" x1="177.325" y2="104.68" stroke-width="2.304" x2="181.611"/>
 </g>
 <g partID="475480">
  <line stroke="black" stroke-linecap="round" y1="104.022" x1="139.747" y2="104.258" stroke-width="2.304" x2="177.325"/>
 </g>
 <g partID="473430">
  <line stroke="black" stroke-linecap="round" y1="100.949" x1="135.966" y2="104.022" stroke-width="2.304" x2="139.747"/>
 </g>
 <g partID="473020">
  <line stroke="black" stroke-linecap="round" y1="56.0109" x1="135.101" y2="100.949" stroke-width="2.304" x2="135.966"/>
 </g>
 <g partID="474200">
  <line stroke="black" stroke-linecap="round" y1="28.394" x1="194.814" y2="25.3216" stroke-width="3.456" x2="190.323"/>
 </g>
 <g partID="474310">
  <line stroke="black" stroke-linecap="round" y1="25.3216" x1="190.323" y2="24.8405" stroke-width="3.456" x2="174.88"/>
 </g>
 <g partID="473980">
  <line stroke="black" stroke-linecap="round" y1="75.8977" x1="195.523" y2="28.394" stroke-width="3.456" x2="194.814"/>
 </g>
 <g partID="474060">
  <line stroke="black" stroke-linecap="round" y1="78.0247" x1="192.45" y2="75.8977" stroke-width="3.456" x2="195.523"/>
 </g>
 <g partID="473990">
  <line stroke="black" stroke-linecap="round" y1="77.7007" x1="186.682" y2="78.0247" stroke-width="3.456" x2="192.45"/>
 </g>
 <g partID="474570">
  <line stroke="black" stroke-linecap="round" y1="61.2448" x1="172.598" y2="56.4034" stroke-width="3.456" x2="172.235"/>
 </g>
 <g partID="474370">
  <line stroke="black" stroke-linecap="round" y1="66.0917" x1="181.013" y2="61.2448" stroke-width="3.456" x2="172.598"/>
 </g>
 <g partID="474920">
  <line stroke="black" stroke-linecap="round" y1="84.7718" x1="159.83" y2="92.8279" stroke-width="2.304" x2="181.73"/>
 </g>
 <g partID="474930">
  <line stroke="black" stroke-linecap="round" y1="56.0114" x1="159.862" y2="84.7718" stroke-width="2.304" x2="159.83"/>
 </g>
 <g partID="475540">
  <line stroke="black" stroke-linecap="round" y1="119.62" x1="191.032" y2="99.295" stroke-width="2.304" x2="191.268"/>
 </g>
 <g partID="475950">
  <line stroke="black" stroke-linecap="round" y1="99.295" x1="191.268" y2="99.2455" stroke-width="2.304" x2="185.8"/>
 </g>
 <g partID="475550">
  <line stroke="black" stroke-linecap="round" y1="124.774" x1="160.746" y2="119.856" stroke-width="2.304" x2="163.617"/>
 </g>
 <g partID="475740">
  <line stroke="black" stroke-linecap="round" y1="119.856" x1="163.617" y2="119.62" stroke-width="2.304" x2="191.032"/>
 </g>
 <g partID="476200">
  <line stroke="black" stroke-linecap="round" y1="94.3319" x1="192.923" y2="98.4296" stroke-width="2.304" x2="185.202"/>
 </g>
 <g partID="476550">
  <line stroke="black" stroke-linecap="round" y1="82.7429" x1="174.323" y2="87.9508" stroke-width="2.304" x2="192.923"/>
 </g>
 <g partID="476380">
  <line stroke="black" stroke-linecap="round" y1="69.5166" x1="174.252" y2="82.7429" stroke-width="2.304" x2="174.323"/>
 </g>
 <g partID="476210">
  <line stroke="black" stroke-linecap="round" y1="68.1343" x1="181.06" y2="69.5166" stroke-width="2.304" x2="174.252"/>
 </g>
 <g partID="476720">
  <line stroke="black" stroke-linecap="round" y1="87.9508" x1="192.923" y2="94.3319" stroke-width="2.304" x2="192.923"/>
 </g>
</svg>
