<?xml version='1.0' encoding='UTF-8' standalone='no'?>
<!-- Created with Fritzing (http://www.fritzing.org/) -->
<svg xmlns="http://www.w3.org/2000/svg" width="3.09051in" x="0in" version="1.2" y="0in"  height="2.47879in" viewBox="0 0 222.517 178.473" baseProfile="tiny" xmlns:svg="http://www.w3.org/2000/svg">
 <g transform="matrix(-1, 0, 0, 1, 222.517, 0)">
  <g partID="643440">
   <g id="board">
    <rect width="221.941" x="0.288" y="0.288" fill="none" height="177.897" stroke="black" fill-opacity="0.5" id="boardoutline" stroke-width="0.5"/>
   </g>
  </g>
  <g partID="598200">
   <g transform="translate(116.671,67.649)">
    <g  id="copper0">
     <rect width="3.96" x="16.02" y="6.228" fill="none"  height="3.96" stroke="black" id="rect10" stroke-width="1.44"/>
     <circle fill="none" cx="3.6"  cy="8.208" stroke="black" id="connector0pin" r="1.98" stroke-width="1.44"/>
     <circle fill="none" cx="10.8"  cy="8.208" stroke="black" id="connector1pin" r="1.98" stroke-width="1.44"/>
     <circle fill="none" cx="18"  cy="8.208" stroke="black" id="connector2pin" r="1.98" stroke-width="1.44"/>
    </g>
   </g>
  </g>
  <g partID="591300">
   <g transform="translate(75.3368,66.7635)">
    <g  id="copper0">
     <rect width="3.96" x="16.02" y="6.228" fill="none"  height="3.96" stroke="black" id="rect10" stroke-width="1.44"/>
     <circle fill="none" cx="3.6"  cy="8.208" stroke="black" id="connector0pin" r="1.98" stroke-width="1.44"/>
     <circle fill="none" cx="10.8"  cy="8.208" stroke="black" id="connector1pin" r="1.98" stroke-width="1.44"/>
     <circle fill="none" cx="18"  cy="8.208" stroke="black" id="connector2pin" r="1.98" stroke-width="1.44"/>
    </g>
   </g>
  </g>
  <g partID="602740">
   <g transform="translate(182.64,64.183)">
    <g transform="matrix(0,-1,1,0,0,0)">
     <g  id="copper0">
      <g  id="copper1">
       <rect width="3.96" x="0.72" y="1.116" fill="none"  height="3.96" stroke="black" stroke-width="1.44"/>
       <circle fill="none" cx="2.7"  cy="3.096" stroke="black" r="1.98" id="connector0pin" stroke-width="1.44"/>
       <circle fill="none" cx="31.5"  cy="3.096" stroke="black" r="1.98" id="connector1pin" stroke-width="1.44"/>
      </g>
     </g>
    </g>
   </g>
  </g>
  <g partID="420960">
   <g transform="translate(4.9112,11.544)">
    <g  id="copper0">
     <circle fill="none" cx="151.384"  cy="144" stroke="black" id="connector1pad" r="1.61" stroke-width="0.8113"/>
     <circle fill="none" cx="158.583"  cy="144" stroke="black" id="connector2pad" r="1.61" stroke-width="0.8113"/>
     <circle fill="none" cx="165.786"  cy="144" stroke="black" id="connector3pad" r="1.61" stroke-width="0.8113"/>
     <circle fill="none" cx="172.985"  cy="144" stroke="black" id="connector4pad" r="1.61" stroke-width="0.8113"/>
     <circle fill="none" cx="180.184"  cy="144" stroke="black" id="connector5pad" r="1.61" stroke-width="0.8113"/>
     <circle fill="none" cx="118.263"  cy="7.2" stroke="black" id="connector51pad" r="1.61" stroke-width="0.8113"/>
     <circle fill="none" cx="111.065"  cy="7.2" stroke="black" id="connector52pad" r="1.61" stroke-width="0.8113"/>
     <circle fill="none" cx="103.864"  cy="7.2" stroke="black" id="connector53pad" r="1.61" stroke-width="0.8113"/>
     <circle fill="none" cx="96.664"  cy="7.2" stroke="black" id="connector54pad" r="1.61" stroke-width="0.8113"/>
     <circle fill="none" cx="89.464"  cy="7.2" stroke="black" id="connector55pad" r="1.61" stroke-width="0.8113"/>
     <circle fill="none" cx="82.264"  cy="7.2" stroke="black" id="connector56pad" r="1.61" stroke-width="0.8113"/>
     <circle fill="none" cx="75.064"  cy="7.2" stroke="black" id="connector57pad" r="1.61" stroke-width="0.8113"/>
     <circle fill="none" cx="67.864"  cy="7.2" stroke="black" id="connector58pad" r="1.61" stroke-width="0.8113"/>
     <circle fill="none" cx="60.664"  cy="7.2" stroke="black" id="connector59pad" r="1.61" stroke-width="0.8113"/>
     <circle fill="none" cx="53.463"  cy="7.2" stroke="black" id="connector60pad" r="1.61" stroke-width="0.8113"/>
     <circle fill="none" cx="180.184"  cy="7.2" stroke="black" id="connector61pad" r="1.61" stroke-width="0.8113"/>
     <circle fill="none" cx="172.985"  cy="7.2" stroke="black" id="connector62pad" r="1.61" stroke-width="0.8113"/>
     <circle fill="none" cx="165.786"  cy="7.2" stroke="black" id="connector63pad" r="1.61" stroke-width="0.8113"/>
     <circle fill="none" cx="158.583"  cy="7.2" stroke="black" id="connector64pad" r="1.61" stroke-width="0.8113"/>
     <circle fill="none" cx="151.384"  cy="7.2" stroke="black" id="connector65pad" r="1.61" stroke-width="0.8113"/>
     <circle fill="none" cx="144.184"  cy="7.2" stroke="black" id="connector66pad" r="1.61" stroke-width="0.8113"/>
     <circle fill="none" cx="136.985"  cy="7.2" stroke="black" id="connector67pad" r="1.61" stroke-width="0.8113"/>
     <circle fill="none" cx="129.784"  cy="7.2" stroke="black" id="connector68pad" r="1.61" stroke-width="0.8113"/>
     <circle fill="none" cx="86.584"  cy="144" stroke="black" id="connector84pad" r="1.61" stroke-width="0.8113"/>
     <circle fill="none" cx="79.384"  cy="144" stroke="black" id="connector91pin" r="1.61" stroke-width="0.8113"/>
     <circle fill="none" cx="93.784"  cy="144" stroke="black" id="connector85pad" r="1.61" stroke-width="0.8113"/>
     <circle fill="none" cx="100.985"  cy="144" stroke="black" id="connector86pad" r="1.61" stroke-width="0.8113"/>
     <circle fill="none" cx="108.184"  cy="144" stroke="black" id="connector87pad" r="1.61" stroke-width="0.8113"/>
     <circle fill="none" cx="115.384"  cy="144" stroke="black" id="connector88pad" r="1.61" stroke-width="0.8113"/>
     <circle fill="none" cx="122.583"  cy="144" stroke="black" id="connector89pad" r="1.61" stroke-width="0.8113"/>
     <circle fill="none" cx="129.784"  cy="144" stroke="black" id="connector90pad" r="1.61" stroke-width="0.8113"/>
     <circle fill="none" cx="144.184"  cy="144" stroke="black" id="connector0pad" r="1.61" stroke-width="0.8113"/>
    </g>
   </g>
  </g>
  <g partID="495570">
   <g transform="translate(214.026,34.4611)">
    <g transform="matrix(0,1,-1,0,0,0)">
     <g transform="matrix(-1, 0, 0, 1, 121.89, 0)">
      <g _flipped_="1" id="copper0">
       <text x="60.9448" y="8.43851" fill="black" font-family="OCRA" text-anchor="middle" xmlns:xml="http://www.w3.org/XML/1998/namespace" id="label" xml:space="preserve" stroke-width="0" font-size="9.37612">Bicigenerador</text>
      </g>
     </g>
    </g>
   </g>
  </g>
  <g partID="495620">
   <g transform="translate(16.7672,71.2192)">
    <g transform="matrix(0,1,-1,0,0,0)">
     <g transform="matrix(-1, 0, 0, 1, 86.4, 0)">
      <g _flipped_="1" id="copper0">
       <text x="43.2" y="6.48" fill="black" font-family="OCRA" text-anchor="middle" xmlns:xml="http://www.w3.org/XML/1998/namespace" id="label" xml:space="preserve" stroke-width="0" font-size="7.2">Luz &amp; Fuerza</text>
      </g>
     </g>
    </g>
   </g>
  </g>
  <g partID="495670">
   <g transform="translate(16.2624,54.2088)">
    <g transform="matrix(0,1,-1,0,0,0)">
     <g transform="matrix(-1, 0, 0, 1, 28.8, 0)">
      <g _flipped_="1" id="copper0">
       <text x="14.4" y="6.48" fill="black" font-family="OCRA" text-anchor="middle" xmlns:xml="http://www.w3.org/XML/1998/namespace" id="label" xml:space="preserve" stroke-width="0" font-size="7.2">2013</text>
      </g>
     </g>
    </g>
   </g>
  </g>
  <g partID="613040">
   <g transform="translate(60.6712,85.1285)">
    <g transform="matrix(-1,0,0,-1,0,0)">
     <g id="copper0">
      <rect width="4.32" x="12.24" y="6.72661" fill="none" height="4.32" stroke="black" id="square" stroke-width="1.44"/>
      <circle fill="none" cx="14.4" cy="8.8866" stroke="black" id="connector0pin" r="2.16" stroke-width="1.44"/>
      <circle fill="none" cx="14.4" cy="23.0599" stroke="black" id="connector1pin" r="2.16" stroke-width="1.44"/>
      <circle fill="none" cx="14.4" cy="37.2331" stroke="black" id="connector2pin" r="2.16" stroke-width="1.44"/>
     </g>
    </g>
   </g>
  </g>
  <g partID="618360">
   <g transform="translate(105.689,102.355)">
    <g transform="matrix(0,1,-1,0,0,0)">
     <g id="copper0">
      <rect width="4.32" x="12.24" y="6.72661" fill="none" height="4.32" stroke="black" id="square" stroke-width="1.44"/>
      <circle fill="none" cx="14.4" cy="8.8866" stroke="black" id="connector0pin" r="2.16" stroke-width="1.44"/>
      <circle fill="none" cx="14.4" cy="23.0599" stroke="black" id="connector1pin" r="2.16" stroke-width="1.44"/>
     </g>
    </g>
   </g>
  </g>
  <g partID="618040">
   <g transform="translate(143.842,107.05)">
    <g transform="matrix(0,1,-1,0,0,0)">
     <g id="copper0">
      <rect width="4.32" x="12.24" y="6.72661" fill="none" height="4.32" stroke="black" id="square" stroke-width="1.44"/>
      <circle fill="none" cx="14.4" cy="8.8866" stroke="black" id="connector0pin" r="2.16" stroke-width="1.44"/>
      <circle fill="none" cx="14.4" cy="23.0599" stroke="black" id="connector1pin" r="2.16" stroke-width="1.44"/>
     </g>
    </g>
   </g>
  </g>
  <g partID="429010">
   <g transform="translate(168.764,37.663)">
    <g transform="matrix(0,1,-1,0,0,0)">
     <g  id="copper0">
      <g  id="copper1">
       <rect width="3.96" x="0.72" y="1.116" fill="none"  height="3.96" stroke="black" stroke-width="1.44"/>
       <circle fill="none" cx="2.7"  cy="3.096" stroke="black" r="1.98" id="connector0pin" stroke-width="1.44"/>
       <circle fill="none" cx="31.5"  cy="3.096" stroke="black" r="1.98" id="connector1pin" stroke-width="1.44"/>
      </g>
     </g>
    </g>
   </g>
  </g>
  <g partID="428950">
   <g transform="translate(145.114,33.3963)">
    <g transform="matrix(0,1,-1,0,0,0)">
     <g  id="copper0">
      <g  id="copper1">
       <rect width="3.96" x="0.72" y="1.116" fill="none"  height="3.96" stroke="black" stroke-width="1.44"/>
       <circle fill="none" cx="2.7"  cy="3.096" stroke="black" r="1.98" id="connector0pin" stroke-width="1.44"/>
       <circle fill="none" cx="31.5"  cy="3.096" stroke="black" r="1.98" id="connector1pin" stroke-width="1.44"/>
      </g>
     </g>
    </g>
   </g>
  </g>
  <g partID="428890">
   <g transform="translate(179.669,39.1563)">
    <g transform="matrix(0,1,-1,0,0,0)">
     <g  id="copper0">
      <g  id="copper1">
       <rect width="3.96" x="0.72" y="1.116" fill="none"  height="3.96" stroke="black" stroke-width="1.44"/>
       <circle fill="none" cx="2.7"  cy="3.096" stroke="black" r="1.98" id="connector0pin" stroke-width="1.44"/>
       <circle fill="none" cx="31.5"  cy="3.096" stroke="black" r="1.98" id="connector1pin" stroke-width="1.44"/>
      </g>
     </g>
    </g>
   </g>
  </g>
  <g partID="598190">
   <g transform="translate(124.266,65.2496)">
    <g transform="matrix(0,-1,1,0,0,0)">
     <g  id="copper0">
      <g  id="copper1">
       <rect width="3.96" x="0.72" y="1.116" fill="none"  height="3.96" stroke="black" stroke-width="1.44"/>
       <circle fill="none" cx="2.7"  cy="3.096" stroke="black" r="1.98" id="connector0pin" stroke-width="1.44"/>
       <circle fill="none" cx="31.5"  cy="3.096" stroke="black" r="1.98" id="connector1pin" stroke-width="1.44"/>
      </g>
     </g>
    </g>
   </g>
  </g>
  <g partID="591290">
   <g transform="translate(112.534,65.8896)">
    <g transform="matrix(0,-1,1,0,0,0)">
     <g  id="copper0">
      <g  id="copper1">
       <rect width="3.96" x="0.72" y="1.116" fill="none"  height="3.96" stroke="black" stroke-width="1.44"/>
       <circle fill="none" cx="2.7"  cy="3.096" stroke="black" r="1.98" id="connector0pin" stroke-width="1.44"/>
       <circle fill="none" cx="31.5"  cy="3.096" stroke="black" r="1.98" id="connector1pin" stroke-width="1.44"/>
      </g>
     </g>
    </g>
   </g>
  </g>
  <g partID="427820">
   <g transform="translate(21.3757,23.0029)">
    <g transform="matrix(0, -1, 1, 0, 0, 7.92)">
     <g id="copper0">
      <g gorn="0.6.0.0">
       <g gorn="0.6.0.0.0" id="copper1">
        <circle fill="none" cx="3.96" gorn="0.6.0.0.0.0" cy="3.96" stroke="black" r="1.764" id="connector0pin" stroke-width="0.792"/>
        <circle fill="none" cx="3.96" gorn="0.6.0.0.0.1" cy="11.16" stroke="black" r="1.764" id="connector1pin" stroke-width="0.792"/>
        <circle fill="none" cx="3.96" gorn="0.6.0.0.0.2" cy="18.36" stroke="black" r="1.764" id="connector2pin" stroke-width="0.792"/>
        <circle fill="none" cx="3.96" gorn="0.6.0.0.0.3" cy="25.56" stroke="black" r="1.764" id="connector4pin" stroke-width="0.792"/>
       </g>
      </g>
     </g>
    </g>
   </g>
  </g>
  <g partID="461100">
   <g transform="translate(186.419,85.9921)">
    <g transform="matrix(0,1,-1,0,0,0)">
     <g  id="copper0">
      <circle fill="none" cx="2.56464"  cy="10.2182" stroke="black" r="1.62" id="connector0pad" stroke-width="1.44"/>
      <circle fill="none" cx="8.23824"  cy="10.2182" stroke="black" r="1.62" id="connector1pad" stroke-width="1.44"/>
      <circle fill="none" cx="13.8974"  cy="10.2182" stroke="black" r="1.62" id="connector2pad" stroke-width="1.44"/>
      <circle fill="none" cx="19.571"  cy="10.2182" stroke="black" r="1.62" id="connector3pad" stroke-width="1.44"/>
     </g>
    </g>
   </g>
  </g>
  <g partID="467740">
   <g transform="translate(54.3293,22.5299)">
    <g  id="copper0">
     <circle fill="none" cx="4.31559"  cy="4.31559" stroke="black" r="1.99559" id="connector0pin" stroke-width="1.44"/>
    </g>
   </g>
  </g>
  <g partID="612580">
   <g transform="translate(59.7144,131.652)">
    <g transform="matrix(-1,0,0,-1,0,0)">
     <g id="copper0">
      <rect width="4.32" x="12.24" y="6.72661" fill="none" height="4.32" stroke="black" id="square" stroke-width="1.44"/>
      <circle fill="none" cx="14.4" cy="8.8866" stroke="black" id="connector0pin" r="2.16" stroke-width="1.44"/>
      <circle fill="none" cx="14.4" cy="23.0599" stroke="black" id="connector1pin" r="2.16" stroke-width="1.44"/>
      <circle fill="none" cx="14.4" cy="37.2331" stroke="black" id="connector2pin" r="2.16" stroke-width="1.44"/>
     </g>
    </g>
   </g>
  </g>
  <g partID="622610">
   <g transform="translate(143.367,97.6341)">
    <g transform="matrix(-1,0,0,-1,0,0)">
     <g  id="copper0">
      <rect width="4.464" x="0.72" y="1.368" fill="none"  height="4.464" stroke="black" stroke-width="1.44"/>
      <circle fill="none" cx="3.024"  cy="3.6" stroke="black" id="connector0pin" r="2.232" stroke-width="1.44"/>
      <circle fill="none" cx="24.48"  cy="3.6" stroke="black" id="connector1pin" r="2.232" stroke-width="1.44"/>
     </g>
    </g>
   </g>
  </g>
  <g partID="622840">
   <g transform="translate(103.07,97.1425)">
    <g transform="matrix(-1,0,0,-1,0,0)">
     <g  id="copper0">
      <rect width="4.464" x="0.72" y="1.368" fill="none"  height="4.464" stroke="black" stroke-width="1.44"/>
      <circle fill="none" cx="3.024"  cy="3.6" stroke="black" id="connector0pin" r="2.232" stroke-width="1.44"/>
      <circle fill="none" cx="24.48"  cy="3.6" stroke="black" id="connector1pin" r="2.232" stroke-width="1.44"/>
     </g>
    </g>
   </g>
  </g>
  <g partID="662870">
   <g transform="translate(64.605,36.7621)">
    <g  id="copper0">
     <circle fill="none" cx="4.94696"  cy="39.4898" stroke="black" r="1.98" id="connector0pad" stroke-width="1.44"/>
     <circle fill="none" cx="4.752"  cy="4.752" stroke="black" r="1.98" id="connector1pad" stroke-width="1.44"/>
    </g>
   </g>
  </g>
  <g partID="666370">
   <g transform="translate(154.825,74.9241)">
    <g  id="copper0">
     <circle fill="none" cx="4.78109"  cy="31.0982" stroke="black" r="1.98" id="connector0pad" stroke-width="1.44"/>
     <circle fill="none" cx="4.752"  cy="4.752" stroke="black" r="1.98" id="connector1pad" stroke-width="1.44"/>
    </g>
   </g>
  </g>
  <g partID="643940">
   <line stroke="black" stroke-linecap="round" y1="123.689" x1="134.938" y2="153.54" stroke-width="3.456" x2="134.711"/>
  </g>
  <g partID="644100">
   <line stroke="black" stroke-linecap="round" y1="118.918" x1="136.638" y2="113.51" stroke-width="3.456" x2="140.233"/>
  </g>
  <g partID="644320">
   <line stroke="black" stroke-linecap="round" y1="113.51" x1="140.233" y2="97.146" stroke-width="3.456" x2="140.325"/>
  </g>
  <g partID="644570">
   <line stroke="black" stroke-linecap="round" y1="114.576" x1="118.687" y2="118.542" stroke-width="3.456" x2="119.896"/>
  </g>
  <g partID="644490">
   <line stroke="black" stroke-linecap="round" y1="97.1459" x1="118.857" y2="114.576" stroke-width="3.456" x2="118.687"/>
  </g>
  <g partID="644760">
   <line stroke="black" stroke-linecap="round" y1="130.79" x1="124.873" y2="123.515" stroke-width="3.456" x2="132.725"/>
  </g>
  <g partID="644770">
   <line stroke="black" stroke-linecap="round" y1="119.795" x1="96.8742" y2="131.003" stroke-width="3.456" x2="97.14"/>
  </g>
  <g partID="644920">
   <line stroke="black" stroke-linecap="round" y1="131.003" x1="97.14" y2="130.79" stroke-width="3.456" x2="124.873"/>
  </g>
  <g partID="645520">
   <line stroke="black" stroke-linecap="round" y1="110.096" x1="78.58" y2="114.158" stroke-width="3.456" x2="81.0495"/>
  </g>
  <g partID="645230">
   <line stroke="black" stroke-linecap="round" y1="96.6545" x1="78.588" y2="110.096" stroke-width="3.456" x2="78.58"/>
  </g>
  <g partID="645410">
   <line stroke="black" stroke-linecap="round" y1="108.816" x1="99.4867" y2="96.6524" stroke-width="3.456" x2="99.932"/>
  </g>
  <g partID="645310">
   <line stroke="black" stroke-linecap="round" y1="113.876" x1="97.7759" y2="108.816" stroke-width="3.456" x2="99.4867"/>
  </g>
  <g partID="645610">
   <line stroke="black" stroke-linecap="round" y1="78.6198" x1="119.532" y2="82.5763" stroke-width="3.456" x2="118.473"/>
  </g>
  <g partID="645790">
   <line stroke="black" stroke-linecap="round" y1="82.5763" x1="118.473" y2="90.9241" stroke-width="3.456" x2="118.775"/>
  </g>
  <g partID="646000">
   <line stroke="black" stroke-linecap="round" y1="77.831" x1="78.8834" y2="90.431" stroke-width="3.456" x2="78.648"/>
  </g>
  <g partID="646060">
   <line stroke="black" stroke-linecap="round" y1="64.6096" x1="127.379" y2="73.797" stroke-width="3.456" x2="127.454"/>
  </g>
  <g partID="646410">
   <line stroke="black" stroke-linecap="round" y1="26.0429" x1="185.887" y2="29.8237" stroke-width="3.456" x2="185.801"/>
  </g>
  <g partID="646320">
   <line stroke="black" stroke-linecap="round" y1="26.0429" x1="171.38" y2="26.0429" stroke-width="3.456" x2="185.887"/>
  </g>
  <g partID="646240">
   <line stroke="black" stroke-linecap="round" y1="21.5362" x1="170.959" y2="26.0429" stroke-width="3.456" x2="171.38"/>
  </g>
  <g partID="646790">
   <line stroke="black" stroke-linecap="round" y1="32.4429" x1="176.073" y2="32.2296" stroke-width="3.456" x2="168.607"/>
  </g>
  <g partID="646860">
   <line stroke="black" stroke-linecap="round" y1="26.8963" x1="163.487" y2="21.5484" stroke-width="3.456" x2="163.492"/>
  </g>
  <g partID="646660">
   <line stroke="black" stroke-linecap="round" y1="39.0003" x1="176.422" y2="32.4429" stroke-width="3.456" x2="176.073"/>
  </g>
  <g partID="646720">
   <line stroke="black" stroke-linecap="round" y1="32.2296" x1="168.607" y2="26.8963" stroke-width="3.456" x2="163.487"/>
  </g>
  <g partID="647150">
   <line stroke="black" stroke-linecap="round" y1="37.5629" x1="165.193" y2="37.5433" stroke-width="3.456" x2="165.19"/>
  </g>
  <g partID="647080">
   <line stroke="black" stroke-linecap="round" y1="27.1096" x1="156.233" y2="37.5629" stroke-width="3.456" x2="165.193"/>
  </g>
  <g partID="646960">
   <line stroke="black" stroke-linecap="round" y1="26.6829" x1="148.767" y2="27.1096" stroke-width="3.456" x2="156.233"/>
  </g>
  <g partID="646900">
   <line stroke="black" stroke-linecap="round" y1="21.546" x1="148.979" y2="26.6829" stroke-width="3.456" x2="148.767"/>
  </g>
  <g partID="647280">
   <line stroke="black" stroke-linecap="round" y1="20.7483" x1="141.91" y2="34.0364" stroke-width="3.456" x2="142.004"/>
  </g>
  <g partID="647610">
   <line stroke="black" stroke-linecap="round" y1="27.1096" x1="134.687" y2="21.5483" stroke-width="3.456" x2="134.692"/>
  </g>
  <g partID="647500">
   <line stroke="black" stroke-linecap="round" y1="31.8287" x1="129.481" y2="27.1096" stroke-width="3.456" x2="134.687"/>
  </g>
  <g partID="647860">
   <line stroke="black" stroke-linecap="round" y1="25.6163" x1="123.593" y2="21.5432" stroke-width="3.456" x2="123.345"/>
  </g>
  <g partID="647740">
   <line stroke="black" stroke-linecap="round" y1="32.2719" x1="117.552" y2="25.6163" stroke-width="3.456" x2="123.593"/>
  </g>
  <g partID="648440">
   <line stroke="black" stroke-linecap="round" y1="49.5096" x1="122.313" y2="66.1496" stroke-width="3.456" x2="93.3"/>
  </g>
  <g partID="648230">
   <line stroke="black" stroke-linecap="round" y1="66.1496" x1="93.3" y2="72.1115" stroke-width="3.456" x2="93.3249"/>
  </g>
  <g partID="647930">
   <line stroke="black" stroke-linecap="round" y1="48.8696" x1="134.9" y2="49.5096" stroke-width="3.456" x2="122.313"/>
  </g>
  <g partID="647940">
   <line stroke="black" stroke-linecap="round" y1="72.9971" x1="134.696" y2="48.8696" stroke-width="3.456" x2="134.9"/>
  </g>
  <g partID="648670">
   <line stroke="black" stroke-linecap="round" y1="84.0696" x1="101.407" y2="69.7763" stroke-width="3.456" x2="115.913"/>
  </g>
  <g partID="648780">
   <line stroke="black" stroke-linecap="round" y1="69.7763" x1="115.913" y2="66.047" stroke-width="3.456" x2="115.753"/>
  </g>
  <g partID="648680">
   <line stroke="black" stroke-linecap="round" y1="77.8313" x1="86.1085" y2="84.0696" stroke-width="3.456" x2="86.0467"/>
  </g>
  <g partID="648730">
   <line stroke="black" stroke-linecap="round" y1="84.0696" x1="86.0467" y2="84.0696" stroke-width="3.456" x2="101.407"/>
  </g>
  <g partID="651970">
   <line stroke="black" stroke-linecap="round" y1="11.1096" x1="52.7667" y2="20.4963" stroke-width="3.456" x2="32.7133"/>
  </g>
  <g partID="657360">
   <line stroke="black" stroke-linecap="round" y1="20.4963" x1="32.7133" y2="23.9961" stroke-width="3.456" x2="32.6172"/>
  </g>
  <g partID="651910">
   <line stroke="black" stroke-linecap="round" y1="10.8963" x1="156.447" y2="11.1096" stroke-width="3.456" x2="52.7667"/>
  </g>
  <g partID="651920">
   <line stroke="black" stroke-linecap="round" y1="15.9402" x1="156.349" y2="10.8963" stroke-width="3.456" x2="156.447"/>
  </g>
  <g partID="653270">
   <line stroke="black" stroke-linecap="round" y1="5.3496" x1="170.953" y2="15.9402" stroke-width="3.456" x2="170.751"/>
  </g>
  <g partID="653560">
   <line stroke="black" stroke-linecap="round" y1="47.8029" x1="17.9933" y2="18.5763" stroke-width="3.456" x2="18.42"/>
  </g>
  <g partID="653420">
   <line stroke="black" stroke-linecap="round" y1="18.5763" x1="18.42" y2="5.13627" stroke-width="3.456" x2="51.4867"/>
  </g>
  <g partID="653350">
   <line stroke="black" stroke-linecap="round" y1="5.13627" x1="51.4867" y2="5.3496" stroke-width="3.456" x2="170.953"/>
  </g>
  <g partID="653280">
   <line stroke="black" stroke-linecap="round" y1="47.8855" x1="43.2312" y2="47.8029" stroke-width="3.456" x2="17.9933"/>
  </g>
  <g partID="654110">
   <line stroke="black" stroke-linecap="round" y1="40.9763" x1="24.82" y2="29.9289" stroke-width="3.456" x2="25.2266"/>
  </g>
  <g partID="653910">
   <line stroke="black" stroke-linecap="round" y1="40.5496" x1="53.62" y2="40.9763" stroke-width="3.456" x2="24.82"/>
  </g>
  <g partID="654300">
   <line stroke="black" stroke-linecap="round" y1="62.0963" x1="53.8333" y2="40.5496" stroke-width="3.456" x2="53.62"/>
  </g>
  <g partID="653920">
   <line stroke="black" stroke-linecap="round" y1="62.0797" x1="49.3112" y2="62.0963" stroke-width="3.456" x2="53.8333"/>
  </g>
  <g partID="663290">
   <line stroke="black" stroke-linecap="round" y1="49.4434" x1="81.0297" y2="62.0963" stroke-width="3.456" x2="55.1133"/>
  </g>
  <g partID="655160">
   <line stroke="black" stroke-linecap="round" y1="24.7629" x1="79.86" y2="49.4434" stroke-width="3.456" x2="81.0297"/>
  </g>
  <g partID="656340">
   <line stroke="black" stroke-linecap="round" y1="62.0963" x1="55.1133" y2="62.0756" stroke-width="3.456" x2="48.5112"/>
  </g>
  <g partID="655170">
   <line stroke="black" stroke-linecap="round" y1="21.5478" x1="79.9216" y2="24.7629" stroke-width="3.456" x2="79.86"/>
  </g>
  <g partID="656900">
   <line stroke="black" stroke-linecap="round" y1="65.9363" x1="59.8067" y2="61.6696" stroke-width="3.456" x2="55.3267"/>
  </g>
  <g partID="656750">
   <line stroke="black" stroke-linecap="round" y1="61.6696" x1="55.3267" y2="61.9348" stroke-width="3.456" x2="49.3083"/>
  </g>
  <g partID="656570">
   <line stroke="black" stroke-linecap="round" y1="66.1496" x1="93.7267" y2="65.9363" stroke-width="3.456" x2="59.8067"/>
  </g>
  <g partID="656580">
   <line stroke="black" stroke-linecap="round" y1="72.1143" x1="93.4631" y2="66.1496" stroke-width="3.456" x2="93.7267"/>
  </g>
  <g partID="657070">
   <line stroke="black" stroke-linecap="round" y1="62.0227" x1="30.4917" y2="62.0598" stroke-width="3.456" x2="43.2312"/>
  </g>
  <g partID="657210">
   <line stroke="black" stroke-linecap="round" y1="122.492" x1="30.7124" y2="62.0227" stroke-width="3.456" x2="30.4917"/>
  </g>
  <g partID="657080">
   <line stroke="black" stroke-linecap="round" y1="122.709" x1="42.2749" y2="122.492" stroke-width="3.456" x2="30.7124"/>
  </g>
  <g partID="657470">
   <line stroke="black" stroke-linecap="round" y1="146.363" x1="81.14" y2="146.15" stroke-width="3.456" x2="113.14"/>
  </g>
  <g partID="657690">
   <line stroke="black" stroke-linecap="round" y1="146.15" x1="113.14" y2="152.74" stroke-width="3.456" x2="113.109"/>
  </g>
  <g partID="658140">
   <line stroke="black" stroke-linecap="round" y1="108.732" x1="61.2702" y2="146.363" stroke-width="3.456" x2="81.14"/>
  </g>
  <g partID="657480">
   <line stroke="black" stroke-linecap="round" y1="108.619" x1="48.3543" y2="108.732" stroke-width="3.456" x2="61.2702"/>
  </g>
  <g partID="658680">
   <line stroke="black" stroke-linecap="round" y1="94.7412" x1="36.4144" y2="115.951" stroke-width="3.456" x2="36.4144"/>
  </g>
  <g partID="658730">
   <line stroke="black" stroke-linecap="round" y1="115.951" x1="36.4144" y2="115.876" stroke-width="3.456" x2="53.6795"/>
  </g>
  <g partID="658780">
   <line stroke="black" stroke-linecap="round" y1="115.876" x1="53.6795" y2="169.278" stroke-width="3.456" x2="79.7055"/>
  </g>
  <g partID="658370">
   <line stroke="black" stroke-linecap="round" y1="94.5293" x1="42.2764" y2="94.7412" stroke-width="3.456" x2="36.4144"/>
  </g>
  <g partID="658480">
   <line stroke="black" stroke-linecap="round" y1="169.278" x1="79.7055" y2="169.719" stroke-width="3.456" x2="148.561"/>
  </g>
  <g partID="658430">
   <line stroke="black" stroke-linecap="round" y1="169.719" x1="148.561" y2="158.346" stroke-width="3.456" x2="148.99"/>
  </g>
  <g partID="659590">
   <line stroke="black" stroke-linecap="round" y1="92.4779" x1="56.0917" y2="106.066" stroke-width="3.456" x2="47.0044"/>
  </g>
  <g partID="660280">
   <line stroke="black" stroke-linecap="round" y1="81.2227" x1="55.6503" y2="92.4779" stroke-width="3.456" x2="56.0917"/>
  </g>
  <g partID="659270">
   <line stroke="black" stroke-linecap="round" y1="77.6677" x1="48.9561" y2="81.2227" stroke-width="3.456" x2="55.6503"/>
  </g>
  <g partID="665600">
   <line stroke="black" stroke-linecap="round" y1="93.9644" x1="151.432" y2="94.2035" stroke-width="3.456" x2="173.701"/>
  </g>
  <g partID="661090">
   <line stroke="black" stroke-linecap="round" y1="132.423" x1="151.43" y2="93.9644" stroke-width="3.456" x2="151.432"/>
  </g>
  <g partID="660840">
   <line stroke="black" stroke-linecap="round" y1="148.754" x1="143.264" y2="132.423" stroke-width="3.456" x2="151.43"/>
  </g>
  <g partID="660490">
   <line stroke="black" stroke-linecap="round" y1="163.54" x1="142.381" y2="148.754" stroke-width="3.456" x2="143.264"/>
  </g>
  <g partID="660500">
   <line stroke="black" stroke-linecap="round" y1="158.335" x1="113.366" y2="163.981" stroke-width="3.456" x2="113.912"/>
  </g>
  <g partID="660670">
   <line stroke="black" stroke-linecap="round" y1="163.981" x1="113.912" y2="163.54" stroke-width="3.456" x2="142.381"/>
  </g>
  <g partID="665240">
   <line stroke="black" stroke-linecap="round" y1="94.2434" x1="185.195" y2="94.234" stroke-width="3.456" x2="178.701"/>
  </g>
  <g partID="665250">
   <line stroke="black" stroke-linecap="round" y1="64.3426" x1="185.689" y2="94.2434" stroke-width="3.456" x2="185.195"/>
  </g>
  <g partID="665380">
   <line stroke="black" stroke-linecap="round" y1="86.8571" x1="176.236" y2="72.7159" stroke-width="3.456" x2="176.53"/>
  </g>
  <g partID="665970">
   <line stroke="black" stroke-linecap="round" y1="54.2986" x1="154.74" y2="53.8572" stroke-width="3.456" x2="193.361"/>
  </g>
  <g partID="665900">
   <line stroke="black" stroke-linecap="round" y1="53.8572" x1="193.361" y2="99.5399" stroke-width="3.456" x2="192.919"/>
  </g>
  <g partID="665850">
   <line stroke="black" stroke-linecap="round" y1="99.5399" x1="192.919" y2="99.8373" stroke-width="3.456" x2="178.7"/>
  </g>
  <g partID="665790">
   <line stroke="black" stroke-linecap="round" y1="63.0658" x1="144.216" y2="54.2986" stroke-width="3.456" x2="154.74"/>
  </g>
  <g partID="666750">
   <line stroke="black" stroke-linecap="round" y1="105.943" x1="162.465" y2="105.632" stroke-width="3.456" x2="173.702"/>
  </g>
  <g partID="667440">
   <line stroke="black" stroke-linecap="round" y1="76.6844" x1="165.71" y2="71.2229" stroke-width="3.456" x2="165.68"/>
  </g>
  <g partID="667400">
   <line stroke="black" stroke-linecap="round" y1="78.773" x1="161.429" y2="76.6844" stroke-width="3.456" x2="165.71"/>
  </g>
  <g partID="668620">
   <line stroke="black" stroke-linecap="round" y1="76.251" x1="67.492" y2="76.2428" stroke-width="3.456" x2="48.5112"/>
  </g>
  <g partID="669150">
   <line stroke="black" stroke-linecap="round" y1="33.283" x1="65.9863" y2="33.3932" stroke-width="3.456" x2="39.6502"/>
  </g>
  <g partID="668900">
   <line stroke="black" stroke-linecap="round" y1="38.8674" x1="68.2732" y2="33.283" stroke-width="3.456" x2="65.9863"/>
  </g>
  <g partID="669020">
   <line stroke="black" stroke-linecap="round" y1="33.3932" x1="39.6502" y2="29.9307" stroke-width="3.456" x2="39.6963"/>
  </g>
  <g partID="669340">
   <line stroke="black" stroke-linecap="round" y1="26.9412" x1="49.1036" y2="26.8663" stroke-width="3.456" x2="56.5694"/>
  </g>
 </g>
</svg>
