<?xml version="1.0" encoding="UTF-8" standalone="no"?>
<!-- Generator: Adobe Illustrator 16.0.0, SVG Export Plug-In . SVG Version: 6.00 Build 0)  -->

<svg
   xmlns:dc="http://purl.org/dc/elements/1.1/"
   xmlns:cc="http://creativecommons.org/ns#"
   xmlns:rdf="http://www.w3.org/1999/02/22-rdf-syntax-ns#"
   xmlns:svg="http://www.w3.org/2000/svg"
   xmlns="http://www.w3.org/2000/svg"
   xmlns:sodipodi="http://sodipodi.sourceforge.net/DTD/sodipodi-0.dtd"
   xmlns:inkscape="http://www.inkscape.org/namespaces/inkscape"
   version="1.2"
   id="Ebene_1"
   x="0px"
   y="0px"
   width="36.576px"
   height="34.917px"
   viewBox="0 0 36.576 34.917"
   xml:space="preserve"
   inkscape:version="0.48.4 r9939"
   sodipodi:docname="HJR-3ff_breadboard.svg"><metadata
     id="metadata62"><rdf:RDF><cc:Work
         rdf:about=""><dc:format>image/svg+xml</dc:format><dc:type
           rdf:resource="http://purl.org/dc/dcmitype/StillImage" /></cc:Work></rdf:RDF></metadata><defs
     id="defs60" /><sodipodi:namedview
     pagecolor="#ffffff"
     bordercolor="#666666"
     borderopacity="1"
     objecttolerance="10"
     gridtolerance="10"
     guidetolerance="10"
     inkscape:pageopacity="0"
     inkscape:pageshadow="2"
     inkscape:window-width="1366"
     inkscape:window-height="726"
     id="namedview58"
     showgrid="false"
     inkscape:zoom="16"
     inkscape:cx="37.380099"
     inkscape:cy="19.516409"
     inkscape:window-x="0"
     inkscape:window-y="19"
     inkscape:window-maximized="1"
     inkscape:current-layer="g3127" /><g
     id="g6"
     transform="translate(-0.147953,-0.29590681)"><rect
       x="32.049"
       y="33.730999"
       width="1.275"
       height="1.186"
       id="rect8"
       style="fill:#cccccc" /><rect
       x="3.2509999"
       y="33.730999"
       width="1.276"
       height="1.1849999"
       id="rect10"
       style="fill:#cccccc" /><rect
       x="10.449"
       y="33.730999"
       width="1.275"
       height="1.186"
       id="rect12"
       style="fill:#cccccc" /><rect
       x="32.049"
       y="13.35"
       width="1.275"
       height="0.47799999"
       id="rect14"
       style="fill:#cccccc" /><rect
       x="10.449"
       y="13.35"
       width="1.275"
       height="0.47799999"
       id="rect18"
       style="fill:#cccccc" /><rect
       id="connector0pin"
       x="3.2509999"
       y="33.730999"
       width="1.276"
       height="1.1849999"
       style="fill:none" /><rect
       id="connector1pin"
       x="10.449"
       y="33.730999"
       width="1.275"
       height="1.186"
       style="fill:none" /><rect
       id="connector2pin"
       x="32.049"
       y="33.730999"
       width="1.275"
       height="1.186"
       style="fill:none" /><rect
       id="connector3pin"
       x="32.049"
       y="13.35"
       width="1.275"
       height="0.47799999"
       style="fill:none" /><rect
       id="connector4pin"
       x="10.449"
       y="13.35"
       width="1.275"
       height="0.47799999"
       style="fill:none" /><rect
       id="connector5pin"
       x="3.2509999"
       y="13.35"
       width="1.276"
       height="0.479"
       style="fill:none" /></g><g
     id="g3127"><text
       y="5.3671932"
       x="56.201649"
       style="font-size:2.5309999px;fill:#808080;font-family:DroidSans"
       id="text40"
       font-size="2.531" />
<g
       id="g3139"
       transform="translate(-50,-0.125)"><g
         id="g26"
         transform="translate(50.008246,-0.14795339)"><g
           id="g28"><path
             d="m 36.576,12.35 c 0,0.551 -0.45,1 -1,1 H 1 c -0.55,0 -1,-0.449 -1,-1 V 1 C 0,0.447 0.45,0 1,0 h 34.576 c 0.55,0 1,0.447 1,1 v 11.35 z"
             id="path30"
             inkscape:connector-curvature="0"
             style="fill:#1a1a1a" /><path
             d="M 35.576,0.308 H 1 c -0.55,0 -1,0.447 -1,1 V 1 C 0,0.447 0.45,0 1,0 h 34.576 v 0.308 z"
             id="path32"
             inkscape:connector-curvature="0"
             style="fill:#ffffff;fill-opacity:0.1" /></g><path
           d="m 36.576,32.737 c 0,0.551 -0.45,1 -1,1 H 1 c -0.55,0 -1,-0.449 -1,-1 v -11.35 c 0,-0.557 0.45,-1 1,-1 h 34.576 c 0.55,0 1,0.443 1,1 v 11.35 z"
           id="path34"
           inkscape:connector-curvature="0"
           style="fill:#1a1a1a" /><path
           d="M 35.949,0 H 3.888 v 3.605 c 0,0.503 -0.412,0.916 -0.916,0.916 H 0 v 17.052 c 0,0.347 0.283,0.629 0.627,0.629 h 35.322 c 0.345,0 0.627,-0.282 0.627,-0.629 V 0.627 C 36.576,0.283 36.294,0 35.949,0 z"
           id="path36"
           inkscape:connector-curvature="0"
           style="fill:#333333" /></g><text
         font-size="2.531"
         id="text38"
         style="font-size:2.5309999px;fill:#808080;font-family:DroidSans"
         x="56.201649"
         y="2.8671932">tiambo</text>
<text
         font-size="2.531"
         id="text44"
         style="font-size:2.5309999px;fill:#808080;font-family:DroidSans"
         x="54.037151"
         y="17.556593">5 VDC</text>
<text
         font-size="2.531"
         id="text46"
         style="font-size:2.5309999px;fill:#808080;font-family:DroidSans"
         x="54.037151"
         y="20.056593">MADE IN CHINA</text>
</g></g><path
     style="fill:#b3b3b3"
     inkscape:connector-curvature="0"
     id="path48"
     d="m 2.474047,18.308093 c 0,0.504 -0.412,0.916 -0.916,0.916 h -0.002 c -0.503,0 -0.916,-0.412 -0.916,-0.916 V 6.2240932 c 0,-0.503 0.412,-0.916 0.916,-0.916 h 0.002 c 0.503,0 0.916,0.412 0.916,0.916 V 18.308093 z" /><path
     style="fill:#ffffff;fill-opacity:0.1"
     inkscape:connector-curvature="0"
     id="path50"
     d="m 3.740047,0.01709322 h 32.061 c 0.345,0 0.627,0.283 0.627,0.627 v -0.313 c 0,-0.344 -0.282,-0.627 -0.627,-0.627 h -32.061 v 0.313 z" /><path
     style="fill:#ffffff;fill-opacity:0.1"
     inkscape:connector-curvature="0"
     id="path52"
     d="m -0.147953,4.5380932 h 2.972 c 0.504,0 0.916,-0.413 0.916,-0.916 v -0.313 c 0,0.503 -0.412,0.916 -0.916,0.916 h -2.972 v 0.313 z" /><path
     style="fill-opacity:0.7"
     inkscape:connector-curvature="0"
     id="path54"
     d="m -0.147953,32.121093 c 0,0.551 0.45,1 1,1 h 34.576 c 0.55,0 1,-0.449 1,-1 v 0.32 c 0,0.551 -0.45,1 -1,1 h -34.576 c -0.55,0 -1,-0.449 -1,-1 v -0.32 z" /><path
     style="fill-opacity:0.1"
     inkscape:connector-curvature="0"
     id="path56"
     d="m 36.428047,20.957093 c 0,0.348 -0.282,0.629 -0.627,0.629 h -35.322 c -0.344,0 -0.627,-0.281 -0.627,-0.629 v 0.32 c 0,0.347 0.283,0.629 0.627,0.629 h 35.322 c 0.345,0 0.627,-0.282 0.627,-0.629 v -0.32 z" /></svg>