<?xml version="1.0" encoding="UTF-8" standalone="no"?>
<!-- Generator: Adobe Illustrator 16.0.0, SVG Export Plug-In . SVG Version: 6.00 Build 0)  -->

<svg
   xmlns:dc="http://purl.org/dc/elements/1.1/"
   xmlns:cc="http://creativecommons.org/ns#"
   xmlns:rdf="http://www.w3.org/1999/02/22-rdf-syntax-ns#"
   xmlns:svg="http://www.w3.org/2000/svg"
   xmlns="http://www.w3.org/2000/svg"
   xmlns:sodipodi="http://sodipodi.sourceforge.net/DTD/sodipodi-0.dtd"
   xmlns:inkscape="http://www.inkscape.org/namespaces/inkscape"
   version="1.1"
   id="Layer_1"
   x="0px"
   y="0px"
   width="51.1px"
   height="43.92px"
   viewBox="0 0 51.1 43.92"
   enable-background="new 0 0 51.1 43.92"
   xml:space="preserve"
   inkscape:version="0.48.4 r9939"
   sodipodi:docname="HJR-3ff_schematic.svg"><metadata
     id="metadata68"><rdf:RDF><cc:Work
         rdf:about=""><dc:format>image/svg+xml</dc:format><dc:type
           rdf:resource="http://purl.org/dc/dcmitype/StillImage" /></cc:Work></rdf:RDF></metadata><defs
     id="defs66" /><sodipodi:namedview
     pagecolor="#ffffff"
     bordercolor="#666666"
     borderopacity="1"
     objecttolerance="10"
     gridtolerance="10"
     guidetolerance="10"
     inkscape:pageopacity="0"
     inkscape:pageshadow="2"
     inkscape:window-width="640"
     inkscape:window-height="480"
     id="namedview64"
     showgrid="false"
     inkscape:zoom="5.0097849"
     inkscape:cx="25.549999"
     inkscape:cy="21.959999"
     inkscape:window-x="244"
     inkscape:window-y="19"
     inkscape:window-maximized="0"
     inkscape:current-layer="schematic" /><g
     id="schematic"><rect
       x="7.55"
       y="0.36"
       width="36"
       height="43.2"
       id="rect4"
       stroke-linecap="round"
       stroke-width="0.9"
       stroke="#000000"
       fill="#FFFFFF" /><path
       d="M14.75,16.92c2.585-0.199,4.519-2.456,4.319-5.04   c-0.177-2.308-2.012-4.142-4.319-4.32"
       id="path6"
       stroke-width="0.5"
       stroke="#000000"
       fill="none" /><path
       d="M14.75,12.6c-1.193-0.348-2.442,0.337-2.79,1.53   c-0.349,1.193,0.337,2.442,1.529,2.79c0.412,0.12,0.849,0.12,1.261,0"
       id="path8"
       stroke-width="0.5"
       stroke="#000000"
       fill="none" /><path
       d="M14.75,24.12c3.181-0.895,5.034-4.199,4.14-7.38   c-0.564-2.007-2.133-3.575-4.14-4.14"
       id="path10"
       stroke-width="0.5"
       stroke="#000000"
       fill="none" /><path
       d="M14.75,19.8c-1.193-0.348-2.442,0.337-2.79,1.53   c-0.349,1.193,0.337,2.443,1.529,2.791c0.412,0.12,0.849,0.12,1.261,0"
       id="path12"
       stroke-width="0.5"
       stroke="#000000"
       fill="none" /><path
       d="M14.75,31.319c3.181-0.928,5.008-4.258,4.08-7.439   c-0.574-1.967-2.112-3.506-4.08-4.08"
       id="path14"
       stroke-width="0.5"
       stroke="#000000"
       fill="none" /><path
       d="M14.75,27c-1.193-0.349-2.442,0.337-2.79,1.53   c-0.349,1.192,0.337,2.441,1.529,2.789c0.412,0.121,0.849,0.121,1.261,0"
       id="path16"
       stroke-width="0.5"
       stroke="#000000"
       fill="none" /><path
       d="M14.75,36.36c2.585-0.199,4.519-2.455,4.319-5.041   c-0.177-2.308-2.012-4.142-4.319-4.319"
       id="path18"
       stroke-width="0.5"
       stroke="#000000"
       fill="none" /><line
       x1="43.55"
       y1="7.56"
       x2="29.15"
       y2="7.56"
       id="line20"
       stroke-linecap="round"
       stroke-width="0.5"
       stroke="#000000"
       fill="none" /><line
       x1="29.15"
       y1="7.56"
       x2="29.15"
       y2="14.76"
       id="line22"
       stroke-linecap="round"
       stroke-width="0.5"
       stroke="#000000"
       fill="none" /><line
       x1="43.55"
       y1="36.36"
       x2="29.15"
       y2="36.36"
       id="line24"
       stroke-linecap="round"
       stroke-width="0.5"
       stroke="#000000"
       fill="none" /><line
       x1="29.15"
       y1="36.36"
       x2="29.15"
       y2="29.16"
       id="line26"
       stroke-linecap="round"
       stroke-width="0.5"
       stroke="#000000"
       fill="none" /><line
       x1="43.55"
       y1="21.96"
       x2="36.35"
       y2="21.96"
       id="line28"
       stroke-linecap="round"
       stroke-width="0.5"
       stroke="#000000"
       fill="none" /><line
       x1="36.35"
       y1="21.96"
       x2="31.31"
       y2="16.92"
       id="line30"
       stroke-linecap="round"
       stroke-width="0.5"
       stroke="#000000"
       fill="none" /><line
       x1="29.15"
       y1="14.76"
       x2="31.31"
       y2="12.6"
       id="line32"
       stroke-linecap="round"
       stroke-width="0.5"
       stroke="#000000"
       fill="none" /><line
       x1="29.15"
       y1="14.76"
       x2="26.99"
       y2="12.6"
       id="line34"
       stroke-linecap="round"
       stroke-width="0.5"
       stroke="#000000"
       fill="none" /><line
       x1="29.15"
       y1="29.16"
       x2="31.31"
       y2="31.319"
       id="line36"
       stroke-linecap="round"
       stroke-width="0.5"
       stroke="#000000"
       fill="none" /><line
       x1="29.15"
       y1="29.16"
       x2="26.99"
       y2="31.319"
       id="line38"
       stroke-linecap="round"
       stroke-width="0.5"
       stroke="#000000"
       fill="none" /><line
       x1="7.55"
       y1="7.56"
       x2="14.75"
       y2="7.56"
       id="line40"
       stroke-linecap="round"
       stroke-width="0.5"
       stroke="#000000"
       fill="none" /><line
       x1="7.55"
       y1="36.36"
       x2="14.75"
       y2="36.36"
       id="line42"
       stroke-linecap="round"
       stroke-width="0.5"
       stroke="#000000"
       fill="none" /><line
       id="connector0pin"
       x1="0.35"
       y1="36.36"
       x2="7.55"
       y2="36.36"
       stroke-linecap="round"
       stroke-width="0.75"
       stroke="#787878"
       fill="none" /><rect
       id="connector0terminal"
       x="0.35"
       y="36.36"
       width="0"
       height="0"
       fill="none" /><line
       id="connector1pin"
       x1="50.75"
       y1="21.96"
       x2="43.55"
       y2="21.96"
       stroke-linecap="round"
       stroke-width="0.75"
       stroke="#787878"
       fill="none" /><rect
       id="connector1terminal"
       x="50.75"
       y="21.96"
       width="0"
       height="0"
       fill="none" /><line
       id="connector2pin"
       x1="50.75"
       y1="36.36"
       x2="43.55"
       y2="36.36"
       stroke-linecap="round"
       stroke-width="0.75"
       stroke="#787878"
       fill="none" /><rect
       id="connector2terminal"
       x="50.75"
       y="36.36"
       width="0"
       height="0"
       fill="none" /><line
       id="connector3pin"
       x1="50.75"
       y1="7.56"
       x2="43.55"
       y2="7.56"
       stroke-linecap="round"
       stroke-width="0.75"
       stroke="#787878"
       fill="none" /><rect
       id="connector3terminal"
       x="50.75"
       y="7.56"
       width="0"
       height="0"
       fill="none" /><line
       id="connector4pin"
       x1="0.35"
       y1="7.56"
       x2="7.55"
       y2="7.56"
       stroke-linecap="round"
       stroke-width="0.75"
       stroke="#787878"
       fill="none" /><rect
       id="connector4terminal"
       x="0.35"
       y="7.56"
       width="0"
       height="0"
       fill="none" /></g></svg>