<?xml version='1.0' encoding='UTF-8' standalone='no'?>
<!-- Created with Fritzing (http://www.fritzing.org/) -->
<svg xmlns="http://www.w3.org/2000/svg" width="3.03035in" x="0in" version="1.2" y="0in"  height="2.54984in" viewBox="0 0 218.185 183.588" baseProfile="tiny" xmlns:svg="http://www.w3.org/2000/svg">
 <g partID="175460">
  <g id="board">
   <rect width="217.609" x="0.288" y="0.288" fill="none" height="183.012" stroke="black" fill-opacity="0.5" id="boardoutline" stroke-width="0.5"/>
  </g>
 </g>
 <g partID="94630">
  <g transform="translate(204.805,22.757)">
   <g transform="matrix(0,1,-1,0,0,0)">
    <g transform="matrix(0, -1, 1, 0, 0, 7.92)">
     <g id="copper0">
      <g gorn="0.6.0.0">
       <g gorn="0.6.0.0.0" id="copper1">
        <circle fill="none" cx="3.96" gorn="0.6.0.0.0.0" cy="3.96" stroke="black" r="1.764" id="connector0pin" stroke-width="0.792"/>
        <circle fill="none" cx="3.96" gorn="0.6.0.0.0.1" cy="11.16" stroke="black" r="1.764" id="connector1pin" stroke-width="0.792"/>
        <circle fill="none" cx="3.96" gorn="0.6.0.0.0.2" cy="18.36" stroke="black" r="1.764" id="connector2pin" stroke-width="0.792"/>
        <g transform="matrix(1, 0, 0, 1, -0.00392136, 7.20444)">
         <g>
          <g>
           <circle fill="none" cx="3.96" gorn="0.6.0.0.0.3.0.0" cy="18.36" stroke="black" r="1.764" id="connector4pin" stroke-width="0.792"/>
          </g>
         </g>
        </g>
        <g transform="matrix(1, 0, 0, 1, -0.00323675, 93.6177)">
         <g>
          <g>
           <circle fill="none" cx="3.96" gorn="0.6.0.0.0.4.0.0" cy="3.96" stroke="black" r="1.764" id="connector5pin" stroke-width="0.792"/>
          </g>
         </g>
        </g>
        <g transform="matrix(1, 0, 0, 1, -0.00323675, 93.6177)">
         <g>
          <g>
           <circle fill="none" cx="3.96" gorn="0.6.0.0.0.5.0.0" cy="11.16" stroke="black" r="1.764" id="connector6pin" stroke-width="0.792"/>
          </g>
         </g>
        </g>
        <g transform="matrix(1, 0, 0, 1, -0.00323675, 93.6177)">
         <g>
          <g>
           <circle fill="none" cx="3.96" gorn="0.6.0.0.0.6.0.0" cy="18.36" stroke="black" r="1.764" id="connector7pin" stroke-width="0.792"/>
          </g>
         </g>
        </g>
        <g transform="matrix(1, 0, 0, 1, -0.00715812, 100.822)">
         <g>
          <g>
           <circle fill="none" cx="3.96" gorn="0.6.0.0.0.7.0.0" cy="18.36" stroke="black" r="1.764" id="connector8pin" stroke-width="0.792"/>
          </g>
         </g>
        </g>
       </g>
      </g>
     </g>
    </g>
   </g>
  </g>
 </g>
 <g partID="94780">
  <g transform="translate(1.32646,17.9539)">
   <g  id="copper0">
    <circle fill="none" cx="151.384"  cy="144" stroke="black" id="connector1pad" r="1.61" stroke-width="0.8113"/>
    <circle fill="none" cx="158.583"  cy="144" stroke="black" id="connector2pad" r="1.61" stroke-width="0.8113"/>
    <circle fill="none" cx="165.786"  cy="144" stroke="black" id="connector3pad" r="1.61" stroke-width="0.8113"/>
    <circle fill="none" cx="172.985"  cy="144" stroke="black" id="connector4pad" r="1.61" stroke-width="0.8113"/>
    <circle fill="none" cx="180.184"  cy="144" stroke="black" id="connector5pad" r="1.61" stroke-width="0.8113"/>
    <circle fill="none" cx="118.263"  cy="7.2" stroke="black" id="connector51pad" r="1.61" stroke-width="0.8113"/>
    <circle fill="none" cx="111.065"  cy="7.2" stroke="black" id="connector52pad" r="1.61" stroke-width="0.8113"/>
    <circle fill="none" cx="103.864"  cy="7.2" stroke="black" id="connector53pad" r="1.61" stroke-width="0.8113"/>
    <circle fill="none" cx="96.664"  cy="7.2" stroke="black" id="connector54pad" r="1.61" stroke-width="0.8113"/>
    <circle fill="none" cx="89.464"  cy="7.2" stroke="black" id="connector55pad" r="1.61" stroke-width="0.8113"/>
    <circle fill="none" cx="82.264"  cy="7.2" stroke="black" id="connector56pad" r="1.61" stroke-width="0.8113"/>
    <circle fill="none" cx="75.064"  cy="7.2" stroke="black" id="connector57pad" r="1.61" stroke-width="0.8113"/>
    <circle fill="none" cx="67.864"  cy="7.2" stroke="black" id="connector58pad" r="1.61" stroke-width="0.8113"/>
    <circle fill="none" cx="60.664"  cy="7.2" stroke="black" id="connector59pad" r="1.61" stroke-width="0.8113"/>
    <circle fill="none" cx="53.463"  cy="7.2" stroke="black" id="connector60pad" r="1.61" stroke-width="0.8113"/>
    <circle fill="none" cx="180.184"  cy="7.2" stroke="black" id="connector61pad" r="1.61" stroke-width="0.8113"/>
    <circle fill="none" cx="172.985"  cy="7.2" stroke="black" id="connector62pad" r="1.61" stroke-width="0.8113"/>
    <circle fill="none" cx="165.786"  cy="7.2" stroke="black" id="connector63pad" r="1.61" stroke-width="0.8113"/>
    <circle fill="none" cx="158.583"  cy="7.2" stroke="black" id="connector64pad" r="1.61" stroke-width="0.8113"/>
    <circle fill="none" cx="151.384"  cy="7.2" stroke="black" id="connector65pad" r="1.61" stroke-width="0.8113"/>
    <circle fill="none" cx="144.184"  cy="7.2" stroke="black" id="connector66pad" r="1.61" stroke-width="0.8113"/>
    <circle fill="none" cx="136.985"  cy="7.2" stroke="black" id="connector67pad" r="1.61" stroke-width="0.8113"/>
    <circle fill="none" cx="129.784"  cy="7.2" stroke="black" id="connector68pad" r="1.61" stroke-width="0.8113"/>
    <circle fill="none" cx="86.584"  cy="144" stroke="black" id="connector84pad" r="1.61" stroke-width="0.8113"/>
    <circle fill="none" cx="79.384"  cy="144" stroke="black" id="connector91pin" r="1.61" stroke-width="0.8113"/>
    <circle fill="none" cx="93.784"  cy="144" stroke="black" id="connector85pad" r="1.61" stroke-width="0.8113"/>
    <circle fill="none" cx="100.985"  cy="144" stroke="black" id="connector86pad" r="1.61" stroke-width="0.8113"/>
    <circle fill="none" cx="108.184"  cy="144" stroke="black" id="connector87pad" r="1.61" stroke-width="0.8113"/>
    <circle fill="none" cx="115.384"  cy="144" stroke="black" id="connector88pad" r="1.61" stroke-width="0.8113"/>
    <circle fill="none" cx="122.583"  cy="144" stroke="black" id="connector89pad" r="1.61" stroke-width="0.8113"/>
    <circle fill="none" cx="129.784"  cy="144" stroke="black" id="connector90pad" r="1.61" stroke-width="0.8113"/>
    <circle fill="none" cx="144.184"  cy="144" stroke="black" id="connector0pad" r="1.61" stroke-width="0.8113"/>
   </g>
  </g>
 </g>
 <g partID="143340">
  <g transform="translate(67.5084,90.588)">
   <g transform="matrix(0,1,-1,0,0,0)">
    <g  id="copper0">
     <rect width="4.27465" x="12.2627" y="6.74929" fill="none"  height="4.27465" stroke="black" id="square" stroke-width="1.44"/>
     <circle fill="none" cx="14.4"  cy="8.8866" stroke="black" id="connector0pin" r="2.13732" stroke-width="1.44"/>
     <circle fill="none" cx="14.4"  cy="23.0599" stroke="black" id="connector1pin" r="2.13732" stroke-width="1.44"/>
    </g>
   </g>
  </g>
 </g>
 <g partID="144930">
  <g transform="translate(101.375,90.5879)">
   <g transform="matrix(0,1,-1,0,0,0)">
    <g  id="copper0">
     <rect width="4.27465" x="12.2627" y="6.74929" fill="none"  height="4.27465" stroke="black" id="square" stroke-width="1.44"/>
     <circle fill="none" cx="14.4"  cy="8.8866" stroke="black" id="connector0pin" r="2.13732" stroke-width="1.44"/>
     <circle fill="none" cx="14.4"  cy="23.0599" stroke="black" id="connector1pin" r="2.13732" stroke-width="1.44"/>
    </g>
   </g>
  </g>
 </g>
 <g partID="145270">
  <g transform="translate(137.696,90.5879)">
   <g transform="matrix(0,1,-1,0,0,0)">
    <g id="copper0">
     <rect width="4.32" x="12.24" y="6.72661" fill="none" height="4.32" stroke="black" id="square" stroke-width="1.44"/>
     <circle fill="none" cx="14.4" cy="8.8866" stroke="black" id="connector0pin" r="2.16" stroke-width="1.44"/>
     <circle fill="none" cx="14.4" cy="23.0599" stroke="black" id="connector1pin" r="2.16" stroke-width="1.44"/>
    </g>
   </g>
  </g>
 </g>
 <g partID="145450">
  <g transform="translate(80.7241,80.5767)">
   <g transform="matrix(0,-1,1,0,0,0)">
    <g id="copper0">
     <rect width="4.32" x="12.24" y="6.72661" fill="none" height="4.32" stroke="black" id="square" stroke-width="1.44"/>
     <circle fill="none" cx="14.4" cy="8.8866" stroke="black" id="connector0pin" r="2.16" stroke-width="1.44"/>
     <circle fill="none" cx="14.4" cy="23.0599" stroke="black" id="connector1pin" r="2.16" stroke-width="1.44"/>
    </g>
   </g>
  </g>
 </g>
 <g partID="145550">
  <g transform="translate(115.399,80.5767)">
   <g transform="matrix(0,-1,1,0,0,0)">
    <g id="copper0">
     <rect width="4.32" x="12.24" y="6.72661" fill="none" height="4.32" stroke="black" id="square" stroke-width="1.44"/>
     <circle fill="none" cx="14.4" cy="8.8866" stroke="black" id="connector0pin" r="2.16" stroke-width="1.44"/>
     <circle fill="none" cx="14.4" cy="23.0599" stroke="black" id="connector1pin" r="2.16" stroke-width="1.44"/>
    </g>
   </g>
  </g>
 </g>
 <g partID="145690">
  <g transform="translate(148.72,80.5767)">
   <g transform="matrix(0,-1,1,0,0,0)">
    <g id="copper0">
     <rect width="4.32" x="12.24" y="6.72661" fill="none" height="4.32" stroke="black" id="square" stroke-width="1.44"/>
     <circle fill="none" cx="14.4" cy="8.8866" stroke="black" id="connector0pin" r="2.16" stroke-width="1.44"/>
     <circle fill="none" cx="14.4" cy="23.0599" stroke="black" id="connector1pin" r="2.16" stroke-width="1.44"/>
    </g>
   </g>
  </g>
 </g>
 <g partID="97870">
  <g transform="translate(14.277,165.107)">
   <g transform="matrix(0,-1,1,0,0,0)">
    <g  id="copper0">
     <rect width="4.176" x="2.952" y="2.952" fill="none"  height="4.176" stroke="black" id="square" stroke-width="1.44"/>
     <circle fill="none" cx="5.04"  cy="5.04" stroke="black" id="connector0pin" r="2.088" stroke-width="1.44"/>
     <circle fill="none" cx="5.04"  cy="19.44" stroke="black" id="connector1pin" r="2.088" stroke-width="1.44"/>
     <circle fill="none" cx="5.04"  cy="33.84" stroke="black" id="connector2pin" r="2.088" stroke-width="1.44"/>
    </g>
   </g>
  </g>
 </g>
 <g partID="141370">
  <g transform="translate(16.8709,1.64722)">
   <g transform="matrix(0,1,-1,0,0,0)">
    <g transform="matrix(-1, 0, 0, 1, 130.83, 0)">
     <g _flipped_="1" id="copper0">
      <text x="65.4149" y="9.81222" fill="black" font-family="OCRA" text-anchor="middle" xmlns:xml="http://www.w3.org/XML/1998/namespace" id="label" xml:space="preserve" stroke-width="0" font-size="10.9025">Luz &amp; Fuerza</text>
     </g>
    </g>
   </g>
  </g>
 </g>
 <g partID="141390">
  <g transform="translate(30.4506,1.88978)">
   <g transform="matrix(0,1,-1,0,0,0)">
    <g transform="matrix(-1, 0, 0, 1, 127.123, 0)">
     <g _flipped_="1" id="copper0">
      <text x="63.5616" y="10.4009" fill="black" font-family="OCRA" text-anchor="middle" xmlns:xml="http://www.w3.org/XML/1998/namespace" id="label" xml:space="preserve" stroke-width="0" font-size="11.5567">frankitropo</text>
     </g>
    </g>
   </g>
  </g>
 </g>
 <g partID="348360">
  <g transform="translate(136.494,106.277)">
   <g transform="matrix(1,0,0,1,0,0)">
    <g transform="matrix(-1, 0, 0, 1, 61.0539, 0)">
     <g _flipped_="1" id="copper0">
      <text x="30.527" y="7.84977" fill="black" font-family="OCRA" text-anchor="middle" xmlns:xml="http://www.w3.org/XML/1998/namespace" id="label" xml:space="preserve" stroke-width="0" font-size="8.72199">REF GND</text>
     </g>
    </g>
   </g>
  </g>
 </g>
 <g partID="142220">
  <g transform="translate(14.0962,166.107)">
   <g transform="matrix(-1, 0, 0, 1, 13.083, 0)">
    <g _flipped_="1" id="copper0">
     <text x="6.54149" y="3.9249" fill="black" font-family="OCRA" text-anchor="middle" xmlns:xml="http://www.w3.org/XML/1998/namespace" id="label" xml:space="preserve" stroke-width="0" font-size="4.36099">pot</text>
    </g>
   </g>
  </g>
 </g>
 <g partID="142200">
  <g transform="translate(206.477,162.336)">
   <g transform="matrix(0,-1,1,0,0,0)">
    <g transform="matrix(-1, 0, 0, 1, 30.527, 0)">
     <g _flipped_="1" id="copper0">
      <text x="15.2635" y="3.9249" fill="black" font-family="OCRA" text-anchor="middle" xmlns:xml="http://www.w3.org/XML/1998/namespace" id="label" xml:space="preserve" stroke-width="0" font-size="4.361">antenna</text>
     </g>
    </g>
   </g>
  </g>
 </g>
 <g partID="142180">
  <g transform="translate(188.289,76.6853)">
   <g transform="matrix(0,-1,1,0,0,0)">
    <g transform="matrix(-1, 0, 0, 1, 34.888, 0)">
     <g _flipped_="1" id="copper0">
      <text x="17.444" y="3.9249" fill="black" font-family="OCRA" text-anchor="middle" xmlns:xml="http://www.w3.org/XML/1998/namespace" id="label" xml:space="preserve" stroke-width="0" font-size="4.36099">receiver</text>
     </g>
    </g>
   </g>
  </g>
 </g>
 <g partID="142130">
  <g transform="translate(62.8036,129.559)">
   <g transform="matrix(-1,0,0,-1,0,0)">
    <g transform="matrix(-1, 0, 0, 1, 21.805, 0)">
     <g _flipped_="1" id="copper0">
      <text x="10.9025" y="3.9249" fill="black" font-family="OCRA" text-anchor="middle" xmlns:xml="http://www.w3.org/XML/1998/namespace" id="label" xml:space="preserve" stroke-width="0" font-size="4.361">11-12</text>
     </g>
    </g>
   </g>
  </g>
 </g>
 <g partID="142110">
  <g transform="translate(94.9427,129.025)">
   <g transform="matrix(-1,0,0,-1,0,0)">
    <g transform="matrix(-1, 0, 0, 1, 17.444, 0)">
     <g _flipped_="1" id="copper0">
      <text x="8.72201" y="3.9249" fill="black" font-family="OCRA" text-anchor="middle" xmlns:xml="http://www.w3.org/XML/1998/namespace" id="label" xml:space="preserve" stroke-width="0" font-size="4.361">9-10</text>
     </g>
    </g>
   </g>
  </g>
 </g>
 <g partID="142090">
  <g transform="translate(137.477,134.118)">
   <g transform="matrix(-1,0,0,-1,0,0)">
    <g transform="matrix(-1, 0, 0, 1, 32.7074, 0)">
     <g _flipped_="1" id="copper0">
      <text x="16.3537" y="9.81222" fill="black" font-family="OCRA" text-anchor="middle" xmlns:xml="http://www.w3.org/XML/1998/namespace" id="label" xml:space="preserve" stroke-width="0" font-size="10.9025">7-8</text>
     </g>
    </g>
   </g>
  </g>
 </g>
 <g partID="142070">
  <g transform="translate(86.75,83.7943)">
   <g transform="matrix(-1, 0, 0, 1, 13.083, 0)">
    <g _flipped_="1" id="copper0">
     <text x="6.54149" y="3.9249" fill="black" font-family="OCRA" text-anchor="middle" xmlns:xml="http://www.w3.org/XML/1998/namespace" id="label" xml:space="preserve" stroke-width="0" font-size="4.36099">5-6</text>
    </g>
   </g>
  </g>
 </g>
 <g partID="142050">
  <g transform="translate(126.05,81.3427)">
   <g transform="matrix(-1, 0, 0, 1, 13.083, 0)">
    <g _flipped_="1" id="copper0">
     <text x="6.54149" y="3.9249" fill="black" font-family="OCRA" text-anchor="middle" xmlns:xml="http://www.w3.org/XML/1998/namespace" id="label" xml:space="preserve" stroke-width="0" font-size="4.36099">3-4</text>
    </g>
   </g>
  </g>
 </g>
 <g partID="325100">
  <g transform="translate(148.382,80.7747)">
   <g transform="matrix(-1, 0, 0, 1, 32.7074, 0)">
    <g _flipped_="1" id="copper0">
     <text x="16.3537" y="9.81222" fill="black" font-family="OCRA" text-anchor="middle" xmlns:xml="http://www.w3.org/XML/1998/namespace" id="label" xml:space="preserve" stroke-width="0" font-size="10.9025">1-2</text>
    </g>
   </g>
  </g>
 </g>
 <g partID="348420">
  <g transform="translate(155.128,150.39)">
   <g transform="matrix(-1,0,0,-1,0,0)">
    <g flipped="1" id="copper0">
     <g transform="matrix(-1, 0, 0, 1, 34.2, 0)">
      <g>
       <g>
        <rect width="3.96" x="0.72" y="1.116" fill="none" height="3.96" stroke="black" stroke-width="1.44"/>
        <circle fill="none" cx="2.7" cy="3.096" stroke="black" r="1.98" id="connector0pin" stroke-width="1.44"/>
        <circle fill="none" cx="31.5" cy="3.096" stroke="black" r="1.98" id="connector1pin" stroke-width="1.44"/>
       </g>
      </g>
     </g>
    </g>
   </g>
  </g>
 </g>
 <g partID="349600">
  <g transform="translate(155.23,149.899)">
   <g transform="matrix(0,-1,1,0,0,0)">
    <g id="copper0">
     <rect width="4.32" x="12.24" y="6.72661" fill="none" height="4.32" stroke="black" id="square" stroke-width="1.44"/>
     <circle fill="none" cx="14.4" cy="8.8866" stroke="black" id="connector0pin" r="2.16" stroke-width="1.44"/>
     <circle fill="none" cx="14.4" cy="23.0599" stroke="black" id="connector1pin" r="2.16" stroke-width="1.44"/>
    </g>
   </g>
  </g>
 </g>
 <g partID="352170">
  <g transform="translate(2.37899,7.13242)">
   <g transform="matrix(-1, 0, 0, 1, 28.8, 0)">
    <g _flipped_="1" id="copper0">
     <text x="14.4" y="6.48" fill="black" font-family="OCRA" text-anchor="middle" xmlns:xml="http://www.w3.org/XML/1998/namespace" id="label" xml:space="preserve" stroke-width="0" font-size="7.2">2013</text>
    </g>
   </g>
  </g>
 </g>
 <g partID="284600">
  <line stroke="black" stroke-linecap="round" y1="27.9582" x1="167.097" y2="59.8619" stroke-width="3.456" x2="166.919"/>
 </g>
 <g partID="284590">
  <line stroke="black" stroke-linecap="round" y1="59.8619" x1="166.919" y2="64.4014" stroke-width="3.456" x2="170.413"/>
 </g>
 <g partID="285970">
  <line stroke="black" stroke-linecap="round" y1="74.7651" x1="114.325" y2="102.748" stroke-width="3.456" x2="114.613"/>
 </g>
 <g partID="285920">
  <line stroke="black" stroke-linecap="round" y1="41.3262" x1="83.9065" y2="74.9715" stroke-width="3.456" x2="83.4365"/>
 </g>
 <g partID="285630">
  <line stroke="black" stroke-linecap="round" y1="74.9715" x1="83.4365" y2="74.7651" stroke-width="3.456" x2="114.325"/>
 </g>
 <g partID="285450">
  <line stroke="black" stroke-linecap="round" y1="27.9578" x1="119.539" y2="41.4517" stroke-width="3.456" x2="119.295"/>
 </g>
 <g partID="285440">
  <line stroke="black" stroke-linecap="round" y1="41.4517" x1="119.295" y2="41.3262" stroke-width="3.456" x2="83.9065"/>
 </g>
 <g partID="285370">
  <line stroke="black" stroke-linecap="round" y1="46.9315" x1="89.801" y2="63.9369" stroke-width="3.456" x2="89.6328"/>
 </g>
 <g partID="285320">
  <line stroke="black" stroke-linecap="round" y1="27.9582" x1="131.123" y2="47.1723" stroke-width="3.456" x2="131.21"/>
 </g>
 <g partID="285310">
  <line stroke="black" stroke-linecap="round" y1="47.1723" x1="131.21" y2="46.9315" stroke-width="3.456" x2="89.801"/>
 </g>
 <g partID="285240">
  <line stroke="black" stroke-linecap="round" y1="51.2931" x1="103.511" y2="51.496" stroke-width="3.456" x2="138.623"/>
 </g>
 <g partID="285190">
  <line stroke="black" stroke-linecap="round" y1="51.496" x1="138.623" y2="27.958" stroke-width="3.456" x2="138.345"/>
 </g>
 <g partID="285150">
  <line stroke="black" stroke-linecap="round" y1="63.9367" x1="103.743" y2="51.2932" stroke-width="3.456" x2="103.511"/>
 </g>
 <g partID="285100">
  <line stroke="black" stroke-linecap="round" y1="55.9675" x1="124.076" y2="55.8117" stroke-width="3.456" x2="145.419"/>
 </g>
 <g partID="285050">
  <line stroke="black" stroke-linecap="round" y1="55.8117" x1="145.419" y2="27.9582" stroke-width="3.456" x2="145.502"/>
 </g>
 <g partID="285010">
  <line stroke="black" stroke-linecap="round" y1="63.9368" x1="124.24" y2="55.967" stroke-width="3.456" x2="124.076"/>
 </g>
 <g partID="284960">
  <line stroke="black" stroke-linecap="round" y1="60.6411" x1="138.564" y2="63.9369" stroke-width="3.456" x2="138.502"/>
 </g>
 <g partID="284910">
  <line stroke="black" stroke-linecap="round" y1="27.9582" x1="152.701" y2="60.4851" stroke-width="3.456" x2="152.586"/>
 </g>
 <g partID="284900">
  <line stroke="black" stroke-linecap="round" y1="60.4851" x1="152.586" y2="60.6409" stroke-width="3.456" x2="138.564"/>
 </g>
 <g partID="284830">
  <line stroke="black" stroke-linecap="round" y1="58.9271" x1="159.752" y2="27.9582" stroke-width="3.456" x2="159.897"/>
 </g>
 <g partID="284790">
  <line stroke="black" stroke-linecap="round" y1="64.0284" x1="158.243" y2="58.9271" stroke-width="3.456" x2="159.752"/>
 </g>
 <g partID="287130">
  <line stroke="black" stroke-linecap="round" y1="11.7027" x1="41.7418" y2="98.7027" stroke-width="3.456" x2="40.9418"/>
 </g>
 <g partID="287000">
  <line stroke="black" stroke-linecap="round" y1="98.7027" x1="40.9418" y2="102.353" stroke-width="3.456" x2="42.9784"/>
 </g>
 <g partID="286900">
  <line stroke="black" stroke-linecap="round" y1="97.2107" x1="46.7828" y2="103.771" stroke-width="3.456" x2="56.7686"/>
 </g>
 <g partID="286850">
  <line stroke="black" stroke-linecap="round" y1="17.6779" x1="47.3258" y2="97.2106" stroke-width="3.456" x2="46.7827"/>
 </g>
 <g partID="286800">
  <line stroke="black" stroke-linecap="round" y1="17.7251" x1="83.4365" y2="17.6776" stroke-width="3.456" x2="47.3258"/>
 </g>
 <g partID="286680">
  <line stroke="black" stroke-linecap="round" y1="111.569" x1="34.8085" y2="111.625" stroke-width="3.456" x2="92.2911"/>
 </g>
 <g partID="286630">
  <line stroke="black" stroke-linecap="round" y1="111.625" x1="92.2911" y2="107.204" stroke-width="3.456" x2="92.4223"/>
 </g>
 <g partID="286580">
  <line stroke="black" stroke-linecap="round" y1="6.50268" x1="98.1418" y2="5.90268" stroke-width="3.456" x2="35.1418"/>
 </g>
 <g partID="286530">
  <line stroke="black" stroke-linecap="round" y1="97.4203" x1="69.3497" y2="103.042" stroke-width="3.456" x2="76.0091"/>
 </g>
 <g partID="286480">
  <line stroke="black" stroke-linecap="round" y1="30.5341" x1="69.7261" y2="97.4203" stroke-width="3.456" x2="69.3497"/>
 </g>
 <g partID="286380">
  <line stroke="black" stroke-linecap="round" y1="27.9564" x1="105.291" y2="30.0321" stroke-width="3.456" x2="105.365"/>
 </g>
 <g partID="286370">
  <line stroke="black" stroke-linecap="round" y1="30.0321" x1="105.365" y2="30.5341" stroke-width="3.456" x2="69.7261"/>
 </g>
 <g partID="286300">
  <line stroke="black" stroke-linecap="round" y1="112.479" x1="125.193" y2="107.726" stroke-width="3.456" x2="127.487"/>
 </g>
 <g partID="286250">
  <line stroke="black" stroke-linecap="round" y1="112.856" x1="106.997" y2="112.479" stroke-width="3.456" x2="125.193"/>
 </g>
 <g partID="286200">
  <line stroke="black" stroke-linecap="round" y1="80.8556" x1="106.871" y2="112.856" stroke-width="3.456" x2="106.997"/>
 </g>
 <g partID="286150">
  <line stroke="black" stroke-linecap="round" y1="81.1066" x1="77.2555" y2="80.8556" stroke-width="3.456" x2="106.871"/>
 </g>
 <g partID="286100">
  <line stroke="black" stroke-linecap="round" y1="36.0556" x1="77.632" y2="81.1066" stroke-width="3.456" x2="77.2555"/>
 </g>
 <g partID="286050">
  <line stroke="black" stroke-linecap="round" y1="27.9575" x1="112.457" y2="35.9301" stroke-width="3.456" x2="112.644"/>
 </g>
 <g partID="286040">
  <line stroke="black" stroke-linecap="round" y1="35.9301" x1="112.644" y2="36.0556" stroke-width="3.456" x2="77.632"/>
 </g>
 <g partID="285850">
  <line stroke="black" stroke-linecap="round" y1="22.3505" x1="90.866" y2="12.1027" stroke-width="3.456" x2="91.1418"/>
 </g>
 <g partID="285840">
  <line stroke="black" stroke-linecap="round" y1="12.1027" x1="91.1418" y2="11.7027" stroke-width="3.456" x2="41.7418"/>
 </g>
 <g partID="285700">
  <line stroke="black" stroke-linecap="round" y1="22.3501" x1="83.5324" y2="17.7251" stroke-width="3.456" x2="83.4365"/>
 </g>
 <g partID="285580">
  <line stroke="black" stroke-linecap="round" y1="22.3496" x1="98.0133" y2="6.50268" stroke-width="3.456" x2="98.1418"/>
 </g>
 <g partID="285570">
  <line stroke="black" stroke-linecap="round" y1="5.90268" x1="35.1418" y2="111.569" stroke-width="3.456" x2="34.8085"/>
 </g>
 <g partID="288670">
  <line stroke="black" stroke-linecap="round" y1="130.503" x1="200.841" y2="131.767" stroke-width="3.456" x2="200.841"/>
 </g>
 <g partID="345090">
  <line stroke="black" stroke-linecap="round" y1="176.309" x1="125.768" y2="163.603" stroke-width="3.456" x2="143.242"/>
 </g>
 <g partID="345120">
  <line stroke="black" stroke-linecap="round" y1="175.69" x1="46.0773" y2="176.309" stroke-width="3.456" x2="125.768"/>
 </g>
 <g partID="345070">
  <line stroke="black" stroke-linecap="round" y1="162.394" x1="35.5585" y2="175.69" stroke-width="3.456" x2="46.0773"/>
 </g>
 <g partID="345170">
  <line stroke="black" stroke-linecap="round" y1="170.116" x1="116.684" y2="164.758" stroke-width="3.456" x2="116.701"/>
 </g>
 <g partID="345790">
  <line stroke="black" stroke-linecap="round" y1="169.909" x1="54.7483" y2="170.116" stroke-width="3.456" x2="116.684"/>
 </g>
 <g partID="345180">
  <line stroke="black" stroke-linecap="round" y1="162.528" x1="49.7754" y2="169.909" stroke-width="3.456" x2="54.7483"/>
 </g>
 <g partID="345740">
  <line stroke="black" stroke-linecap="round" y1="151.328" x1="25.2257" y2="151.741" stroke-width="3.456" x2="104.71"/>
 </g>
 <g partID="345710">
  <line stroke="black" stroke-linecap="round" y1="151.741" x1="104.71" y2="159.416" stroke-width="3.456" x2="108.317"/>
 </g>
 <g partID="345250">
  <line stroke="black" stroke-linecap="round" y1="157.608" x1="20.9795" y2="151.328" stroke-width="3.456" x2="25.2257"/>
 </g>
 <g partID="345370">
  <line stroke="black" stroke-linecap="round" y1="50.4894" x1="200.841" y2="118.167" stroke-width="3.456" x2="200.841"/>
 </g>
 <g partID="348170">
  <line stroke="black" stroke-linecap="round" y1="136.576" x1="151.079" y2="136.766" stroke-width="3.456" x2="116.2"/>
 </g>
 <g partID="348150">
  <line stroke="black" stroke-linecap="round" y1="136.766" x1="116.2" y2="159.243" stroke-width="3.456" x2="110.23"/>
 </g>
 <g partID="347480">
  <line stroke="black" stroke-linecap="round" y1="120.345" x1="197.873" y2="120.503" stroke-width="3.456" x2="151.342"/>
 </g>
 <g partID="347500">
  <line stroke="black" stroke-linecap="round" y1="120.503" x1="151.342" y2="136.576" stroke-width="3.456" x2="151.079"/>
 </g>
 <g partID="348270">
  <line stroke="black" stroke-linecap="round" y1="26.9027" x1="208.942" y2="127.303" stroke-width="3.456" x2="208.142"/>
 </g>
 <g partID="347870">
  <line stroke="black" stroke-linecap="round" y1="26.785" x1="203.812" y2="26.9027" stroke-width="3.456" x2="208.942"/>
 </g>
 <g partID="348200">
  <line stroke="black" stroke-linecap="round" y1="127.303" x1="208.142" y2="127.44" stroke-width="3.456" x2="203.808"/>
 </g>
 <g partID="348330">
  <line stroke="black" stroke-linecap="round" y1="33.7027" x1="174.142" y2="33.8932" stroke-width="3.456" x2="197.877"/>
 </g>
 <g partID="348310">
  <line stroke="black" stroke-linecap="round" y1="27.9577" x1="174.256" y2="33.7027" stroke-width="3.456" x2="174.142"/>
 </g>
 <g partID="351810">
  <line stroke="black" stroke-linecap="round" y1="150.153" x1="123.683" y2="159.15" stroke-width="3.456" x2="123.856"/>
 </g>
 <g partID="352010">
  <line stroke="black" stroke-linecap="round" y1="139.054" x1="164.119" y2="145.646" stroke-width="3.456" x2="154.765"/>
 </g>
 <g partID="351910">
  <line stroke="black" stroke-linecap="round" y1="132.779" x1="164.118" y2="139.054" stroke-width="3.456" x2="164.119"/>
 </g>
 <g partID="352060">
  <line stroke="black" stroke-linecap="round" y1="154.31" x1="130.476" y2="149.341" stroke-width="3.456" x2="125.625"/>
 </g>
 <g partID="352090">
  <line stroke="black" stroke-linecap="round" y1="154.571" x1="185.635" y2="154.31" stroke-width="3.456" x2="130.476"/>
 </g>
 <g partID="351970">
  <line stroke="black" stroke-linecap="round" y1="137.09" x1="199.036" y2="154.571" stroke-width="3.456" x2="185.635"/>
 </g>
 <g partID="352120">
  <line stroke="black" stroke-linecap="round" y1="129.739" x1="166.357" y2="129.739" stroke-width="1.728" x2="176.05"/>
 </g>
</svg>
