<?xml version='1.0' encoding='UTF-8' standalone='no'?>
<!-- Created with Fritzing (http://www.fritzing.org/) -->
<svg xmlns="http://www.w3.org/2000/svg" width="3.03035in" x="0in" version="1.2" y="0in"  height="2.54984in" viewBox="0 0 218.185 183.588" baseProfile="tiny" xmlns:svg="http://www.w3.org/2000/svg">
 <g partID="175461">
  <g id="silkscreen0">
   <rect width="217.609" x="0.288" y="0.288" fill="none" height="183.012" stroke="black" stroke-width="0.576"/>
  </g>
 </g>
 <g partID="175460">
  <g id="board">
   <rect width="217.609" x="0.288" y="0.288" fill="none" height="183.012" stroke="black" fill-opacity="0.5" id="boardoutline" stroke-width="0.5"/>
  </g>
 </g>
 <g partID="175461">
  <g id="silkscreen0">
   <rect width="217.609" x="0.288" y="0.288" fill="none" height="183.012" stroke="black" stroke-width="0.576"/>
  </g>
 </g>
 <g partID="352220">
  <g transform="translate(197.768,154.169)">
   <g id="copper0">
    <circle fill="white" cx="4.31559" cy="4.31559" stroke="white" r="1.99559" id="connector0pin" stroke-width="2.16"/>
   </g>
  </g>
 </g>
 <g partID="352570">
  <g transform="translate(122.271,139.926)">
   <g id="copper0">
    <g id="copper1">
     <rect width="3.96" x="0.72" y="1.116" fill="white" height="3.96" stroke="white" stroke-width="2.16"/>
     <circle fill="white" cx="2.7" cy="3.096" stroke="white" r="1.98" id="connector0pin" stroke-width="2.16"/>
     <circle fill="white" cx="31.5" cy="3.096" stroke="white" r="1.98" id="connector1pin" stroke-width="2.16"/>
    </g>
   </g>
  </g>
 </g>
 <g partID="358920">
  <g transform="translate(187.804,113.655)">
   <g transform="matrix(-2.22045e-16,1,-1,-2.22045e-16,0,0)">
    <g id="copper0">
     <rect width="4.32" x="12.24" y="6.72661" fill="white" height="4.32" stroke="white" id="square" stroke-width="2.16"/>
     <circle fill="white" cx="14.4" cy="8.8866" stroke="white" id="connector0pin" r="2.16" stroke-width="2.16"/>
     <circle fill="white" cx="14.4" cy="23.0599" stroke="white" id="connector1pin" r="2.16" stroke-width="2.16"/>
    </g>
   </g>
  </g>
 </g>
 <g partID="94630">
  <g transform="translate(206.152,21.073)">
   <g transform="matrix(0,1,-1,0,0,0)">
    <g transform="matrix(0, -1, 1, 0, 0, 7.92)">
     <g id="copper0">
      <g gorn="0.6.0.0">
       <g gorn="0.6.0.0.0" id="copper1">
        <circle fill="white" cx="3.96" gorn="0.6.0.0.0.0" cy="3.96" stroke="white" r="1.764" id="connector0pin" stroke-width="1.512"/>
        <circle fill="white" cx="3.96" gorn="0.6.0.0.0.1" cy="11.16" stroke="white" r="1.764" id="connector1pin" stroke-width="1.512"/>
        <circle fill="white" cx="3.96" gorn="0.6.0.0.0.2" cy="18.36" stroke="white" r="1.764" id="connector2pin" stroke-width="1.512"/>
        <g transform="matrix(1, 0, 0, 1, -0.00392136, 7.20444)">
         <g>
          <g>
           <circle fill="white" cx="3.96" gorn="0.6.0.0.0.3.0.0" cy="18.36" stroke="white" r="1.764" id="connector4pin" stroke-width="1.512"/>
          </g>
         </g>
        </g>
        <g transform="matrix(1, 0, 0, 1, -0.00323675, 93.6177)">
         <g>
          <g>
           <circle fill="white" cx="3.96" gorn="0.6.0.0.0.4.0.0" cy="3.96" stroke="white" r="1.764" id="connector5pin" stroke-width="1.512"/>
          </g>
         </g>
        </g>
        <g transform="matrix(1, 0, 0, 1, -0.00323675, 93.6177)">
         <g>
          <g>
           <circle fill="white" cx="3.96" gorn="0.6.0.0.0.5.0.0" cy="11.16" stroke="white" r="1.764" id="connector6pin" stroke-width="1.512"/>
          </g>
         </g>
        </g>
        <g transform="matrix(1, 0, 0, 1, -0.00323675, 93.6177)">
         <g>
          <g>
           <circle fill="white" cx="3.96" gorn="0.6.0.0.0.6.0.0" cy="18.36" stroke="white" r="1.764" id="connector7pin" stroke-width="1.512"/>
          </g>
         </g>
        </g>
        <g transform="matrix(1, 0, 0, 1, -0.00715812, 100.822)">
         <g>
          <g>
           <circle fill="white" cx="3.96" gorn="0.6.0.0.0.7.0.0" cy="18.36" stroke="white" r="1.764" id="connector8pin" stroke-width="1.512"/>
          </g>
         </g>
        </g>
       </g>
      </g>
     </g>
    </g>
   </g>
  </g>
 </g>
 <g partID="94780">
  <g transform="translate(2.67344,14.7184)">
   <g id="copper0">
    <circle fill="white" cx="151.384" cy="144" stroke="white" id="connector1pad" r="1.61" stroke-width="1.5313"/>
    <circle fill="white" cx="158.583" cy="144" stroke="white" id="connector2pad" r="1.61" stroke-width="1.5313"/>
    <circle fill="white" cx="165.786" cy="144" stroke="white" id="connector3pad" r="1.61" stroke-width="1.5313"/>
    <circle fill="white" cx="172.985" cy="144" stroke="white" id="connector4pad" r="1.61" stroke-width="1.5313"/>
    <circle fill="white" cx="180.184" cy="144" stroke="white" id="connector5pad" r="1.61" stroke-width="1.5313"/>
    <circle fill="white" cx="118.263" cy="7.2" stroke="white" id="connector51pad" r="1.61" stroke-width="1.5313"/>
    <circle fill="white" cx="111.065" cy="7.2" stroke="white" id="connector52pad" r="1.61" stroke-width="1.5313"/>
    <circle fill="white" cx="103.864" cy="7.2" stroke="white" id="connector53pad" r="1.61" stroke-width="1.5313"/>
    <circle fill="white" cx="96.664" cy="7.2" stroke="white" id="connector54pad" r="1.61" stroke-width="1.5313"/>
    <circle fill="white" cx="89.464" cy="7.2" stroke="white" id="connector55pad" r="1.61" stroke-width="1.5313"/>
    <circle fill="white" cx="82.264" cy="7.2" stroke="white" id="connector56pad" r="1.61" stroke-width="1.5313"/>
    <circle fill="white" cx="75.064" cy="7.2" stroke="white" id="connector57pad" r="1.61" stroke-width="1.5313"/>
    <circle fill="white" cx="67.864" cy="7.2" stroke="white" id="connector58pad" r="1.61" stroke-width="1.5313"/>
    <circle fill="white" cx="60.664" cy="7.2" stroke="white" id="connector59pad" r="1.61" stroke-width="1.5313"/>
    <circle fill="white" cx="53.463" cy="7.2" stroke="white" id="connector60pad" r="1.61" stroke-width="1.5313"/>
    <circle fill="white" cx="180.184" cy="7.2" stroke="white" id="connector61pad" r="1.61" stroke-width="1.5313"/>
    <circle fill="white" cx="172.985" cy="7.2" stroke="white" id="connector62pad" r="1.61" stroke-width="1.5313"/>
    <circle fill="white" cx="165.786" cy="7.2" stroke="white" id="connector63pad" r="1.61" stroke-width="1.5313"/>
    <circle fill="white" cx="158.583" cy="7.2" stroke="white" id="connector64pad" r="1.61" stroke-width="1.5313"/>
    <circle fill="white" cx="151.384" cy="7.2" stroke="white" id="connector65pad" r="1.61" stroke-width="1.5313"/>
    <circle fill="white" cx="144.184" cy="7.2" stroke="white" id="connector66pad" r="1.61" stroke-width="1.5313"/>
    <circle fill="white" cx="136.985" cy="7.2" stroke="white" id="connector67pad" r="1.61" stroke-width="1.5313"/>
    <circle fill="white" cx="129.784" cy="7.2" stroke="white" id="connector68pad" r="1.61" stroke-width="1.5313"/>
    <circle fill="white" cx="86.584" cy="144" stroke="white" id="connector84pad" r="1.61" stroke-width="1.5313"/>
    <circle fill="white" cx="79.384" cy="144" stroke="white" id="connector91pin" r="1.61" stroke-width="1.5313"/>
    <circle fill="white" cx="93.784" cy="144" stroke="white" id="connector85pad" r="1.61" stroke-width="1.5313"/>
    <circle fill="white" cx="100.985" cy="144" stroke="white" id="connector86pad" r="1.61" stroke-width="1.5313"/>
    <circle fill="white" cx="108.184" cy="144" stroke="white" id="connector87pad" r="1.61" stroke-width="1.5313"/>
    <circle fill="white" cx="115.384" cy="144" stroke="white" id="connector88pad" r="1.61" stroke-width="1.5313"/>
    <circle fill="white" cx="122.583" cy="144" stroke="white" id="connector89pad" r="1.61" stroke-width="1.5313"/>
    <circle fill="white" cx="129.784" cy="144" stroke="white" id="connector90pad" r="1.61" stroke-width="1.5313"/>
    <circle fill="white" cx="144.184" cy="144" stroke="white" id="connector0pad" r="1.61" stroke-width="1.5313"/>
   </g>
  </g>
 </g>
 <g partID="143340">
  <g transform="translate(68.8554,88.9037)">
   <g transform="matrix(0,1,-1,0,0,0)">
    <g id="copper0">
     <rect width="4.27465" x="12.2627" y="6.74929" fill="white" height="4.27465" stroke="white" id="square" stroke-width="2.16"/>
     <circle fill="white" cx="14.4" cy="8.8866" stroke="white" id="connector0pin" r="2.13732" stroke-width="2.16"/>
     <circle fill="white" cx="14.4" cy="23.0599" stroke="white" id="connector1pin" r="2.13732" stroke-width="2.16"/>
    </g>
   </g>
  </g>
 </g>
 <g partID="144930">
  <g transform="translate(102.722,88.9036)">
   <g transform="matrix(0,1,-1,0,0,0)">
    <g id="copper0">
     <rect width="4.27465" x="12.2627" y="6.74929" fill="white" height="4.27465" stroke="white" id="square" stroke-width="2.16"/>
     <circle fill="white" cx="14.4" cy="8.8866" stroke="white" id="connector0pin" r="2.13732" stroke-width="2.16"/>
     <circle fill="white" cx="14.4" cy="23.0599" stroke="white" id="connector1pin" r="2.13732" stroke-width="2.16"/>
    </g>
   </g>
  </g>
 </g>
 <g partID="145270">
  <g transform="translate(139.043,88.9036)">
   <g transform="matrix(0,1,-1,0,0,0)">
    <g id="copper0">
     <rect width="4.32" x="12.24" y="6.72661" fill="white" height="4.32" stroke="white" id="square" stroke-width="2.16"/>
     <circle fill="white" cx="14.4" cy="8.8866" stroke="white" id="connector0pin" r="2.16" stroke-width="2.16"/>
     <circle fill="white" cx="14.4" cy="23.0599" stroke="white" id="connector1pin" r="2.16" stroke-width="2.16"/>
    </g>
   </g>
  </g>
 </g>
 <g partID="145450">
  <g transform="translate(82.0711,78.8924)">
   <g transform="matrix(0,-1,1,0,0,0)">
    <g id="copper0">
     <rect width="4.32" x="12.24" y="6.72661" fill="white" height="4.32" stroke="white" id="square" stroke-width="2.16"/>
     <circle fill="white" cx="14.4" cy="8.8866" stroke="white" id="connector0pin" r="2.16" stroke-width="2.16"/>
     <circle fill="white" cx="14.4" cy="23.0599" stroke="white" id="connector1pin" r="2.16" stroke-width="2.16"/>
    </g>
   </g>
  </g>
 </g>
 <g partID="145550">
  <g transform="translate(116.746,78.8924)">
   <g transform="matrix(0,-1,1,0,0,0)">
    <g id="copper0">
     <rect width="4.32" x="12.24" y="6.72661" fill="white" height="4.32" stroke="white" id="square" stroke-width="2.16"/>
     <circle fill="white" cx="14.4" cy="8.8866" stroke="white" id="connector0pin" r="2.16" stroke-width="2.16"/>
     <circle fill="white" cx="14.4" cy="23.0599" stroke="white" id="connector1pin" r="2.16" stroke-width="2.16"/>
    </g>
   </g>
  </g>
 </g>
 <g partID="145690">
  <g transform="translate(150.067,78.8924)">
   <g transform="matrix(0,-1,1,0,0,0)">
    <g id="copper0">
     <rect width="4.32" x="12.24" y="6.72661" fill="white" height="4.32" stroke="white" id="square" stroke-width="2.16"/>
     <circle fill="white" cx="14.4" cy="8.8866" stroke="white" id="connector0pin" r="2.16" stroke-width="2.16"/>
     <circle fill="white" cx="14.4" cy="23.0599" stroke="white" id="connector1pin" r="2.16" stroke-width="2.16"/>
    </g>
   </g>
  </g>
 </g>
 <g partID="97870">
  <g transform="translate(15.624,163.422)">
   <g transform="matrix(0,-1,1,0,0,0)">
    <g id="copper0">
     <rect width="4.176" x="2.952" y="2.952" fill="white" height="4.176" stroke="white" id="square" stroke-width="2.16"/>
     <circle fill="white" cx="5.04" cy="5.04" stroke="white" id="connector0pin" r="2.088" stroke-width="2.16"/>
     <circle fill="white" cx="5.04" cy="19.44" stroke="white" id="connector1pin" r="2.088" stroke-width="2.16"/>
     <circle fill="white" cx="5.04" cy="33.84" stroke="white" id="connector2pin" r="2.088" stroke-width="2.16"/>
    </g>
   </g>
  </g>
 </g>
</svg>
