<?xml version='1.0' encoding='UTF-8' standalone='no'?>
<!-- Created with Fritzing (http://www.fritzing.org/) -->
<svg xmlns="http://www.w3.org/2000/svg" width="2.77969in" x="0in" version="1.2" y="0in"  height="2.4554in" viewBox="0 0 200.138 176.789" baseProfile="tiny" xmlns:svg="http://www.w3.org/2000/svg">
 <g partID="175460">
  <g id="board">
   <rect width="199.562" x="0.288" y="0.288" fill="none" height="176.213" stroke="black" fill-opacity="0.5" id="boardoutline" stroke-width="0.5"/>
  </g>
 </g>
 <g partID="94631">
  <g transform="translate(184.671,139.964)">
   <g transform="matrix(-1,0,0,-1,0,0)">
    <g transform="matrix(0, -1, 1, 0, 0, 7.92)">
     <g id="copper1">
      <g gorn="0.6.0.0.0">
       <circle fill="none" cx="3.96" gorn="0.6.0.0.0.0" cy="3.96" stroke="black" r="1.764" id="connector0pin" stroke-width="0.792"/>
       <circle fill="none" cx="3.96" gorn="0.6.0.0.0.1" cy="11.16" stroke="black" r="1.764" id="connector1pin" stroke-width="0.792"/>
       <circle fill="none" cx="3.96" gorn="0.6.0.0.0.2" cy="18.36" stroke="black" r="1.764" id="connector2pin" stroke-width="0.792"/>
       <g transform="matrix(1, 0, 0, 1, -0.00392136, 7.20444)">
        <g>
         <g>
          <circle fill="none" cx="3.96" gorn="0.6.0.0.0.3.0.0" cy="18.36" stroke="black" r="1.764" id="connector4pin" stroke-width="0.792"/>
         </g>
        </g>
       </g>
       <g transform="matrix(1, 0, 0, 1, -0.00323675, 93.6177)">
        <g>
         <g>
          <circle fill="none" cx="3.96" gorn="0.6.0.0.0.4.0.0" cy="3.96" stroke="black" r="1.764" id="connector5pin" stroke-width="0.792"/>
         </g>
        </g>
       </g>
       <g transform="matrix(1, 0, 0, 1, -0.00323675, 93.6177)">
        <g>
         <g>
          <circle fill="none" cx="3.96" gorn="0.6.0.0.0.5.0.0" cy="11.16" stroke="black" r="1.764" id="connector6pin" stroke-width="0.792"/>
         </g>
        </g>
       </g>
       <g transform="matrix(1, 0, 0, 1, -0.00323675, 93.6177)">
        <g>
         <g>
          <circle fill="none" cx="3.96" gorn="0.6.0.0.0.6.0.0" cy="18.36" stroke="black" r="1.764" id="connector7pin" stroke-width="0.792"/>
         </g>
        </g>
       </g>
       <g transform="matrix(1, 0, 0, 1, -0.00715812, 100.822)">
        <g>
         <g>
          <circle fill="none" cx="3.96" gorn="0.6.0.0.0.7.0.0" cy="18.36" stroke="black" r="1.764" id="connector8pin" stroke-width="0.792"/>
         </g>
        </g>
       </g>
      </g>
     </g>
    </g>
   </g>
  </g>
 </g>
 <g partID="94781">
  <g transform="translate(0.57352,16.448)">
   <g  id="copper1">
    <g  id="copper0">
     <circle fill="none" cx="151.384"  cy="144" stroke="black" id="connector1pad" r="1.61" stroke-width="0.8113"/>
     <circle fill="none" cx="158.583"  cy="144" stroke="black" id="connector2pad" r="1.61" stroke-width="0.8113"/>
     <circle fill="none" cx="165.786"  cy="144" stroke="black" id="connector3pad" r="1.61" stroke-width="0.8113"/>
     <circle fill="none" cx="172.985"  cy="144" stroke="black" id="connector4pad" r="1.61" stroke-width="0.8113"/>
     <circle fill="none" cx="180.184"  cy="144" stroke="black" id="connector5pad" r="1.61" stroke-width="0.8113"/>
     <circle fill="none" cx="118.263"  cy="7.2" stroke="black" id="connector51pad" r="1.61" stroke-width="0.8113"/>
     <circle fill="none" cx="111.065"  cy="7.2" stroke="black" id="connector52pad" r="1.61" stroke-width="0.8113"/>
     <circle fill="none" cx="103.864"  cy="7.2" stroke="black" id="connector53pad" r="1.61" stroke-width="0.8113"/>
     <circle fill="none" cx="96.664"  cy="7.2" stroke="black" id="connector54pad" r="1.61" stroke-width="0.8113"/>
     <circle fill="none" cx="89.464"  cy="7.2" stroke="black" id="connector55pad" r="1.61" stroke-width="0.8113"/>
     <circle fill="none" cx="82.264"  cy="7.2" stroke="black" id="connector56pad" r="1.61" stroke-width="0.8113"/>
     <circle fill="none" cx="75.064"  cy="7.2" stroke="black" id="connector57pad" r="1.61" stroke-width="0.8113"/>
     <circle fill="none" cx="67.864"  cy="7.2" stroke="black" id="connector58pad" r="1.61" stroke-width="0.8113"/>
     <circle fill="none" cx="60.664"  cy="7.2" stroke="black" id="connector59pad" r="1.61" stroke-width="0.8113"/>
     <circle fill="none" cx="53.463"  cy="7.2" stroke="black" id="connector60pad" r="1.61" stroke-width="0.8113"/>
     <circle fill="none" cx="180.184"  cy="7.2" stroke="black" id="connector61pad" r="1.61" stroke-width="0.8113"/>
     <circle fill="none" cx="172.985"  cy="7.2" stroke="black" id="connector62pad" r="1.61" stroke-width="0.8113"/>
     <circle fill="none" cx="165.786"  cy="7.2" stroke="black" id="connector63pad" r="1.61" stroke-width="0.8113"/>
     <circle fill="none" cx="158.583"  cy="7.2" stroke="black" id="connector64pad" r="1.61" stroke-width="0.8113"/>
     <circle fill="none" cx="151.384"  cy="7.2" stroke="black" id="connector65pad" r="1.61" stroke-width="0.8113"/>
     <circle fill="none" cx="144.184"  cy="7.2" stroke="black" id="connector66pad" r="1.61" stroke-width="0.8113"/>
     <circle fill="none" cx="136.985"  cy="7.2" stroke="black" id="connector67pad" r="1.61" stroke-width="0.8113"/>
     <circle fill="none" cx="129.784"  cy="7.2" stroke="black" id="connector68pad" r="1.61" stroke-width="0.8113"/>
     <circle fill="none" cx="86.584"  cy="144" stroke="black" id="connector84pad" r="1.61" stroke-width="0.8113"/>
     <circle fill="none" cx="79.384"  cy="144" stroke="black" id="connector91pin" r="1.61" stroke-width="0.8113"/>
     <circle fill="none" cx="93.784"  cy="144" stroke="black" id="connector85pad" r="1.61" stroke-width="0.8113"/>
     <circle fill="none" cx="100.985"  cy="144" stroke="black" id="connector86pad" r="1.61" stroke-width="0.8113"/>
     <circle fill="none" cx="108.184"  cy="144" stroke="black" id="connector87pad" r="1.61" stroke-width="0.8113"/>
     <circle fill="none" cx="115.384"  cy="144" stroke="black" id="connector88pad" r="1.61" stroke-width="0.8113"/>
     <circle fill="none" cx="122.583"  cy="144" stroke="black" id="connector89pad" r="1.61" stroke-width="0.8113"/>
     <circle fill="none" cx="129.784"  cy="144" stroke="black" id="connector90pad" r="1.61" stroke-width="0.8113"/>
     <circle fill="none" cx="144.184"  cy="144" stroke="black" id="connector0pad" r="1.61" stroke-width="0.8113"/>
    </g>
   </g>
  </g>
 </g>
 <g partID="143341">
  <g transform="translate(66.7554,89.0821)">
   <g transform="matrix(0,1,-1,0,0,0)">
    <g  id="copper1">
     <g  id="copper0">
      <rect width="4.27465" x="12.2627" y="6.74929" fill="none"  height="4.27465" stroke="black" id="square" stroke-width="1.44"/>
      <circle fill="none" cx="14.4"  cy="8.8866" stroke="black" id="connector0pin" r="2.13732" stroke-width="1.44"/>
      <circle fill="none" cx="14.4"  cy="23.0599" stroke="black" id="connector1pin" r="2.13732" stroke-width="1.44"/>
     </g>
    </g>
   </g>
  </g>
 </g>
 <g partID="144931">
  <g transform="translate(100.622,89.082)">
   <g transform="matrix(0,1,-1,0,0,0)">
    <g  id="copper1">
     <g  id="copper0">
      <rect width="4.27465" x="12.2627" y="6.74929" fill="none"  height="4.27465" stroke="black" id="square" stroke-width="1.44"/>
      <circle fill="none" cx="14.4"  cy="8.8866" stroke="black" id="connector0pin" r="2.13732" stroke-width="1.44"/>
      <circle fill="none" cx="14.4"  cy="23.0599" stroke="black" id="connector1pin" r="2.13732" stroke-width="1.44"/>
     </g>
    </g>
   </g>
  </g>
 </g>
 <g partID="145271">
  <g transform="translate(136.943,89.082)">
   <g transform="matrix(0,1,-1,0,0,0)">
    <g id="copper1">
     <g id="copper0">
      <rect width="4.32" x="12.24" y="6.72661" fill="none" height="4.32" stroke="black" id="square" stroke-width="1.44"/>
      <circle fill="none" cx="14.4" cy="8.8866" stroke="black" id="connector0pin" r="2.16" stroke-width="1.44"/>
      <circle fill="none" cx="14.4" cy="23.0599" stroke="black" id="connector1pin" r="2.16" stroke-width="1.44"/>
     </g>
    </g>
   </g>
  </g>
 </g>
 <g partID="145451">
  <g transform="translate(79.9711,79.0708)">
   <g transform="matrix(0,-1,1,0,0,0)">
    <g id="copper1">
     <g id="copper0">
      <rect width="4.32" x="12.24" y="6.72661" fill="none" height="4.32" stroke="black" id="square" stroke-width="1.44"/>
      <circle fill="none" cx="14.4" cy="8.8866" stroke="black" id="connector0pin" r="2.16" stroke-width="1.44"/>
      <circle fill="none" cx="14.4" cy="23.0599" stroke="black" id="connector1pin" r="2.16" stroke-width="1.44"/>
     </g>
    </g>
   </g>
  </g>
 </g>
 <g partID="145551">
  <g transform="translate(114.647,79.0708)">
   <g transform="matrix(0,-1,1,0,0,0)">
    <g id="copper1">
     <g id="copper0">
      <rect width="4.32" x="12.24" y="6.72661" fill="none" height="4.32" stroke="black" id="square" stroke-width="1.44"/>
      <circle fill="none" cx="14.4" cy="8.8866" stroke="black" id="connector0pin" r="2.16" stroke-width="1.44"/>
      <circle fill="none" cx="14.4" cy="23.0599" stroke="black" id="connector1pin" r="2.16" stroke-width="1.44"/>
     </g>
    </g>
   </g>
  </g>
 </g>
 <g partID="145691">
  <g transform="translate(147.967,79.0708)">
   <g transform="matrix(0,-1,1,0,0,0)">
    <g id="copper1">
     <g id="copper0">
      <rect width="4.32" x="12.24" y="6.72661" fill="none" height="4.32" stroke="black" id="square" stroke-width="1.44"/>
      <circle fill="none" cx="14.4" cy="8.8866" stroke="black" id="connector0pin" r="2.16" stroke-width="1.44"/>
      <circle fill="none" cx="14.4" cy="23.0599" stroke="black" id="connector1pin" r="2.16" stroke-width="1.44"/>
     </g>
    </g>
   </g>
  </g>
 </g>
 <g partID="97871">
  <g transform="translate(13.5241,163.601)">
   <g transform="matrix(0,-1,1,0,0,0)">
    <g  id="copper1">
     <g  id="copper0">
      <rect width="4.176" x="2.952" y="2.952" fill="none"  height="4.176" stroke="black" id="square" stroke-width="1.44"/>
      <circle fill="none" cx="5.04"  cy="5.04" stroke="black" id="connector0pin" r="2.088" stroke-width="1.44"/>
      <circle fill="none" cx="5.04"  cy="19.44" stroke="black" id="connector1pin" r="2.088" stroke-width="1.44"/>
      <circle fill="none" cx="5.04"  cy="33.84" stroke="black" id="connector2pin" r="2.088" stroke-width="1.44"/>
     </g>
    </g>
   </g>
  </g>
 </g>
</svg>
