<?xml version='1.0' encoding='UTF-8' standalone='no'?>
<!-- Created with Fritzing (http://www.fritzing.org/) -->
<svg xmlns="http://www.w3.org/2000/svg" width="3.03035in" x="0in" version="1.2" y="0in"  height="2.54984in" viewBox="0 0 218.185 183.588" baseProfile="tiny" xmlns:svg="http://www.w3.org/2000/svg">
 <g partID="175460">
  <g id="board">
   <rect width="217.609" x="0.288" y="0.288" fill="none" height="183.012" stroke="black" fill-opacity="0.5" id="boardoutline" stroke-width="0.5"/>
  </g>
 </g>
 <g partID="352220">
  <g transform="translate(197.768,154.169)">
   <g  id="copper0">
    <circle fill="none" cx="4.31559"  cy="4.31559" stroke="black" r="1.99559" id="connector0pin" stroke-width="1.44"/>
   </g>
  </g>
 </g>
 <g partID="325100">
  <g transform="translate(149.729,79.0904)">
   <g transform="matrix(-1, 0, 0, 1, 32.7074, 0)">
    <g _flipped_="1" id="copper0">
     <text x="16.3537" y="9.81222" fill="black" font-family="OCRA" text-anchor="middle" xmlns:xml="http://www.w3.org/XML/1998/namespace" id="label" xml:space="preserve" stroke-width="0" font-size="10.9025">1-2</text>
    </g>
   </g>
  </g>
 </g>
 <g partID="352570">
  <g transform="translate(122.271,139.926)">
   <g  id="copper0">
    <g  id="copper1">
     <rect width="3.96" x="0.72" y="1.116" fill="none"  height="3.96" stroke="black" stroke-width="1.44"/>
     <circle fill="none" cx="2.7"  cy="3.096" stroke="black" r="1.98" id="connector0pin" stroke-width="1.44"/>
     <circle fill="none" cx="31.5"  cy="3.096" stroke="black" r="1.98" id="connector1pin" stroke-width="1.44"/>
    </g>
   </g>
  </g>
 </g>
 <g partID="358920">
  <g transform="translate(187.804,113.655)">
   <g transform="matrix(-2.22045e-16,1,-1,-2.22045e-16,0,0)">
    <g id="copper0">
     <rect width="4.32" x="12.24" y="6.72661" fill="none" height="4.32" stroke="black" id="square" stroke-width="1.44"/>
     <circle fill="none" cx="14.4" cy="8.8866" stroke="black" id="connector0pin" r="2.16" stroke-width="1.44"/>
     <circle fill="none" cx="14.4" cy="23.0599" stroke="black" id="connector1pin" r="2.16" stroke-width="1.44"/>
    </g>
   </g>
  </g>
 </g>
 <g partID="352170">
  <g transform="translate(-0.8456,29.604)">
   <g transform="matrix(-1, 0, 0, 1, 28.8, 0)">
    <g _flipped_="1" id="copper0">
     <text x="14.4" y="6.48" fill="black" font-family="OCRA" text-anchor="middle" xmlns:xml="http://www.w3.org/XML/1998/namespace" id="label" xml:space="preserve" stroke-width="0" font-size="7.2">2013</text>
    </g>
   </g>
  </g>
 </g>
 <g partID="94630">
  <g transform="translate(206.152,21.073)">
   <g transform="matrix(0,1,-1,0,0,0)">
    <g transform="matrix(0, -1, 1, 0, 0, 7.92)">
     <g id="copper0">
      <g gorn="0.6.0.0">
       <g gorn="0.6.0.0.0" id="copper1">
        <circle fill="none" cx="3.96" gorn="0.6.0.0.0.0" cy="3.96" stroke="black" r="1.764" id="connector0pin" stroke-width="0.792"/>
        <circle fill="none" cx="3.96" gorn="0.6.0.0.0.1" cy="11.16" stroke="black" r="1.764" id="connector1pin" stroke-width="0.792"/>
        <circle fill="none" cx="3.96" gorn="0.6.0.0.0.2" cy="18.36" stroke="black" r="1.764" id="connector2pin" stroke-width="0.792"/>
        <g transform="matrix(1, 0, 0, 1, -0.00392136, 7.20444)">
         <g>
          <g>
           <circle fill="none" cx="3.96" gorn="0.6.0.0.0.3.0.0" cy="18.36" stroke="black" r="1.764" id="connector4pin" stroke-width="0.792"/>
          </g>
         </g>
        </g>
        <g transform="matrix(1, 0, 0, 1, -0.00323675, 93.6177)">
         <g>
          <g>
           <circle fill="none" cx="3.96" gorn="0.6.0.0.0.4.0.0" cy="3.96" stroke="black" r="1.764" id="connector5pin" stroke-width="0.792"/>
          </g>
         </g>
        </g>
        <g transform="matrix(1, 0, 0, 1, -0.00323675, 93.6177)">
         <g>
          <g>
           <circle fill="none" cx="3.96" gorn="0.6.0.0.0.5.0.0" cy="11.16" stroke="black" r="1.764" id="connector6pin" stroke-width="0.792"/>
          </g>
         </g>
        </g>
        <g transform="matrix(1, 0, 0, 1, -0.00323675, 93.6177)">
         <g>
          <g>
           <circle fill="none" cx="3.96" gorn="0.6.0.0.0.6.0.0" cy="18.36" stroke="black" r="1.764" id="connector7pin" stroke-width="0.792"/>
          </g>
         </g>
        </g>
        <g transform="matrix(1, 0, 0, 1, -0.00715812, 100.822)">
         <g>
          <g>
           <circle fill="none" cx="3.96" gorn="0.6.0.0.0.7.0.0" cy="18.36" stroke="black" r="1.764" id="connector8pin" stroke-width="0.792"/>
          </g>
         </g>
        </g>
       </g>
      </g>
     </g>
    </g>
   </g>
  </g>
 </g>
 <g partID="94780">
  <g transform="translate(2.67344,14.7184)">
   <g  id="copper0">
    <circle fill="none" cx="151.384"  cy="144" stroke="black" id="connector1pad" r="1.61" stroke-width="0.8113"/>
    <circle fill="none" cx="158.583"  cy="144" stroke="black" id="connector2pad" r="1.61" stroke-width="0.8113"/>
    <circle fill="none" cx="165.786"  cy="144" stroke="black" id="connector3pad" r="1.61" stroke-width="0.8113"/>
    <circle fill="none" cx="172.985"  cy="144" stroke="black" id="connector4pad" r="1.61" stroke-width="0.8113"/>
    <circle fill="none" cx="180.184"  cy="144" stroke="black" id="connector5pad" r="1.61" stroke-width="0.8113"/>
    <circle fill="none" cx="118.263"  cy="7.2" stroke="black" id="connector51pad" r="1.61" stroke-width="0.8113"/>
    <circle fill="none" cx="111.065"  cy="7.2" stroke="black" id="connector52pad" r="1.61" stroke-width="0.8113"/>
    <circle fill="none" cx="103.864"  cy="7.2" stroke="black" id="connector53pad" r="1.61" stroke-width="0.8113"/>
    <circle fill="none" cx="96.664"  cy="7.2" stroke="black" id="connector54pad" r="1.61" stroke-width="0.8113"/>
    <circle fill="none" cx="89.464"  cy="7.2" stroke="black" id="connector55pad" r="1.61" stroke-width="0.8113"/>
    <circle fill="none" cx="82.264"  cy="7.2" stroke="black" id="connector56pad" r="1.61" stroke-width="0.8113"/>
    <circle fill="none" cx="75.064"  cy="7.2" stroke="black" id="connector57pad" r="1.61" stroke-width="0.8113"/>
    <circle fill="none" cx="67.864"  cy="7.2" stroke="black" id="connector58pad" r="1.61" stroke-width="0.8113"/>
    <circle fill="none" cx="60.664"  cy="7.2" stroke="black" id="connector59pad" r="1.61" stroke-width="0.8113"/>
    <circle fill="none" cx="53.463"  cy="7.2" stroke="black" id="connector60pad" r="1.61" stroke-width="0.8113"/>
    <circle fill="none" cx="180.184"  cy="7.2" stroke="black" id="connector61pad" r="1.61" stroke-width="0.8113"/>
    <circle fill="none" cx="172.985"  cy="7.2" stroke="black" id="connector62pad" r="1.61" stroke-width="0.8113"/>
    <circle fill="none" cx="165.786"  cy="7.2" stroke="black" id="connector63pad" r="1.61" stroke-width="0.8113"/>
    <circle fill="none" cx="158.583"  cy="7.2" stroke="black" id="connector64pad" r="1.61" stroke-width="0.8113"/>
    <circle fill="none" cx="151.384"  cy="7.2" stroke="black" id="connector65pad" r="1.61" stroke-width="0.8113"/>
    <circle fill="none" cx="144.184"  cy="7.2" stroke="black" id="connector66pad" r="1.61" stroke-width="0.8113"/>
    <circle fill="none" cx="136.985"  cy="7.2" stroke="black" id="connector67pad" r="1.61" stroke-width="0.8113"/>
    <circle fill="none" cx="129.784"  cy="7.2" stroke="black" id="connector68pad" r="1.61" stroke-width="0.8113"/>
    <circle fill="none" cx="86.584"  cy="144" stroke="black" id="connector84pad" r="1.61" stroke-width="0.8113"/>
    <circle fill="none" cx="79.384"  cy="144" stroke="black" id="connector91pin" r="1.61" stroke-width="0.8113"/>
    <circle fill="none" cx="93.784"  cy="144" stroke="black" id="connector85pad" r="1.61" stroke-width="0.8113"/>
    <circle fill="none" cx="100.985"  cy="144" stroke="black" id="connector86pad" r="1.61" stroke-width="0.8113"/>
    <circle fill="none" cx="108.184"  cy="144" stroke="black" id="connector87pad" r="1.61" stroke-width="0.8113"/>
    <circle fill="none" cx="115.384"  cy="144" stroke="black" id="connector88pad" r="1.61" stroke-width="0.8113"/>
    <circle fill="none" cx="122.583"  cy="144" stroke="black" id="connector89pad" r="1.61" stroke-width="0.8113"/>
    <circle fill="none" cx="129.784"  cy="144" stroke="black" id="connector90pad" r="1.61" stroke-width="0.8113"/>
    <circle fill="none" cx="144.184"  cy="144" stroke="black" id="connector0pad" r="1.61" stroke-width="0.8113"/>
   </g>
  </g>
 </g>
 <g partID="143340">
  <g transform="translate(68.8554,88.9037)">
   <g transform="matrix(0,1,-1,0,0,0)">
    <g  id="copper0">
     <rect width="4.27465" x="12.2627" y="6.74929" fill="none"  height="4.27465" stroke="black" id="square" stroke-width="1.44"/>
     <circle fill="none" cx="14.4"  cy="8.8866" stroke="black" id="connector0pin" r="2.13732" stroke-width="1.44"/>
     <circle fill="none" cx="14.4"  cy="23.0599" stroke="black" id="connector1pin" r="2.13732" stroke-width="1.44"/>
    </g>
   </g>
  </g>
 </g>
 <g partID="144930">
  <g transform="translate(102.722,88.9036)">
   <g transform="matrix(0,1,-1,0,0,0)">
    <g  id="copper0">
     <rect width="4.27465" x="12.2627" y="6.74929" fill="none"  height="4.27465" stroke="black" id="square" stroke-width="1.44"/>
     <circle fill="none" cx="14.4"  cy="8.8866" stroke="black" id="connector0pin" r="2.13732" stroke-width="1.44"/>
     <circle fill="none" cx="14.4"  cy="23.0599" stroke="black" id="connector1pin" r="2.13732" stroke-width="1.44"/>
    </g>
   </g>
  </g>
 </g>
 <g partID="145270">
  <g transform="translate(139.043,88.9036)">
   <g transform="matrix(0,1,-1,0,0,0)">
    <g id="copper0">
     <rect width="4.32" x="12.24" y="6.72661" fill="none" height="4.32" stroke="black" id="square" stroke-width="1.44"/>
     <circle fill="none" cx="14.4" cy="8.8866" stroke="black" id="connector0pin" r="2.16" stroke-width="1.44"/>
     <circle fill="none" cx="14.4" cy="23.0599" stroke="black" id="connector1pin" r="2.16" stroke-width="1.44"/>
    </g>
   </g>
  </g>
 </g>
 <g partID="145450">
  <g transform="translate(82.0711,78.8924)">
   <g transform="matrix(0,-1,1,0,0,0)">
    <g id="copper0">
     <rect width="4.32" x="12.24" y="6.72661" fill="none" height="4.32" stroke="black" id="square" stroke-width="1.44"/>
     <circle fill="none" cx="14.4" cy="8.8866" stroke="black" id="connector0pin" r="2.16" stroke-width="1.44"/>
     <circle fill="none" cx="14.4" cy="23.0599" stroke="black" id="connector1pin" r="2.16" stroke-width="1.44"/>
    </g>
   </g>
  </g>
 </g>
 <g partID="145550">
  <g transform="translate(116.746,78.8924)">
   <g transform="matrix(0,-1,1,0,0,0)">
    <g id="copper0">
     <rect width="4.32" x="12.24" y="6.72661" fill="none" height="4.32" stroke="black" id="square" stroke-width="1.44"/>
     <circle fill="none" cx="14.4" cy="8.8866" stroke="black" id="connector0pin" r="2.16" stroke-width="1.44"/>
     <circle fill="none" cx="14.4" cy="23.0599" stroke="black" id="connector1pin" r="2.16" stroke-width="1.44"/>
    </g>
   </g>
  </g>
 </g>
 <g partID="145690">
  <g transform="translate(150.067,78.8924)">
   <g transform="matrix(0,-1,1,0,0,0)">
    <g id="copper0">
     <rect width="4.32" x="12.24" y="6.72661" fill="none" height="4.32" stroke="black" id="square" stroke-width="1.44"/>
     <circle fill="none" cx="14.4" cy="8.8866" stroke="black" id="connector0pin" r="2.16" stroke-width="1.44"/>
     <circle fill="none" cx="14.4" cy="23.0599" stroke="black" id="connector1pin" r="2.16" stroke-width="1.44"/>
    </g>
   </g>
  </g>
 </g>
 <g partID="97870">
  <g transform="translate(15.624,163.422)">
   <g transform="matrix(0,-1,1,0,0,0)">
    <g  id="copper0">
     <rect width="4.176" x="2.952" y="2.952" fill="none"  height="4.176" stroke="black" id="square" stroke-width="1.44"/>
     <circle fill="none" cx="5.04"  cy="5.04" stroke="black" id="connector0pin" r="2.088" stroke-width="1.44"/>
     <circle fill="none" cx="5.04"  cy="19.44" stroke="black" id="connector1pin" r="2.088" stroke-width="1.44"/>
     <circle fill="none" cx="5.04"  cy="33.84" stroke="black" id="connector2pin" r="2.088" stroke-width="1.44"/>
    </g>
   </g>
  </g>
 </g>
 <g partID="141370">
  <g transform="translate(14.5611,26.1726)">
   <g transform="matrix(0,1,-1,0,0,0)">
    <g transform="matrix(-1, 0, 0, 1, 130.83, 0)">
     <g _flipped_="1" id="copper0">
      <text x="65.4149" y="9.81222" fill="black" font-family="OCRA" text-anchor="middle" xmlns:xml="http://www.w3.org/XML/1998/namespace" id="label" xml:space="preserve" stroke-width="0" font-size="10.9025">Luz &amp; Fuerza</text>
     </g>
    </g>
   </g>
  </g>
 </g>
 <g partID="348360">
  <g transform="translate(137.841,104.594)">
   <g transform="matrix(1,0,0,1,0,0)">
    <g transform="matrix(-1, 0, 0, 1, 61.0539, 0)">
     <g _flipped_="1" id="copper0">
      <text x="30.527" y="7.84977" fill="black" font-family="OCRA" text-anchor="middle" xmlns:xml="http://www.w3.org/XML/1998/namespace" id="label" xml:space="preserve" stroke-width="0" font-size="8.72199">REF GND</text>
     </g>
    </g>
   </g>
  </g>
 </g>
 <g partID="141390">
  <g transform="translate(25.1288,30.6816)">
   <g transform="matrix(0,1,-1,0,0,0)">
    <g transform="matrix(-1, 0, 0, 1, 127.123, 0)">
     <g _flipped_="1" id="copper0">
      <text x="63.5616" y="10.4009" fill="black" font-family="OCRA" text-anchor="middle" xmlns:xml="http://www.w3.org/XML/1998/namespace" id="label" xml:space="preserve" stroke-width="0" font-size="11.5567">frankitropo</text>
     </g>
    </g>
   </g>
  </g>
 </g>
 <g partID="142220">
  <g transform="translate(15.4432,164.422)">
   <g transform="matrix(-1, 0, 0, 1, 13.083, 0)">
    <g _flipped_="1" id="copper0">
     <text x="6.54149" y="3.9249" fill="black" font-family="OCRA" text-anchor="middle" xmlns:xml="http://www.w3.org/XML/1998/namespace" id="label" xml:space="preserve" stroke-width="0" font-size="4.36099">pot</text>
    </g>
   </g>
  </g>
 </g>
 <g partID="142200">
  <g transform="translate(206.613,168.695)">
   <g transform="matrix(0,-1,1,0,0,0)">
    <g transform="matrix(-1, 0, 0, 1, 30.527, 0)">
     <g _flipped_="1" id="copper0">
      <text x="15.2635" y="3.9249" fill="black" font-family="OCRA" text-anchor="middle" xmlns:xml="http://www.w3.org/XML/1998/namespace" id="label" xml:space="preserve" stroke-width="0" font-size="4.361">antenna</text>
     </g>
    </g>
   </g>
  </g>
 </g>
 <g partID="142180">
  <g transform="translate(189.636,75.001)">
   <g transform="matrix(0,-1,1,0,0,0)">
    <g transform="matrix(-1, 0, 0, 1, 34.888, 0)">
     <g _flipped_="1" id="copper0">
      <text x="17.444" y="3.9249" fill="black" font-family="OCRA" text-anchor="middle" xmlns:xml="http://www.w3.org/XML/1998/namespace" id="label" xml:space="preserve" stroke-width="0" font-size="4.36099">receiver</text>
     </g>
    </g>
   </g>
  </g>
 </g>
 <g partID="142130">
  <g transform="translate(64.1506,127.875)">
   <g transform="matrix(-1,0,0,-1,0,0)">
    <g transform="matrix(-1, 0, 0, 1, 21.805, 0)">
     <g _flipped_="1" id="copper0">
      <text x="10.9025" y="3.9249" fill="black" font-family="OCRA" text-anchor="middle" xmlns:xml="http://www.w3.org/XML/1998/namespace" id="label" xml:space="preserve" stroke-width="0" font-size="4.361">11-12</text>
     </g>
    </g>
   </g>
  </g>
 </g>
 <g partID="142110">
  <g transform="translate(96.2896,127.34)">
   <g transform="matrix(-1,0,0,-1,0,0)">
    <g transform="matrix(-1, 0, 0, 1, 17.444, 0)">
     <g _flipped_="1" id="copper0">
      <text x="8.72201" y="3.9249" fill="black" font-family="OCRA" text-anchor="middle" xmlns:xml="http://www.w3.org/XML/1998/namespace" id="label" xml:space="preserve" stroke-width="0" font-size="4.361">9-10</text>
     </g>
    </g>
   </g>
  </g>
 </g>
 <g partID="142090">
  <g transform="translate(138.824,132.433)">
   <g transform="matrix(-1,0,0,-1,0,0)">
    <g transform="matrix(-1, 0, 0, 1, 32.7074, 0)">
     <g _flipped_="1" id="copper0">
      <text x="16.3537" y="9.81222" fill="black" font-family="OCRA" text-anchor="middle" xmlns:xml="http://www.w3.org/XML/1998/namespace" id="label" xml:space="preserve" stroke-width="0" font-size="10.9025">7-8</text>
     </g>
    </g>
   </g>
  </g>
 </g>
 <g partID="142070">
  <g transform="translate(88.097,82.1104)">
   <g transform="matrix(-1, 0, 0, 1, 13.083, 0)">
    <g _flipped_="1" id="copper0">
     <text x="6.54149" y="3.9249" fill="black" font-family="OCRA" text-anchor="middle" xmlns:xml="http://www.w3.org/XML/1998/namespace" id="label" xml:space="preserve" stroke-width="0" font-size="4.36099">5-6</text>
    </g>
   </g>
  </g>
 </g>
 <g partID="142050">
  <g transform="translate(127.397,79.6584)">
   <g transform="matrix(-1, 0, 0, 1, 13.083, 0)">
    <g _flipped_="1" id="copper0">
     <text x="6.54149" y="3.9249" fill="black" font-family="OCRA" text-anchor="middle" xmlns:xml="http://www.w3.org/XML/1998/namespace" id="label" xml:space="preserve" stroke-width="0" font-size="4.36099">3-4</text>
    </g>
   </g>
  </g>
 </g>
 <g partID="352310">
  <line stroke="black" stroke-linecap="round" y1="142.423" x1="202.173" y2="156.409" stroke-width="1.728" x2="202.096"/>
 </g>
 <g partID="345790">
  <line stroke="black" stroke-linecap="round" y1="168.225" x1="56.0953" y2="168.431" stroke-width="3.456" x2="118.031"/>
 </g>
 <g partID="345740">
  <line stroke="black" stroke-linecap="round" y1="149.644" x1="26.5726" y2="150.057" stroke-width="3.456" x2="106.056"/>
 </g>
 <g partID="345710">
  <line stroke="black" stroke-linecap="round" y1="150.057" x1="106.056" y2="156.265" stroke-width="3.456" x2="109.498"/>
 </g>
 <g partID="345370">
  <line stroke="black" stroke-linecap="round" y1="49.6048" x1="202.188" y2="115.682" stroke-width="3.456" x2="202.189"/>
 </g>
 <g partID="345250">
  <line stroke="black" stroke-linecap="round" y1="155.924" x1="22.3265" y2="149.644" stroke-width="3.456" x2="26.5727"/>
 </g>
 <g partID="345180">
  <line stroke="black" stroke-linecap="round" y1="160.844" x1="51.1224" y2="168.225" stroke-width="3.456" x2="56.0952"/>
 </g>
 <g partID="345170">
  <line stroke="black" stroke-linecap="round" y1="168.431" x1="118.031" y2="161.522" stroke-width="3.456" x2="118.05"/>
 </g>
 <g partID="345120">
  <line stroke="black" stroke-linecap="round" y1="176.502" x1="46.9586" y2="175.907" stroke-width="3.456" x2="127.628"/>
 </g>
 <g partID="345090">
  <line stroke="black" stroke-linecap="round" y1="175.906" x1="127.628" y2="160.587" stroke-width="3.456" x2="144.767"/>
 </g>
 <g partID="345070">
  <line stroke="black" stroke-linecap="round" y1="160.864" x1="36.6927" y2="176.502" stroke-width="3.456" x2="46.9586"/>
 </g>
 <g partID="348330">
  <line stroke="black" stroke-linecap="round" y1="32.0184" x1="175.489" y2="32.2092" stroke-width="3.456" x2="199.224"/>
 </g>
 <g partID="348310">
  <line stroke="black" stroke-linecap="round" y1="24.7224" x1="175.611" y2="32.0187" stroke-width="3.456" x2="175.489"/>
 </g>
 <g partID="348270">
  <line stroke="black" stroke-linecap="round" y1="25.2184" x1="210.289" y2="125.618" stroke-width="3.456" x2="209.489"/>
 </g>
 <g partID="348200">
  <line stroke="black" stroke-linecap="round" y1="125.618" x1="209.489" y2="125.756" stroke-width="3.456" x2="205.155"/>
 </g>
 <g partID="348170">
  <line stroke="black" stroke-linecap="round" y1="134.892" x1="152.426" y2="135.082" stroke-width="3.456" x2="117.547"/>
 </g>
 <g partID="348150">
  <line stroke="black" stroke-linecap="round" y1="135.082" x1="117.547" y2="156.02" stroke-width="3.456" x2="111.621"/>
 </g>
 <g partID="347870">
  <line stroke="black" stroke-linecap="round" y1="25.1008" x1="205.158" y2="25.2185" stroke-width="3.456" x2="210.288"/>
 </g>
 <g partID="347500">
  <line stroke="black" stroke-linecap="round" y1="118.818" x1="152.689" y2="134.892" stroke-width="3.456" x2="152.426"/>
 </g>
 <g partID="347480">
  <line stroke="black" stroke-linecap="round" y1="118.66" x1="199.22" y2="118.818" stroke-width="3.456" x2="152.688"/>
 </g>
 <g partID="352120">
  <line stroke="black" stroke-linecap="round" y1="128.055" x1="176.677" y2="128.055" stroke-width="1.728" x2="166.984"/>
 </g>
 <g partID="352090">
  <line stroke="black" stroke-linecap="round" y1="150.468" x1="186.761" y2="150.352" stroke-width="3.456" x2="131.917"/>
 </g>
 <g partID="352060">
  <line stroke="black" stroke-linecap="round" y1="150.352" x1="131.917" y2="145.098" stroke-width="3.456" x2="126.938"/>
 </g>
 <g partID="352010">
  <line stroke="black" stroke-linecap="round" y1="137.37" x1="165.466" y2="141.777" stroke-width="3.456" x2="156.346"/>
 </g>
 <g partID="351970">
  <line stroke="black" stroke-linecap="round" y1="135.272" x1="200.22" y2="150.468" stroke-width="3.456" x2="186.761"/>
 </g>
 <g partID="351910">
  <line stroke="black" stroke-linecap="round" y1="129.786" x1="176.418" y2="137.37" stroke-width="3.456" x2="165.466"/>
 </g>
 <g partID="351810">
  <line stroke="black" stroke-linecap="round" y1="145.881" x1="125.023" y2="155.914" stroke-width="3.456" x2="125.206"/>
 </g>
 <g partID="284600">
  <line stroke="black" stroke-linecap="round" y1="24.7227" x1="168.445" y2="58.1779" stroke-width="3.456" x2="168.266"/>
 </g>
 <g partID="284590">
  <line stroke="black" stroke-linecap="round" y1="58.1776" x1="168.266" y2="62.0836" stroke-width="3.456" x2="171.273"/>
 </g>
 <g partID="285970">
  <line stroke="black" stroke-linecap="round" y1="73.0808" x1="115.672" y2="100.264" stroke-width="3.456" x2="115.951"/>
 </g>
 <g partID="285920">
  <line stroke="black" stroke-linecap="round" y1="39.6416" x1="85.2535" y2="73.2869" stroke-width="3.456" x2="84.7835"/>
 </g>
 <g partID="285630">
  <line stroke="black" stroke-linecap="round" y1="73.2872" x1="84.7835" y2="73.0808" stroke-width="3.456" x2="115.672"/>
 </g>
 <g partID="285450">
  <line stroke="black" stroke-linecap="round" y1="24.7224" x1="120.89" y2="39.7675" stroke-width="3.456" x2="120.642"/>
 </g>
 <g partID="285440">
  <line stroke="black" stroke-linecap="round" y1="39.7672" x1="120.642" y2="39.6417" stroke-width="3.456" x2="85.2535"/>
 </g>
 <g partID="285370">
  <line stroke="black" stroke-linecap="round" y1="45.2472" x1="91.148" y2="61.4526" stroke-width="3.456" x2="90.9877"/>
 </g>
 <g partID="285320">
  <line stroke="black" stroke-linecap="round" y1="24.7227" x1="132.469" y2="45.4883" stroke-width="3.456" x2="132.557"/>
 </g>
 <g partID="285310">
  <line stroke="black" stroke-linecap="round" y1="45.488" x1="132.557" y2="45.2472" stroke-width="3.456" x2="91.148"/>
 </g>
 <g partID="285240">
  <line stroke="black" stroke-linecap="round" y1="49.6088" x1="104.858" y2="49.8117" stroke-width="3.456" x2="139.97"/>
 </g>
 <g partID="285190">
  <line stroke="black" stroke-linecap="round" y1="49.812" x1="139.97" y2="24.7226" stroke-width="3.456" x2="139.69"/>
 </g>
 <g partID="285150">
  <line stroke="black" stroke-linecap="round" y1="61.4525" x1="105.075" y2="49.609" stroke-width="3.456" x2="104.858"/>
 </g>
 <g partID="285100">
  <line stroke="black" stroke-linecap="round" y1="54.2832" x1="125.423" y2="54.1274" stroke-width="3.456" x2="146.766"/>
 </g>
 <g partID="285050">
  <line stroke="black" stroke-linecap="round" y1="54.1272" x1="146.766" y2="24.7222" stroke-width="3.456" x2="146.85"/>
 </g>
 <g partID="285010">
  <line stroke="black" stroke-linecap="round" y1="61.4526" x1="125.57" y2="54.2827" stroke-width="3.456" x2="125.423"/>
 </g>
 <g partID="284960">
  <line stroke="black" stroke-linecap="round" y1="58.9568" x1="139.911" y2="61.4528" stroke-width="3.456" x2="139.864"/>
 </g>
 <g partID="284910">
  <line stroke="black" stroke-linecap="round" y1="24.7227" x1="154.048" y2="58.8011" stroke-width="3.456" x2="153.933"/>
 </g>
 <g partID="284900">
  <line stroke="black" stroke-linecap="round" y1="58.8008" x1="153.933" y2="58.9566" stroke-width="3.456" x2="139.911"/>
 </g>
 <g partID="284830">
  <line stroke="black" stroke-linecap="round" y1="57.2432" x1="161.099" y2="24.7228" stroke-width="3.456" x2="161.244"/>
 </g>
 <g partID="284790">
  <line stroke="black" stroke-linecap="round" y1="61.577" x1="159.817" y2="57.2424" stroke-width="3.456" x2="161.099"/>
 </g>
 <g partID="287130">
  <line stroke="black" stroke-linecap="round" y1="10.6536" x1="40.2653" y2="97.8064" stroke-width="3.456" x2="39.5123"/>
 </g>
 <g partID="287000">
  <line stroke="black" stroke-linecap="round" y1="97.8064" x1="39.5123" y2="101.317" stroke-width="3.456" x2="43.5246"/>
 </g>
 <g partID="286900">
  <line stroke="black" stroke-linecap="round" y1="95.5264" x1="48.1297" y2="101.647" stroke-width="3.456" x2="57.4469"/>
 </g>
 <g partID="286850">
  <line stroke="black" stroke-linecap="round" y1="15.9936" x1="48.6728" y2="95.5263" stroke-width="3.456" x2="48.1297"/>
 </g>
 <g partID="286800">
  <line stroke="black" stroke-linecap="round" y1="16.0408" x1="84.7835" y2="15.9933" stroke-width="3.456" x2="48.6728"/>
 </g>
 <g partID="286680">
  <line stroke="black" stroke-linecap="round" y1="109.289" x1="31.6065" y2="109.941" stroke-width="3.456" x2="93.6381"/>
 </g>
 <g partID="286630">
  <line stroke="black" stroke-linecap="round" y1="109.941" x1="93.6381" y2="106.32" stroke-width="3.456" x2="93.7455"/>
 </g>
 <g partID="286580">
  <line stroke="black" stroke-linecap="round" y1="4.8184" x1="99.4888" y2="4.63016" stroke-width="3.456" x2="32.1712"/>
 </g>
 <g partID="286530">
  <line stroke="black" stroke-linecap="round" y1="95.736" x1="70.6966" y2="101.357" stroke-width="3.456" x2="77.3561"/>
 </g>
 <g partID="286480">
  <line stroke="black" stroke-linecap="round" y1="28.8496" x1="71.0731" y2="95.7358" stroke-width="3.456" x2="70.6966"/>
 </g>
 <g partID="286380">
  <line stroke="black" stroke-linecap="round" y1="24.7217" x1="106.614" y2="28.3483" stroke-width="3.456" x2="106.712"/>
 </g>
 <g partID="286370">
  <line stroke="black" stroke-linecap="round" y1="28.348" x1="106.712" y2="28.85" stroke-width="3.456" x2="71.0731"/>
 </g>
 <g partID="286300">
  <line stroke="black" stroke-linecap="round" y1="110.795" x1="126.54" y2="106.042" stroke-width="3.456" x2="128.834"/>
 </g>
 <g partID="286250">
  <line stroke="black" stroke-linecap="round" y1="111.171" x1="108.344" y2="110.795" stroke-width="3.456" x2="126.54"/>
 </g>
 <g partID="286200">
  <line stroke="black" stroke-linecap="round" y1="79.1712" x1="108.218" y2="111.171" stroke-width="3.456" x2="108.344"/>
 </g>
 <g partID="286150">
  <line stroke="black" stroke-linecap="round" y1="79.4224" x1="78.6025" y2="79.1714" stroke-width="3.456" x2="108.218"/>
 </g>
 <g partID="286100">
  <line stroke="black" stroke-linecap="round" y1="34.3712" x1="78.979" y2="79.4222" stroke-width="3.456" x2="78.6025"/>
 </g>
 <g partID="286050">
  <line stroke="black" stroke-linecap="round" y1="24.7222" x1="113.796" y2="34.2459" stroke-width="3.456" x2="113.991"/>
 </g>
 <g partID="286040">
  <line stroke="black" stroke-linecap="round" y1="34.2456" x1="113.991" y2="34.3711" stroke-width="3.456" x2="78.979"/>
 </g>
 <g partID="285850">
  <line stroke="black" stroke-linecap="round" y1="19.1154" x1="92.2231" y2="10.4187" stroke-width="3.456" x2="92.4888"/>
 </g>
 <g partID="285840">
  <line stroke="black" stroke-linecap="round" y1="10.4184" x1="92.4888" y2="10.6537" stroke-width="3.456" x2="40.2653"/>
 </g>
 <g partID="285700">
  <line stroke="black" stroke-linecap="round" y1="19.115" x1="84.8641" y2="16.0411" stroke-width="3.456" x2="84.7835"/>
 </g>
 <g partID="285580">
  <line stroke="black" stroke-linecap="round" y1="19.1142" x1="99.3623" y2="4.81872" stroke-width="3.456" x2="99.4887"/>
 </g>
 <g partID="285570">
  <line stroke="black" stroke-linecap="round" y1="4.6304" x1="32.1711" y2="109.29" stroke-width="3.456" x2="31.6064"/>
 </g>
 <g partID="288670">
  <line stroke="black" stroke-linecap="round" y1="128.818" x1="202.188" y2="130.082" stroke-width="3.456" x2="202.188"/>
 </g>
</svg>
